<svg xmlns="http://www.w3.org/2000/svg" width="4676.248" height="5034.989" viewBox="0 0 4676.248 5034.989">
  <defs>
    <style>
      .cls-1 {
        fill: #fff;
      }
    </style>
  </defs>
  <g id="art_icon" data-name="art icon" transform="translate(-496.533 -317.15)">
    <path id="Path_340" data-name="Path 340" class="cls-1" d="M4606.46,2642.94a238.95,238.95,0,1,1-51.06-75.76,238.95,238.95,0,0,1,51.06,75.76Zm-53.86,92.82a165.78,165.78,0,1,0-165.78,165.78,165.781,165.781,0,0,0,165.78-165.78Z"/>
    <path id="Path_341" data-name="Path 341" class="cls-1" d="M4386.82,2570a165.823,165.823,0,1,0,.006,0ZM4480,2735.76a93.15,93.15,0,1,0-93.15,93.15,93.15,93.15,0,0,0,93.15-93.15Z"/>
    <path id="Path_342" data-name="Path 342" class="cls-1" d="M4386.82,2642.61a93.15,93.15,0,1,1-93.15,93.15,93.15,93.15,0,0,1,93.15-93.15Z"/>
    <path id="Path_343" data-name="Path 343" class="cls-1" d="M4362.39,3671.2a238.95,238.95,0,1,1-51.06-75.76,238.95,238.95,0,0,1,51.06,75.76Zm-53.86,92.8a165.78,165.78,0,1,0-165.78,165.78A165.78,165.78,0,0,0,4308.53,3764Z"/>
    <path id="Path_344" data-name="Path 344" class="cls-1" d="M4142.75,3598.24a165.742,165.742,0,1,1-.017,0ZM4235.9,3764a93.15,93.15,0,1,0-93.15,93.15A93.15,93.15,0,0,0,4235.9,3764Z"/>
    <path id="Path_345" data-name="Path 345" class="cls-1" d="M4142.75,3670.87a93.15,93.15,0,1,1-93.15,93.143,93.15,93.15,0,0,1,93.15-93.143Z"/>
    <path id="Path_346" data-name="Path 346" class="cls-1" d="M4073.53,4732h0c1.92-1.32,48.69-33.6,119.22-92.78a2682.661,2682.661,0,0,0,272.53-264.74c184.72-207,421.24-541,499-956.48,84.76-452.87-32.37-916-348.15-1376.55C3993.27,1132.88,3061.81,953,2562,926.58c-220.95-11.66-440.56,1.12-649.19,37.17q-12.45-97-26.43-179.53,64.45-11,130.34-19.29a3137.7,3137.7,0,0,1,554.85-19.66c201.61,10.64,401.26,40.57,593.42,89,205.31,51.7,402.62,124.69,586.46,216.93C3948.48,1150,4132,1272,4297,1413.83a2676.774,2676.774,0,0,1,246.3,241.22A2780.978,2780.978,0,0,1,4766,1938.7c93.249,136,171.539,274.41,232.689,411.39,58,129.91,102.07,261.85,131,392.16,27.22,122.62,41.69,246.8,43,369.08a1750.028,1750.028,0,0,1-30.11,341.55c-38.16,202.91-113,404.49-222.37,599.17-86.86,154.59-195.63,305.2-323.28,447.64-212.89,237.58-405.22,371.42-420.38,381.83-7,5-63.88,44.73-153.12,99.58-86,52.86-219.89,130.39-369.14,199.57-170.39,79-326.11,131.31-462.82,155.57-59.66,10.58-116.41,15.9-169.47,15.9q-33.12,0-64.27-2.77c-82-7.28-155.36-29.11-218.11-64.86-100.41-57.22-173.54-149.17-217.33-273.28-22.12-62.68-37-134.74-44.16-214.18-7.28-80.55-6.91-171.25,1.1-269.6,33.55-412-58.25-741.4-272.85-979.12-76.22-84.42-162.72-151.11-250.18-203.72q6.94-97.93,12.43-201.31,15.15,7.85,30,16c132.61,72.56,247.85,162.52,342.51,267.38,116.3,128.83,202.75,281.5,256.93,453.75,29.75,94.6,50.2,196.69,60.76,303.42,11.12,112.38,11.57,232.95,1.36,358.36-13.8,169.37-2.59,306.82,33.3,408.56,29.24,82.91,73.71,140.47,136,176,79.06,45.08,189.78,55.5,329.1,30.95,121-21.32,261.29-68.64,417.07-140.67,141.2-65.28,268.52-138.92,350.47-189.21,89.29-54.79,145.65-94.55,146.21-94.94Z"/>
    <path id="Path_347" data-name="Path 347" class="cls-1" d="M3878.11,1885.37a239,239,0,1,1-51.06-75.76,239,239,0,0,1,51.06,75.76Zm-53.86,92.82a161.96,161.96,0,1,1,0-.01Z"/>
    <path id="Path_348" data-name="Path 348" class="cls-1" d="M3658.47,1812.41a165.78,165.78,0,1,1-165.78,165.78,165.78,165.78,0,0,1,165.78-165.78Zm93.15,165.78a93.15,93.15,0,1,0-93.15,93.15,93.15,93.15,0,0,0,93.15-93.15Z"/>
    <path id="Path_349" data-name="Path 349" class="cls-1" d="M3658.47,1885a93.15,93.15,0,1,1-93.15,93.15,93.15,93.15,0,0,1,93.15-93.15Z"/>
    <path id="Path_350" data-name="Path 350" class="cls-1" d="M3546.56,4355.21a239,239,0,1,1-51.07-75.76,239,239,0,0,1,51.07,75.76ZM3492.69,4448a165.78,165.78,0,1,0-165.78,165.779A165.78,165.78,0,0,0,3492.69,4448Z"/>
    <path id="Path_351" data-name="Path 351" class="cls-1" d="M3326.91,4282.25a165.763,165.763,0,1,1-.013,0ZM3420.07,4448a93.15,93.15,0,1,0-93.153,93.15A93.15,93.15,0,0,0,3420.07,4448Z"/>
    <path id="Path_352" data-name="Path 352" class="cls-1" d="M3326.91,4354.88a93.15,93.15,0,1,1-93.14,93.146,93.152,93.152,0,0,1,93.14-93.146Z"/>
    <path id="Path_353" data-name="Path 353" class="cls-1" d="M3026.93,1465.91a239,239,0,1,1-51.06-75.76A239,239,0,0,1,3026.93,1465.91Zm-53.86,92.82a165.78,165.78,0,1,0-165.78,165.78,165.78,165.78,0,0,0,165.78-165.78Z"/>
    <path id="Path_354" data-name="Path 354" class="cls-1" d="M2807.29,1393a165.78,165.78,0,1,1-165.78,165.78A165.78,165.78,0,0,1,2807.29,1393Zm93.15,165.78a93.175,93.175,0,1,1,0-.05Z"/>
    <path id="Path_355" data-name="Path 355" class="cls-1" d="M2807.29,1465.58a93.15,93.15,0,1,1-93.15,93.15,93.15,93.15,0,0,1,93.15-93.15Z"/>
    <path id="Path_356" data-name="Path 356" class="cls-1" d="M2086.21,4359.93v2.87a455.949,455.949,0,0,1-190.49,367.451q45.15-158.471,45.24-370.32Z"/>
    <path id="Path_357" data-name="Path 357" class="cls-1" d="M2086.21,4359.93H1941a308.809,308.809,0,0,0-88.89-217q17.12-71.211,32.6-161a454.569,454.569,0,0,1,201.54,378Z"/>
    <path id="Path_358" data-name="Path 358" class="cls-1" d="M2086.21,4362.8c-.14,104.18-8.15,201.55-23.8,289.43-15.11,84.83-37.75,163.14-67.3,232.73-54.65,128.79-134.33,231.86-236.83,306.38-79.12,57.52-172.19,98.21-276.64,120.94C1415.26,5326.74,1344,5334,1269.1,5334q-29,0-58.68-1.46c-165.78-8.13-299.46-47.93-336.48-59.94a74,74,0,0,1,21-144.35c57.88-1.45,105.39-23.65,145.25-67.86,69.51-77.1,115.32-219.56,132.48-412,9-100.7,7.74-191.22,5.85-241.42a453.881,453.881,0,0,0,130.88,274.7q2.72,2.72,5.47,5.37c-9,86.48-23.72,164.83-43.88,233.26-29.31,99.48-70.62,179.28-122.8,237.2q-10.28,11.42-21.16,21.75c159.3,20.33,377.81,16.73,545.86-105.43,105-76.35,179.48-191.34,222.86-343.6a454.55,454.55,0,0,0,190.49-367.45Z"/>
    <path id="Path_359" data-name="Path 359" class="cls-1" d="M1914.08,973.54c47.62,375.76,73.84,874.54,73.84,1404.45,0,266.92-6.66,525.94-19.34,765.31a1592.7,1592.7,0,0,0-178-78.44q.78-16.28,1.51-32.68h96.14V2886.92h-90.42c5.61-164.54,8.51-335.53,8.51-508.93,0-478.13-22-938-62.06-1294.89q-4.74-42.35-9.76-82.2,87.54-21.46,178.3-37.15C1913.25,967,1913.67,970.27,1914.08,973.54Z"/>
    <path id="Path_360" data-name="Path 360" class="cls-1" d="M1968.58,3143.3q-5.49,103.23-12.43,201.31A1347.353,1347.353,0,0,0,1780,3256q5.94-93.3,10.57-191.1a1592.788,1592.788,0,0,1,178.01,78.4Z"/>
    <path id="Path_361" data-name="Path 361" class="cls-1" d="M1956.15,3344.61c-11.24,158.49-25.33,305.76-42.07,437.84q-13.77,108.74-29.41,199.48a454.464,454.464,0,0,0-172.42-69.88c11.48-71.43,22.19-151.33,32-239.16,14.27-127.18,26.24-267.44,35.75-416.93a1347.326,1347.326,0,0,1,176.15,88.649Z"/>
    <path id="Path_362" data-name="Path 362" class="cls-1" d="M1888.26,2886.92v145.26h-96.14q3.23-71.66,5.72-145.26Z"/>
    <path id="Path_363" data-name="Path 363" class="cls-1" d="M1886.4,784.22q14,82.39,26.43,179.53-90.64,15.66-178.3,37.15-12.3-97.9-26.13-180.4Q1795.71,799.71,1886.4,784.22Z"/>
    <path id="Path_364" data-name="Path 364" class="cls-1" d="M1831.64,536.7c19.68,65.7,38,148.55,54.76,247.52q-90.59,15.48-178,36.28c-9.85-58.75-20.24-111.43-31.14-157.7-10.83-46-21-80.29-29.75-105.73-8.8,25.44-18.92,59.75-29.74,105.73-12.93,54.92-25.16,118.86-36.6,191.29q-33.11,9.64-65.58,20.07-65.52,21-127.48,44.94c22-160.32,47.23-288.78,75.27-382.4C1481,478,1499.5,433.3,1520,400.17c13.8-22.28,28.58-39.58,45.2-52.9,24.59-19.71,53-30.12,82.3-30.12s57.72,10.41,82.3,30.12c16.62,13.32,31.4,30.62,45.2,52.9C1795.52,433.3,1814,478,1831.64,536.7Z"/>
    <path id="Path_365" data-name="Path 365" class="cls-1" d="M1884.67,3981.93q-15.47,89.67-32.6,161a309.488,309.488,0,0,0-166.24-88q13.82-64.44,26.42-142.89a454.469,454.469,0,0,1,172.42,69.88Z"/>
    <path id="Path_366" data-name="Path 366" class="cls-1" d="M1497.18,2886.92h300.66q-2.5,73.54-5.72,145.26h-98.36q-19.86-6.07-40-11.71c-55-15.39-106.54-27-152.88-35.83Q1498.85,2936.21,1497.18,2886.92Z"/>
    <path id="Path_367" data-name="Path 367" class="cls-1" d="M1693.76,3032.18H1502.9q-1.07-23.66-2-47.54c46.34,8.81,97.91,20.44,152.88,35.83Q1673.89,3026.11,1693.76,3032.18Z"/>
    <path id="Path_368" data-name="Path 368" class="cls-1" d="M1712.25,3912.05q-12.6,78.33-26.42,142.89a310.835,310.835,0,0,0-54.68-4.83q-11.52,0-22.82.84-13.72-64.78-26.28-143.49a462.5,462.5,0,0,1,49.1-2.6,457.655,457.655,0,0,1,81.1,7.19Z"/>
    <path id="Path_369" data-name="Path 369" class="cls-1" d="M1582.05,3907.46q12.54,78.61,26.28,143.49a308.289,308.289,0,0,0-171.08,67.51q-15.72-69.37-30-154.81a453.834,453.834,0,0,1,174.79-56.19Z"/>
    <path id="Path_370" data-name="Path 370" class="cls-1" d="M1550.73,3672.89q14.46,129,31.32,234.57a453.836,453.836,0,0,0-174.79,56.19q-13.9-83.24-26.32-181.2c-23.65-186.65-42-403.64-54.52-639.74A1580.149,1580.149,0,0,1,1510,3171.77C1520.13,3352.93,1533.83,3522.1,1550.73,3672.89Z"/>
    <path id="Path_371" data-name="Path 371" class="cls-1" d="M1581.17,854.09q-14.33,90.54-26.94,198.45c-66.9,22.06-130.67,46.62-190.74,73.35q8.17-79.08,17.45-152.35,3.52-27.79,7.17-54.44,61.92-23.9,127.48-44.94Q1548.07,863.74,1581.17,854.09Z"/>
    <path id="Path_372" data-name="Path 372" class="cls-1" d="M1554.23,1052.54q-1.77,15.11-3.5,30.56c-40,356.89-62,816.76-62,1294.89,0,173.4,2.89,344.39,8.5,508.93H1409v82.68c-37.35-5.12-68.25-8.09-90.9-9.84-7.21-186.19-11-381.76-11-581.77,0-461.12,19.86-898.67,56.39-1252.1C1423.56,1099.16,1487.33,1074.6,1554.23,1052.54Z"/>
    <path id="Path_373" data-name="Path 373" class="cls-1" d="M1502.9,3032.18q3.18,70.84,7,139.59a1580.158,1580.158,0,0,0-183.53-29.06q-4.76-89.72-8.37-182.95c22.65,1.75,53.55,4.72,90.9,9.84v62.58Z"/>
    <path id="Path_374" data-name="Path 374" class="cls-1" d="M1502.9,3032.18h-94V2969.6c27.4,3.75,58.27,8.65,91.91,15Q1501.84,3008.52,1502.9,3032.18Z"/>
    <path id="Path_375" data-name="Path 375" class="cls-1" d="M1497.18,2886.92q1.68,49.27,3.68,97.72c-33.64-6.39-64.51-11.29-91.91-15v-82.68Z"/>
    <path id="Path_376" data-name="Path 376" class="cls-1" d="M1388.11,919.1q-3.64,26.64-7.17,54.44-9.27,73.17-17.45,152.35c-187.06,83.23-338.24,187.42-436.38,302.39-322.52,377.86-262.75,758.05-198.42,951,96.67,290,319.78,521.3,556.93,578.45,7.27.32,18.23.92,32.43,2q3.6,93.13,8.37,182.95c-34.35-3.28-54.21-3.77-54.73-3.78l-9.1-.19-8.88-2c-75.43-16.93-150.42-47.23-222.89-90.07-69.78-41.24-136.14-93.46-197.23-155.19a1146.808,1146.808,0,0,1-161.77-207.06,1200,1200,0,0,1-115.38-247.7,1165.7,1165.7,0,0,1-55.8-269.06,1116.35,1116.35,0,0,1,12.26-286.12,1129.432,1129.432,0,0,1,92.66-290.39C652.18,1492.86,713.9,1398.4,789,1310.4c78.35-91.78,181.88-176.3,307.74-251.2C1184.77,1006.8,1282.37,959.9,1388.11,919.1Z"/>
    <path id="Path_377" data-name="Path 377" class="cls-1" d="M1323.47,4396.31a2095.643,2095.643,0,0,1-5.94,262.62q-1.23,14.2-2.69,28.14-2.76-2.65-5.47-5.37A453.881,453.881,0,0,1,1178.49,4407c-1-25.78-2.14-40.94-2.18-41.37l144.81-11.45c0,.41.12,1.5.24,3.23v2.52a311.972,311.972,0,0,0,2.11,36.38Z"/>
    <path id="Path_378" data-name="Path 378" class="cls-1" d="M1321.36,4357.41c.42,5.94,1.31,19.42,2.11,38.9a312.034,312.034,0,0,1-2.12-36.38C1321.35,4359.08,1321.35,4358.25,1321.36,4357.41Z"/>
    <path id="Path_379" data-name="Path 379" class="cls-1" d="M1176.31,4365.63c0,.43,1.2,15.59,2.18,41.37a455.851,455.851,0,0,1,228.77-443.35q14.25,85.351,30,154.81c-70,56.34-115.12,142.47-115.89,238.95-.12-1.73-.21-2.82-.24-3.23Z"/>
  </g>
</svg>
