<svg xmlns="http://www.w3.org/2000/svg" width="4722.401" height="3196.29" viewBox="0 0 4722.401 3196.29">
  <defs>
    <style>
      .cls-1 {
        fill: #fff;
      }
    </style>
  </defs>
  <g id="mail_icon" data-name="mail icon" transform="translate(-473.419 -1236.5)">
    <path id="Path_394" data-name="Path 394" class="cls-1" d="M5195.82,1397.47v2906.8a128.67,128.67,0,0,1-128.52,128.52H602a128.67,128.67,0,0,1-128.52-128.52V1397.47l214.2,139.65V4218.59h4294V1537.12Z"/>
    <path id="Path_395" data-name="Path 395" class="cls-1" d="M5195.82,1365v32.45l-214.2,139.65v-86.4h-4294v86.42l-214.2-139.65V1365a128.05,128.05,0,0,1,32.8-85.68H5163a128.047,128.047,0,0,1,32.82,85.68Z"/>
    <path id="Path_396" data-name="Path 396" class="cls-1" d="M5163,1279.34H506.27A128.25,128.25,0,0,1,602,1236.5H5067.3a128.266,128.266,0,0,1,95.719,42.861Z"/>
    <path id="Path_397" data-name="Path 397" class="cls-1" d="M4981.62,1450.7v86.42L2928.55,2875.7a172,172,0,0,1-187.82,0L687.67,1537.12V1450.7H868.86L2834.33,2732.16a.6.6,0,0,0,.63,0L4800.42,1450.7Z"/>
  </g>
</svg>
