<svg id="footer-logo" xmlns="http://www.w3.org/2000/svg" width="51.016" height="89.373" viewBox="0 0 51.016 89.373">
  <defs>
    <style>
      .cls-1 {
        fill: none;
      }

      .cls-2 {
        fill: #fff;
      }
    </style>
  </defs>
  <rect id="Rectangle_1" data-name="Rectangle 1" class="cls-1" width="51.016" height="89.373"/>
  <path id="Path_1" data-name="Path 1" class="cls-2" d="M518.807,402.881c-.764,0-1.147-.682-1.147-2.024V373.539c0-1.311.534-1.979,1.586-1.979h1.091c1.054,0,1.588.665,1.588,1.979v27.318c0,1.342-.388,2.024-1.147,2.024Zm.415-30.1c-.088,0-.354,0-.354.769v26.761c0,.9.206,1.358.616,1.358h.611c.408,0,.616-.457.616-1.358V373.539c0-.51-.119-.768-.355-.768Z" transform="translate(-472.016 -315.446)"/>
  <path id="Path_2" data-name="Path 2" class="cls-2" d="M519.92,371.224q1.506,0,1.506,1.9v27.318q0,1.942-1.07,1.942h-1.967q-1.068,0-1.068-1.942V373.121q0-1.9,1.5-1.9h1.094m-.851,30.11h.611q.7,0,.7-1.44V373.121q0-.85-.437-.851h-1.134c-.292,0-.436.284-.436.851V399.89q0,1.44.7,1.44m.851-30.27h-1.091c-.762,0-1.668.357-1.668,2.061v27.318c0,1.4.414,2.106,1.232,2.106h1.966c.819,0,1.234-.71,1.234-2.106V373.121c0-1.7-.908-2.061-1.67-2.061Zm-.851,30.11c-.354,0-.534-.429-.534-1.276V373.121c0-.456.092-.686.272-.686h1.134c.182,0,.274.231.274.686V399.89c0,.847-.18,1.276-.534,1.276Z" transform="translate(-471.598 -315.028)"/>
  <path id="Path_3" data-name="Path 3" class="cls-2" d="M261.72,65.653V63.736h4.164v-23.1H261.72V38.716h4.164V15.247H261.72V13.33H267.8V65.653Z" transform="translate(-219.146 -11.391)"/>
  <path id="Path_4" data-name="Path 4" class="cls-2" d="M504.5,39.9V92.063h-5.917V90.31h4.164V67.041h-4.164V65.288h4.164V41.657h-4.164V39.9H504.5m.164-.164H498.42v2.081h4.164v23.3H498.42v2.081h4.164V90.148H498.42v2.081h6.245Z" transform="translate(-455.928 -37.882)"/>
  <path id="Path_5" data-name="Path 5" class="cls-2" d="M467.147,402.881c-.765,0-1.147-.682-1.147-2.024V373.539c0-1.311.534-1.979,1.588-1.979h1.091c1.052,0,1.586.665,1.586,1.979v27.318c0,1.342-.387,2.024-1.147,2.024Zm.414-30.1c-.236,0-.355.259-.355.769v26.761c0,.9.206,1.358.616,1.358h.611c.408,0,.616-.457.616-1.358V373.539c0-.768-.267-.768-.354-.768Z" transform="translate(-428.807 -315.446)"/>
  <path id="Path_6" data-name="Path 6" class="cls-2" d="M468.231,371.207q1.5,0,1.5,1.9v27.318q0,1.942-1.068,1.942H466.7q-1.07,0-1.07-1.942V373.1q0-1.9,1.506-1.9h1.091m-.852,30.11h.611q.7,0,.7-1.44V373.1c0-.567-.144-.85-.436-.85h-1.134q-.437,0-.437.85v26.769q0,1.44.7,1.44m.852-30.274H467.14c-.762,0-1.67.357-1.67,2.061v27.321c0,1.4.415,2.106,1.234,2.106h1.966c.819,0,1.232-.71,1.232-2.106V373.1c0-1.7-.908-2.061-1.668-2.061Zm-.852,30.11c-.354,0-.534-.429-.534-1.276V373.1c0-.456.092-.687.274-.687h1.134c.18,0,.272.231.272.687v26.769c0,.847-.18,1.276-.534,1.276Z" transform="translate(-428.364 -315.011)"/>
  <path id="Path_7" data-name="Path 7" class="cls-2" d="M414.27,92.563c-1.244,0-1.873-1.122-1.873-3.333V67.972a3.586,3.586,0,0,1,1.6-2.877l.023-.016h2.512c.655,0,.983-.452.983-1.38V43.5c0-.9-.213-1.342-.655-1.342h-1.9c-.431,0-.655.451-.655,1.342V57.243H412.39V43.5c0-2.163.875-3.259,2.6-3.259h1.827c1.727,0,2.6,1.1,2.6,3.259V64.1a3.528,3.528,0,0,1-1.716,2.877l-.021.016h-2.393c-.655,0-.983.451-.983,1.38V88.318c0,1.545.365,2.328,1.088,2.328h1.026c.721,0,1.086-.783,1.086-2.328V75.487h1.917V89.23c0,2.211-.629,3.333-1.871,3.333Z" transform="translate(-383.972 -38.3)"/>
  <path id="Path_8" data-name="Path 8" class="cls-2" d="M416.424,39.9q2.52,0,2.52,3.177v20.6a3.441,3.441,0,0,1-1.681,2.812h-2.372q-1.06,0-1.06,1.462V87.9q0,2.409,1.17,2.41h1.021q1.168,0,1.168-2.41V75.151h1.753V88.812q0,3.253-1.789,3.251h-3.285q-1.789,0-1.791-3.251V67.554a3.492,3.492,0,0,1,1.571-2.812h2.484q1.059,0,1.059-1.462v-20.2q0-1.422-.731-1.424h-1.9q-.729,0-.731,1.424V56.742h-1.753V43.081q0-3.176,2.52-3.177h1.827m0-.164H414.6c-1.781,0-2.684,1.124-2.684,3.341V56.906h2.081V43.081c0-.837.19-1.26.567-1.26h1.9c.375,0,.567.423.567,1.26v20.2c0,1.163-.511,1.3-.895,1.3h-2.54l-.044.033a3.671,3.671,0,0,0-1.639,2.95V88.812c0,2.266.655,3.415,1.955,3.415h3.287c1.3,0,1.953-1.147,1.953-3.415V74.987h-2.081V87.9c0,1.49-.338,2.247-1,2.247H415c-.669,0-1.006-.757-1.006-2.247V67.956c0-1.163.511-1.3.9-1.3h2.425l.043-.031a3.609,3.609,0,0,0,1.75-2.95v-20.6c0-2.217-.9-3.341-2.684-3.341Z" transform="translate(-383.571 -37.882)"/>
  <path id="Path_9" data-name="Path 9" class="cls-2" d="M178.368,375.971v-30.11H176.71V344.65h4.331v1.211h-1.462v30.11Z" transform="translate(-148.041 -288.538)"/>
  <path id="Path_10" data-name="Path 10" class="cls-2" d="M417.741,371.224v1.047h-1.462v30.11h-1.047v-30.11h-1.658v-1.047h4.167m.164-.164H413.41v1.375h1.658v30.11h1.375v-30.11H417.9Z" transform="translate(-384.823 -315.028)"/>
  <path id="Path_11" data-name="Path 11" class="cls-2" d="M126.308,375.971v-30.11H124.65V344.65h4.331v1.211h-1.462v30.11Z" transform="translate(-104.499 -288.538)"/>
  <path id="Path_12" data-name="Path 12" class="cls-2" d="M365.681,371.224v1.047h-1.462v30.11h-1.047v-30.11h-1.658v-1.047h4.167m.164-.164H361.35v1.375h1.658v30.11h1.375v-30.11h1.462Z" transform="translate(-341.281 -315.028)"/>
  <path id="Path_13" data-name="Path 13" class="cls-2" d="M337.011,92.563c-1.242,0-1.871-1.122-1.871-3.333V75.487h1.917V88.318c0,1.545.365,2.328,1.086,2.328h1.022c.721,0,1.087-.783,1.087-2.328V68.374c0-.929-.32-1.38-.983-1.38h-2.394l-.021-.016A3.537,3.537,0,0,1,335.14,64.1V43.5c0-2.163.875-3.259,2.6-3.259h1.826c1.727,0,2.6,1.1,2.6,3.259V57.243h-1.917V43.5c0-.891-.218-1.342-.647-1.342h-1.9c-.437,0-.655.439-.655,1.342V63.7c0,.927.328,1.38.983,1.38h2.512l.021.016a3.589,3.589,0,0,1,1.6,2.877V89.23c0,2.211-.629,3.333-1.871,3.333Z" transform="translate(-319.361 -38.3)"/>
  <path id="Path_14" data-name="Path 14" class="cls-2" d="M339.133,39.9q2.522,0,2.52,3.177V56.742H339.9V43.081q0-1.422-.729-1.424h-1.9q-.732,0-.731,1.424v20.2q0,1.46,1.059,1.462h2.491a3.487,3.487,0,0,1,1.57,2.812V88.812q0,3.253-1.789,3.251h-3.294q-1.789,0-1.789-3.251V75.151h1.753V87.9q0,2.409,1.168,2.41h1.022q1.17,0,1.168-2.41V67.956q0-1.46-1.059-1.462h-2.374a3.437,3.437,0,0,1-1.68-2.812v-20.6q0-3.176,2.52-3.177h1.825m0-.164H337.3c-1.781,0-2.684,1.124-2.684,3.341v20.6a3.622,3.622,0,0,0,1.748,2.95l.043.031h2.427c.383,0,.895.134.895,1.3V87.9c0,1.49-.338,2.247-1,2.247h-1.022c-.667,0-1-.757-1-2.247V74.987H334.62V88.812c0,2.266.655,3.415,1.953,3.415h3.287c1.3,0,1.953-1.147,1.953-3.415V67.554a3.68,3.68,0,0,0-1.639-2.95l-.044-.033H337.6c-.383,0-.895-.134-.895-1.3V43.081c0-.837.19-1.26.567-1.26h1.9c.375,0,.565.423.565,1.26V56.906h2.081V43.081C341.817,40.864,340.914,39.74,339.133,39.74Z" transform="translate(-318.926 -37.882)"/>
  <path id="Path_15" data-name="Path 15" class="cls-2" d="M302.614,402.881l-.742-10.364h-2.184l-.873,10.364H297.47l2.9-31.321h.936l1.6,19.828v.028l.924,11.47Zm-.841-11.575-.9-12.568-1.06,12.568Z" transform="translate(-287.854 -315.446)"/>
  <path id="Path_16" data-name="Path 16" class="cls-2" d="M300.751,371.241l1.593,19.746v.021l.918,11.39h-1.047l-.742-10.356h-2.335l-.873,10.364H297.08l2.881-31.157h.785m-1.5,19.746h2.13l-.983-13.7-1.147,13.7m1.655-19.909h-1.08l-.015.149-2.886,31.149-.016.179h1.509l.013-.151.865-10.205h2.032l.731,10.212.012.152h1.376l-.013-.177-.918-11.384v-.028l-1.593-19.75-.013-.151Zm-1.475,19.745.964-11.433.819,11.433Z" transform="translate(-287.378 -315.045)"/>
  <path id="Path_17" data-name="Path 17" class="cls-2" d="M17.25,65.653V13.33h6.081v1.917H19.167V38.716h4.164v1.917H19.167v23.1h4.164v1.917Z" transform="translate(-14.669 -11.391)"/>
  <path id="Path_18" data-name="Path 18" class="cls-2" d="M260.073,39.9v1.753h-4.164V65.29h4.164v1.753h-4.164V90.312h4.164v1.753h-5.909V39.9h5.917m.164-.164H254V92.227h6.245V90.146h-4.172V67.205h4.164V65.124h-4.164v-23.3h4.164V39.74Z" transform="translate(-251.493 -37.882)"/>
  <path id="Path_19" data-name="Path 19" class="cls-2" d="M9.928,375.971v-30.11H8.27V344.65H12.6v1.211H11.139v30.11Z" transform="translate(-7.161 -288.538)"/>
  <path id="Path_20" data-name="Path 20" class="cls-2" d="M249.326,371.224v1.047h-1.462v30.11h-1.047v-30.11h-1.653v-1.047h4.162m.164-.164H245v1.375h1.658v30.11h1.375v-30.11h1.462V371.06Z" transform="translate(-243.968 -315.028)"/>
</svg>
