<svg xmlns="http://www.w3.org/2000/svg" width="4341.805" height="4728.757" viewBox="0 0 4341.805 4728.757">
  <defs>
    <style>
      .cls-1 {
        fill: #fff;
      }
    </style>
  </defs>
  <g id="home_icon" data-name="home icon" transform="translate(-663.74 -470.243)">
    <path id="Path_380" data-name="Path 380" class="cls-1" d="M4943.56,2238.73c56.59,48.08,76.6,124.18,51,193.87s-90.13,114.73-164.39,114.73h-159.9V2473.2A111.34,111.34,0,0,0,4559.06,2362h243.33l-510-433.29a92.191,92.191,0,0,0,5-29.9v-209.1Z"/>
    <path id="Path_381" data-name="Path 381" class="cls-1" d="M4670.26,2547.33V5087.82A111.341,111.341,0,0,1,4559.06,5199H1161.8a111.33,111.33,0,0,1-111.2-111.21V2547.33h185.33V5013.69h918.92v74.13a92.77,92.77,0,0,0,92.67,92.67H3473.34a92.781,92.781,0,0,0,92.67-92.67V5013.69h918.91V2547.33Z"/>
    <path id="Path_382" data-name="Path 382" class="cls-1" d="M4670.26,2473.2v74.13H1050.6V2473.2A111.33,111.33,0,0,1,1161.8,2362H4559.06a111.34,111.34,0,0,1,111.2,111.2Z"/>
    <path id="Path_383" data-name="Path 383" class="cls-1" d="M4297.39,1689.71V1898.8a92.192,92.192,0,0,1-5,29.9l-143.32-121.77v-243.2Z"/>
    <path id="Path_384" data-name="Path 384" class="cls-1" d="M4297.39,650.27V1689.71l-148.27-126V705.87H3956.69v694.35l-148.27-126v-624a92.77,92.77,0,0,1,92.66-92.67h303.64a92.78,92.78,0,0,1,92.67,92.72Z"/>
    <path id="Path_385" data-name="Path 385" class="cls-1" d="M4149.12,1563.73v243.2l-192.43-163.5V1400.22Z"/>
    <path id="Path_386" data-name="Path 386" class="cls-1" d="M3956.69,1400.22v243.21l-148.28-125.99v-243.2Z"/>
    <path id="Path_387" data-name="Path 387" class="cls-1" d="M3808.42,1274.24v243.21L2798,658.89,866.1,2362h295.7a111.33,111.33,0,0,0-111.2,111.21v74.13H839.09c-73.53,0-137.83-44.44-163.83-113.23s-7.14-144.65,48-193.28L2682,514a175.14,175.14,0,0,1,229.21-2.09Z"/>
    <path id="Path_388" data-name="Path 388" class="cls-1" d="M3566,5013.69v74.13a92.78,92.78,0,0,1-92.67,92.669H2247.52a92.771,92.771,0,0,1-92.67-92.67v-74.13h148.27v18.53H3417.74v-18.53Z"/>
    <path id="Path_389" data-name="Path 389" class="cls-1" d="M3566,3642.48V5013.69H3417.74V3698.08H2303.12V5013.69H2154.85V3642.48a92.78,92.78,0,0,1,92.67-92.67H3473.34A92.79,92.79,0,0,1,3566,3642.48Z"/>
    <rect id="Rectangle_57" data-name="Rectangle 57" class="cls-1" width="1114.62" height="18.53" transform="translate(2303.12 5013.69)"/>
    <path id="Path_390" data-name="Path 390" class="cls-1" d="M3221.34,2880.39c84.631,199.667,3.742,430.956-186.88,534.358s-428.607,45.084-549.826-134.735-86.009-422.3,81.347-560.219,412.1-126.141,565.44,27.207a417.284,417.284,0,0,1,89.92,133.39Zm-115.26,163.4c0-149.67-121.78-271.45-271.45-271.45s-271.46,121.78-271.46,271.45,121.78,271.46,271.46,271.46,271.45-121.78,271.45-271.46Z"/>
    <path id="Path_391" data-name="Path 391" class="cls-1" d="M2497,4253.67c81.44,0,147.69,66.25,147.69,147.69s-66.25,147.69-147.69,147.69-147.69-66.26-147.69-147.69S2415.53,4253.67,2497,4253.67Zm73.56,147.69a74.767,74.767,0,1,1-.03,0Z"/>
    <path id="Path_392" data-name="Path 392" class="cls-1" d="M2497,4327.8a70.371,70.371,0,1,0,.01,0Zm0,74.14a.569.569,0,0,0,.54-.62c0-.32-.23-.52-.62-.55a.58.58,0,0,0-.54.59.59.59,0,0,0,.62.58Z"/>
    <path id="Path_393" data-name="Path 393" class="cls-1" d="M2497.55,4401.32a.57.57,0,0,1-.54.62.59.59,0,0,1-.62-.581.579.579,0,0,1,.54-.589C2497.32,4400.8,2497.53,4401,2497.55,4401.32Z"/>
  </g>
</svg>
