<?xml version="1.0" encoding="utf-8"?>
<!-- Generator: Adobe Illustrator 23.0.3, SVG Export Plug-In . SVG Version: 6.00 Build 0)  -->
<svg version="1.1" id="Layer_1" xmlns="http://www.w3.org/2000/svg" xmlns:xlink="http://www.w3.org/1999/xlink" x="0px" y="0px"
	 viewBox="0 0 5669.3 5669.3" style="enable-background:new 0 0 5669.3 5669.3;" xml:space="preserve">
<style type="text/css">
	.st0{display:none;fill:url(#SVGID_1_);}
	.st1{display:none;}
	.st2{display:inline;}
	.st3{clip-path:url(#SVGID_3_);fill:#E81E44;}
	.st4{clip-path:url(#SVGID_3_);fill:#FFFFFF;}
	.st5{clip-path:url(#SVGID_3_);fill:none;stroke:#231F20;stroke-miterlimit:10;}
	.st6{clip-path:url(#SVGID_3_);fill:#2D2D2F;}
	.st7{clip-path:url(#SVGID_3_);fill:#BEBEBE;}
	.st8{fill:#FFFFFF;}
	.st9{display:inline;fill:none;stroke:#FFFFFF;stroke-width:250;stroke-miterlimit:10;}
	.st10{display:inline;fill:none;stroke:#FFFFFF;stroke-width:200;stroke-miterlimit:10;}
	.st11{display:inline;fill:#FFFFFF;stroke:#FFFFFF;stroke-width:200;stroke-miterlimit:10;}
</style>
<radialGradient id="SVGID_1_" cx="2834.645" cy="2834.645" r="3444.499" fx="1741.551" fy="-431.8085" gradientUnits="userSpaceOnUse">
	<stop  offset="0" style="stop-color:#BFBEBE"/>
	<stop  offset="0.2435" style="stop-color:#BCBBBB"/>
	<stop  offset="0.3917" style="stop-color:#B4B3B3"/>
	<stop  offset="0.5144" style="stop-color:#A6A5A5"/>
	<stop  offset="0.6233" style="stop-color:#919090"/>
	<stop  offset="0.7229" style="stop-color:#777676"/>
	<stop  offset="0.8158" style="stop-color:#565656"/>
	<stop  offset="0.9036" style="stop-color:#302F2F"/>
	<stop  offset="0.985" style="stop-color:#040404"/>
	<stop  offset="0.992" style="stop-color:#000000"/>
</radialGradient>
<path class="st0" d="M4014.3,5669.3H1655c-910.3,0-1655-744.8-1655-1655V1655C0,744.8,744.8,0,1655,0h2359.3
	c910.3,0,1655,744.8,1655,1655v2359.3C5669.3,4924.5,4924.5,5669.3,4014.3,5669.3z"/>
<g class="st1">
	<g class="st2">
		<defs>
			<rect id="SVGID_2_" x="-1192.7" y="711.4" width="595.3" height="841.9"/>
		</defs>
		<clipPath id="SVGID_3_">
			<use xlink:href="#SVGID_2_"  style="overflow:visible;"/>
		</clipPath>
		<rect x="-1153.7" y="964.8" class="st3" width="133.3" height="133.3"/>
		<rect x="-1153.7" y="789.4" class="st4" width="133.3" height="133.3"/>
		<rect x="-1153.7" y="789.4" class="st5" width="133.3" height="133.3"/>
		<rect x="-1153.7" y="1311.1" class="st6" width="133.3" height="133.3"/>
		<rect x="-1153.7" y="1135.7" class="st7" width="133.3" height="133.3"/>
		<g style="clip-path:url(#SVGID_3_);">
			<text transform="matrix(1 0 0 1 -984.6705 875.3813)"><tspan x="0" y="0" style="fill:#231F20; font-family:'MyriadPro-Regular'; font-size:22.7707px;">bian</tspan><tspan x="41.9" y="0" style="fill:#231F20; font-family:'MyriadPro-Regular'; font-size:22.7707px;">c</tspan><tspan x="52" y="0" style="fill:#231F20; font-family:'MyriadPro-Regular'; font-size:22.7707px;">o pu</tspan><tspan x="94.8" y="0" style="fill:#231F20; font-family:'MyriadPro-Regular'; font-size:22.7707px;">r</tspan><tspan x="102" y="0" style="fill:#231F20; font-family:'MyriadPro-Regular'; font-size:22.7707px;">o pu</tspan><tspan x="144.8" y="0" style="fill:#231F20; font-family:'MyriadPro-Regular'; font-size:22.7707px;">r</tspan><tspan x="152.4" y="0" style="fill:#231F20; font-family:'MyriadPro-Regular'; font-size:22.7707px;">issimo </tspan><tspan x="217.4" y="0" style="fill:#231F20; font-family:'MyriadPro-Regular'; font-size:22.7707px;">v</tspan><tspan x="228.1" y="0" style="fill:#231F20; font-family:'MyriadPro-Regular'; font-size:22.7707px;">e</tspan><tspan x="239.5" y="0" style="fill:#231F20; font-family:'MyriadPro-Regular'; font-size:22.7707px;">r</tspan><tspan x="246.8" y="0" style="fill:#231F20; font-family:'MyriadPro-Regular'; font-size:22.7707px;">g</tspan><tspan x="259.4" y="0" style="fill:#231F20; font-family:'MyriadPro-Regular'; font-size:22.7707px;">inello</tspan></text>
		</g>
		<g style="clip-path:url(#SVGID_3_);">
			
				<text transform="matrix(1 0 0 1 -984.67 1030.7935)" style="fill:#231F20; font-family:'MyriadPro-Regular'; font-size:65.3249px;">#EA1C43</text>
		</g>
		<g style="clip-path:url(#SVGID_3_);">
			
				<text transform="matrix(1 0 0 1 -984.6705 1201.9883)" style="fill:#231F20; font-family:'MyriadPro-Regular'; font-size:67.7988px;">#BEBEBE</text>
		</g>
		<g style="clip-path:url(#SVGID_3_);">
			
				<text transform="matrix(1 0 0 1 -984.671 1377.2412)" style="fill:#231F20; font-family:'MyriadPro-Regular'; font-size:70.3009px;">#2D2D2F</text>
		</g>
	</g>
</g>
<g class="st1">
	<g id="XMLID_3_" class="st2">
		<g>
			<path class="st8" d="M5032.9,2646.6l-724,1130.2c-27.8,43.4-85.7,56.1-129.1,28.3l-212.2-135.9c-2.8-1.8-5.5-3.7-8-5.8
				c33.6,16.4,74.9,5.3,95.6-27c22.3-34.8,12.1-81-22.6-103.3l-63-40.3l505.4-789l63,40.3c34.8,22.3,81,12.1,103.3-22.6l-545.8,852
				l117.8,75.4l663.5-1035.8l-117.8-75.4l-117.7,183.8c22.3-34.8,12.1-81-22.6-103.3l-63-40.3l107.7-168.1
				c27.8-43.4,85.7-56.1,129.1-28.3l212.2,135.9C5048,2545.3,5060.7,2603.2,5032.9,2646.6z"/>
			<path class="st8" d="M4055.1,3636.5c-20.7,32.3-62,43.3-95.6,27c-36.9-29.5-46.3-82.8-20.3-123.4l30.3-47.2l63,40.3
				C4067.2,3555.4,4077.4,3601.7,4055.1,3636.5z"/>
			<path class="st8" d="M4618.6,2618.2c34.8,22.3,44.9,68.5,22.6,103.3c-22.3,34.8-68.5,44.9-103.3,22.6l-63-40.3l80.7-126
				L4618.6,2618.2z"/>
			<path class="st8" d="M3959.5,3663.4c-2.6-1.3-5.2-2.7-7.7-4.3l-919.2-588.8l32.3-50.4l671.5,430.1l48.4-75.6l184.7,118.3
				l-30.3,47.2C3913.2,3580.7,3922.6,3634,3959.5,3663.4z"/>
			<polygon class="st8" points="4555.6,2577.9 4474.9,2703.8 4318.9,2603.8 4470.2,2699.3 4431.9,2524.6 4425.3,2494.4 			"/>
			<polygon class="st8" points="4470.2,2699.3 4318.9,2603.8 4290.2,2585.5 4370.8,2459.5 4425.3,2494.4 4431.9,2524.6 			"/>
			<polygon class="st8" points="4425.3,2494.4 4370.8,2459.5 4247.2,2380.3 3956.3,1052.7 4102.4,1020.7 			"/>
			<polygon class="st8" points="4318.9,2603.8 4290,2585.7 4290.2,2585.5 			"/>
			<polygon class="st8" points="3784.7,3374.5 3736.3,3450.1 3064.9,3019.9 3072.9,3007.3 3016.6,2971.2 3056.9,2908.2 			"/>
			<polygon class="st8" points="4290,2585.7 3784.7,3374.5 3056.9,2908.2 3562.4,2119.2 3688.3,2199.9 3215.1,2938.6 3691,3243.4 
				4163.5,2505.8 			"/>
			<polygon class="st8" points="4290.2,2585.5 4290,2585.7 4163.5,2505.8 4164.2,2504.8 			"/>
			<path class="st8" d="M4370.8,2459.5l-80.7,126l-126-80.7L3949.1,2367c-13.9-12.2-26.3-26.1-37-41.4
				c-18.1-25.7-30.6-54.4-37.4-85.1l-25.2-114.9l192.5,123.3c5,5.4,10.8,10.2,17.1,14.2l188.4,118.9l-0.4-1.7L4370.8,2459.5z"/>
			<path class="st8" d="M4247.5,2382l-188.4-118.9c-6.3-4-12.1-8.8-17.1-14.2l205.1,131.4L4247.5,2382z"/>
			<path class="st8" d="M4164.2,2504.8l-0.7,1.1l-184.2-116.2c-0.5-0.3-0.9-0.6-1.4-0.9c-10.2-6.5-19.9-13.8-28.9-21.8
				L4164.2,2504.8z"/>
			<path class="st8" d="M4042,2248.9l-192.5-123.3l-219.4-1001.3l146.1-32l244.5,1116.2C4024.1,2223.6,4031.6,2237.6,4042,2248.9z"
				/>
			<path class="st8" d="M3949.1,2367l-260.8-167l-126-80.7l80.7-126l206.5,132.3l25.2,114.9c6.7,30.7,19.3,59.4,37.4,85.1
				C3922.8,2340.9,3935.2,2354.7,3949.1,2367z"/>
			<path class="st8" d="M4882.9,773.2c8.8,40.3-16.7,80.2-57.1,89.1l-723.4,158.5l-32-146.1l723.4-158.5
				C4834.1,707.3,4874,732.8,4882.9,773.2z"/>
			<path class="st8" d="M3032.6,3070.3l-187.5,292.6c-27.8,43.4-85.7,56.1-129.1,28.3l-317.7-203.5l80.7-126l270.5,173.3
				l157.2-245.4L3032.6,3070.3z"/>
			<polygon class="st8" points="3064.9,3019.9 3032.6,3070.3 2906.6,2989.6 2947,2926.6 3016.6,2971.2 3008.5,2983.8 			"/>
			
				<rect x="3033.2" y="2962.1" transform="matrix(0.5394 -0.842 0.842 0.5394 -1121.8771 3940.1699)" class="st8" width="15" height="66.9"/>
			<polygon class="st8" points="3056.9,2908.2 3016.6,2971.2 2947,2926.6 2906.6,2989.6 1915.8,2354.9 1996.4,2228.9 2224.5,2375 
				2176.1,2450.6 2903.9,2916.8 2952.3,2841.2 			"/>
			
				<rect x="3475.6" y="1960.6" transform="matrix(0.5394 -0.842 0.842 0.5394 -67.9605 3921.2454)" class="st8" width="149.6" height="124.3"/>
			
				<rect x="2519.3" y="2213.7" transform="matrix(0.5394 -0.842 0.842 0.5394 -1046.9247 3377.833)" class="st8" width="89.8" height="864.3"/>
			<polygon class="st8" points="3457.7,2052.2 2952.3,2841.2 2224.5,2375 2729.9,1586 2855.9,1666.7 2382.7,2405.3 2858.6,2710.2 
				3331.8,1971.5 			"/>
			<polygon class="st8" points="3538.4,1926.3 3457.7,2052.2 3331.8,1971.5 2855.9,1666.7 2729.9,1586 2810.6,1460 			"/>
			
				<rect x="3938.6" y="888.9" transform="matrix(0.9768 -0.214 0.214 0.9768 -113.2474 881.1823)" class="st8" width="149.6" height="149.6"/>
			<path class="st8" d="M4070.4,874.6l-146.1,32l-31.5-144c-4.9-22.6-18.4-41.9-37.9-54.4c-19.5-12.5-42.6-16.6-65.2-11.7l-11,2.4
				c-22.6,4.9-41.9,18.4-54.4,37.9c-12.5,19.5-16.6,42.6-11.7,65.2l31.5,144l-146.1,32l-31.5-144c-6.8-31.1-7.3-62.7-1.5-93.8
				c5.6-30,16.8-58.3,33.3-84.1c16.5-25.8,37.5-47.8,62.5-65.5c25.8-18.3,54.7-31,85.8-37.8l11-2.4c31.1-6.8,62.7-7.3,93.8-1.5
				c30,5.6,58.3,16.8,84.1,33.3c25.8,16.5,47.8,37.5,65.5,62.5c18.3,25.8,31,54.7,37.8,85.8L4070.4,874.6z"/>
			
				<rect x="3612.4" y="960.3" transform="matrix(0.9768 -0.214 0.214 0.9768 -136.1055 813.1654)" class="st8" width="149.6" height="149.6"/>
			<path class="st8" d="M2283.5,3401.4l-755.8,1179.9c-27.8,43.4-85.7,56.1-129.1,28.3l-107.5-68.9l30.3-47.2
				c27.8-43.4,15.1-101.3-28.3-129.1l139,89l188.4-294.1l93.8,60.1l80.7-126l-93.8-60.1l157.2-245.4l93.8,60.1l80.7-126l-93.8-60.1
				l188.4-294.1l-112.5-72.1c43.4,27.8,101.3,15.1,129.1-28.3l30.3-47.2l81,51.9C2298.6,3300.1,2311.3,3358,2283.5,3401.4z"/>
			<path class="st8" d="M2478.9,3061.7l-80.7,126l-83-53.2c-24.6-15.8-39.3-41.2-42.4-68.1l11.6-18.2c7.2-11.2,11.6-23.3,13.6-35.7
				l114.8,73.6c16.7-26,9.1-60.8-17-77.5L2478.9,3061.7z"/>
			
				<rect x="1632.8" y="4070.7" transform="matrix(0.5394 -0.842 0.842 0.5394 -2688.1042 3338.4834)" class="st8" width="149.6" height="111.4"/>
			
				<rect x="1870.7" y="3699.4" transform="matrix(0.5394 -0.842 0.842 0.5394 -2265.8428 3367.7502)" class="st8" width="149.6" height="111.4"/>
			<path class="st8" d="M2412.9,3086.1l-114.8-73.6c5.6-35.6-9.7-72.8-41.9-93.4l139.8,89.5C2422,3025.3,2429.6,3060,2412.9,3086.1z
				"/>
			<path class="st8" d="M3598.1,978.1l32,146.1l-250,54.8c-20.2,4.4-40.2,0.2-56.4-10.1c-16.1-10.3-28.3-26.8-32.7-47
				c-8.8-40.3,16.7-80.2,57.1-89.1L3598.1,978.1z"/>
			<path class="st8" d="M2315.3,3134.5l-61-39.1l18.6-29.1C2275.9,3093.3,2290.7,3118.8,2315.3,3134.5z"/>
			
				<rect x="1336" y="3639.4" transform="matrix(0.5394 -0.842 0.842 0.5394 -2664.7078 3000.9185)" class="st8" width="149.6" height="593.7"/>
			
				<rect x="1573.8" y="3268" transform="matrix(0.5394 -0.842 0.842 0.5394 -2242.4463 3030.1853)" class="st8" width="149.6" height="593.7"/>
			<path class="st8" d="M2174.2,3220.4l-30.3,47.2c-27.8,43.4-85.7,56.1-129.1,28.3l-274.9-176.1c-43.4-27.8-56.1-85.7-28.3-129.1
				l30.3-47.2l63,40.3l-30.3,47.2c-5.5,8.7-3,20.3,5.7,25.8l274.9,176.1c8.7,5.5,20.3,3,25.8-5.7l30.3-47.2L2174.2,3220.4z"/>
			
				<rect x="2108.5" y="3100.3" transform="matrix(0.5394 -0.842 0.842 0.5394 -1636.7609 3283.1841)" class="st8" width="148.4" height="74.8"/>
			<path class="st8" d="M2272.9,3066.4l-18.6,29.1l-63-40.3l30.3-47.2c5.5-8.7,3-20.3-5.7-25.8l-274.9-176.1
				c-8.7-5.5-20.3-3-25.8,5.7l-30.3,47.2l-63-40.3l30.3-47.2c27.8-43.4,85.7-56.1,129.1-28.3l274.9,176.1
				c32.2,20.6,47.5,57.9,41.9,93.4l-11.1-7.1C2274.9,3024.2,2270.5,3045.7,2272.9,3066.4z"/>
			<path class="st8" d="M2284.5,3048.2l-11.6,18.2c-2.4-20.6,2.1-42.2,14.1-61l11.1,7.1C2296.1,3024.9,2291.7,3037,2284.5,3048.2z"
				/>
			<path class="st8" d="M1291,4540.7L1137.1,4781c-3.5,5.5-7.5,10.4-11.8,14.9c7.5-13.2,11.2-28.4,10.4-43.8
				c-1.3-23.3-12.9-44.8-31.3-58.5l123.8-193.2L1291,4540.7z"/>
			<path class="st8" d="M1321.3,4493.5l-30.3,47.2l-63-40.3l30.3-47.2c5.5-8.7,3-20.3-5.7-25.8l-222-142.2c-8.7-5.5-20.3-3-25.8,5.7
				l-30.3,47.2l-63-40.3l30.3-47.2c27.8-43.4,85.7-56.1,129.1-28.3l222,142.2C1336.4,4392.2,1349.1,4450.1,1321.3,4493.5z"/>
			<path class="st8" d="M1125.3,4795.9c-4.9,8.6-11.4,16.4-19.4,22.8l-356.8,288c-26.4,21.3-63.2,23.5-91.6,5.3
				s-41.8-52.5-33.4-85.4l112.4-444.5c2.5-9.9,6.8-19.1,12.6-27.2c-15.5,40.5-1.1,87.9,36.9,112.2l5.3,3.4L696.6,5045
				c-0.9,3.8,2.5,6,5.5,3.6l300.6-242.6l5.3,3.4C1045.9,4833.6,1095,4827,1125.3,4795.9z"/>
			<path class="st8" d="M1135.6,4752.1c0.8,15.4-2.9,30.6-10.4,43.8c-30.3,31.1-79.4,37.7-117.3,13.4l-5.3-3.4l56.2-45.4
				c2.4-2,2.7-5.7,0.6-7l-11.2-7.2c8.7,5.5,20.3,3,25.8-5.7l30.2-47.1C1122.8,4707.4,1134.4,4728.8,1135.6,4752.1z"/>
			<path class="st8" d="M2111.2,3180l-30.3,47.2c-5.5,8.7-17.2,11.2-25.8,5.7l-274.9-176.1c-8.7-5.5-11.2-17.2-5.7-25.8l30.3-47.2
				l63,40.3l180.5,115.6L2111.2,3180z"/>
			
				<rect x="2045.6" y="3060" transform="matrix(0.5394 -0.842 0.842 0.5394 -1631.7976 3211.5742)" class="st8" width="148.4" height="74.8"/>
			<path class="st8" d="M2221.5,3007.9l-30.3,47.2l-63-40.3l-180.5-115.6l-63-40.3l30.3-47.2c5.5-8.7,17.2-11.2,25.8-5.7
				l274.9,176.1C2224.5,2987.6,2227.1,2999.2,2221.5,3007.9z"/>
			<path class="st8" d="M1104.3,4693.6l-30.2,47.1c-5.5,8.7-17.2,11.2-25.8,5.7l-222-142.2c-8.7-5.5-11.2-17.2-5.7-25.8l30.2-47.1
				c1.6,0.8,3.1,1.8,4.6,2.7l58.5,37.4l127.5,81.7l58.4,37.4C1101.4,4691.5,1102.9,4692.6,1104.3,4693.6z"/>
			<path class="st8" d="M1228.1,4500.4l-123.8,193.2c-1.4-1.1-2.9-2.1-4.4-3.1l-58.4-37.4l123.7-193.1L1228.1,4500.4z"/>
			<path class="st8" d="M1258.3,4453.2l-30.3,47.2l-63-40.3l-127.5-81.7l-63-40.3l30.3-47.2c5.5-8.7,17.2-11.2,25.8-5.7l222,142.2
				C1261.3,4432.9,1263.9,4444.5,1258.3,4453.2z"/>
			<path class="st8" d="M1059.5,4753.5c2.2,1.4,1.8,5.1-0.6,7l-56.2,45.4l-66.4-42.5l-78.6-50.4l-66.4-42.5l17.7-70.1
				c0.8-3,4-4.9,6.1-3.5l11.2,7.2l222,142.2L1059.5,4753.5z"/>
			<path class="st8" d="M1002.7,4806l-300.6,242.6c-3,2.4-6.5,0.2-5.5-3.6l94.7-374.5l66.4,42.5l-36.2,143l114.8-92.7L1002.7,4806z"
				/>
			
				<rect x="1923.9" y="2912.3" transform="matrix(0.5394 -0.842 0.842 0.5394 -1622.2052 3073.1741)" class="st8" width="148.4" height="214.3"/>
			
				<rect x="924.9" y="4440.1" transform="matrix(0.5394 -0.842 0.842 0.5394 -3323.6792 2955.2488)" class="st8" width="229.3" height="151.4"/>
			<polygon class="st8" points="936.3,4763.4 821.5,4856.1 857.7,4713 			"/>
			<path class="st8" d="M1037.6,4378.4l-123.7,193.1l-58.5-37.4c-1.5-1-3.1-1.9-4.6-2.7l123.8-193.2L1037.6,4378.4z"/>
			
				<rect x="1802.1" y="2904.1" transform="matrix(0.5394 -0.842 0.842 0.5394 -1612.6127 2934.7737)" class="st8" width="148.4" height="74.8"/>
			<path class="st8" d="M809,4600.5l-17.7,70.1l-5.3-3.4c-38-24.3-52.4-71.6-36.9-112.2c8.8-12.3,21.1-22,35.5-27.7
				c21.7-8.6,46-7,66.2,4l-30.2,47.1c-5.5,8.7-3,20.3,5.7,25.8l-11.2-7.2C813,4595.6,809.8,4597.4,809,4600.5z"/>
			<path class="st8" d="M932.1,4133.1l139,89c-43.4-27.8-101.3-15.1-129.1,28.3l-30.3,47.2l-107.5-68.9
				c-43.4-27.8-56.1-85.7-28.3-129.1l218.6-341.3l126,80.7L932.1,4133.1z"/>
			<path class="st8" d="M974.6,4338.1l-123.8,193.2c-20.2-11-44.6-12.6-66.2-4c-14.4,5.7-26.6,15.4-35.5,27.7
				c2.2-5.8,5.1-11.5,8.6-17l153.9-240.3L974.6,4338.1z"/>
			<path class="st8" d="M2810.6,1460l-80.7,126l-228-146.1c-34.8-22.3-44.9-68.5-22.6-103.3s68.5-44.9,103.3-22.6L2810.6,1460z"/>
			<path class="st8" d="M1758.6,2600.3l222.7,142.7c-43.4-27.8-101.3-15.1-129.1,28.3l-30.3,47.2l-144-92.2L1758.6,2600.3z"/>
			<path class="st8" d="M1739.9,3119.8l-112.5-72.1L1439,3341.8l-126-80.7l218.6-341.3c27.8-43.4,85.7-56.1,129.1-28.3l81,51.9
				l-30.3,47.2C1683.8,3034,1696.5,3092,1739.9,3119.8z"/>
			
				<rect x="1739.2" y="2863.7" transform="matrix(0.5394 -0.842 0.842 0.5394 -1607.6494 2863.1641)" class="st8" width="148.4" height="74.8"/>
			
				<rect x="1023" y="3661" transform="matrix(0.5394 -0.842 0.842 0.5394 -2640.0432 2645.0608)" class="st8" width="149.6" height="149.6"/>
			
				<rect x="1071" y="3475.3" transform="matrix(0.5394 -0.842 0.842 0.5394 -2428.9126 2659.6941)" class="st8" width="291.4" height="149.6"/>
			
				<rect x="1260.9" y="3289.6" transform="matrix(0.5394 -0.842 0.842 0.5394 -2217.7817 2674.3276)" class="st8" width="149.6" height="149.6"/>
			<path class="st8" d="M1758.6,2600.3l-80.7,126c-33.5-21.5-61.9-48.9-84.3-81.6c-21.6-31.5-36.7-66.4-44.9-103.9
				c-8.2-37.4-9.1-75.5-2.6-113.1c6.7-39,21-75.8,42.4-109.3c21.5-33.5,48.9-61.9,81.6-84.3c31.5-21.6,66.5-36.7,103.9-44.9
				c37.4-8.2,75.5-9.1,113.1-2.6c39,6.7,75.8,21,109.3,42.4c-34.8-22.3-81-12.1-103.3,22.6c-22.3,34.8-12.1,81,22.6,103.3
				c-67.7-43.3-158-23.6-201.3,44.1C1671.1,2466.6,1690.9,2556.9,1758.6,2600.3z"/>
			<path class="st8" d="M1996.4,2228.9l-80.7,126c-34.8-22.3-44.9-68.5-22.6-103.3C1915.4,2216.8,1961.7,2206.6,1996.4,2228.9z"/>
			
				<rect x="959.7" y="3694.8" transform="matrix(0.5394 -0.842 0.842 0.5394 -2635.0527 2573.0571)" class="st8" width="149.6" height="0.8"/>
			
				<rect x="1197.6" y="3323.4" transform="matrix(0.5394 -0.842 0.842 0.5394 -2212.7913 2602.324)" class="st8" width="149.6" height="0.8"/>
		</g>
		<g>
		</g>
	</g>
</g>
<g class="st1">
	<path class="st9" d="M3912.2,5064.2H1757c-633.6,0-1152-518.4-1152-1152V1757c0-633.6,518.4-1152,1152-1152h2155.2
		c633.6,0,1152,518.4,1152,1152v2155.2C5064.2,4545.8,4545.8,5064.2,3912.2,5064.2z"/>
	<circle class="st10" cx="2834.6" cy="2834.6" r="949.1"/>
	<circle class="st11" cx="4034" cy="1593.9" r="250.2"/>
</g>
<g class="st1">
	<g class="st2">
		<g id="XMLID_2_">
			<g>
				<path class="st8" d="M4943.6,2238.7c56.6,48.1,76.6,124.2,51,193.9c-25.6,69.7-90.1,114.7-164.4,114.7h-159.9v-74.1
					c0-61.3-49.9-111.2-111.2-111.2h243.3l-510-433.3c3.2-9.4,5-19.4,5-29.9v-209.1L4943.6,2238.7z"/>
				<path class="st8" d="M4670.3,2547.3v2540.5c0,61.3-49.9,111.2-111.2,111.2H1161.8c-61.3,0-111.2-49.9-111.2-111.2V2547.3h185.3
					v2466.4h918.9v74.1c0,51.1,41.6,92.7,92.7,92.7h1225.8c51.1,0,92.7-41.6,92.7-92.7v-74.1h918.9V2547.3H4670.3z"/>
				<path class="st8" d="M4670.3,2473.2v74.1h-185.3h-3249h-185.3v-74.1c0-61.3,49.9-111.2,111.2-111.2h3397.3
					C4620.4,2362,4670.3,2411.9,4670.3,2473.2z"/>
				<path class="st8" d="M4297.4,1689.7v209.1c0,10.5-1.7,20.5-5,29.9l-143.3-121.8v-243.2L4297.4,1689.7z"/>
				<path class="st8" d="M4297.4,650.3v1039.4l-148.3-126V705.9h-192.4v694.4l-148.3-126v-624c0-51.1,41.6-92.7,92.7-92.7h303.6
					C4255.8,557.6,4297.4,599.2,4297.4,650.3z"/>
				<polygon class="st8" points="4149.1,1563.7 4149.1,1806.9 3956.7,1643.4 3956.7,1400.2 				"/>
				<polygon class="st8" points="3956.7,1400.2 3956.7,1643.4 3808.4,1517.4 3808.4,1274.2 				"/>
				<path class="st8" d="M3808.4,1274.2v243.2L2798,658.9L866.1,2362h295.7c-61.3,0-111.2,49.9-111.2,111.2v74.1H839.1
					c-73.5,0-137.8-44.4-163.8-113.2c-26-68.8-7.1-144.6,48-193.3L2682,514c31.6-27.8,72.1-43.4,114.2-43.8
					c42.1-0.4,82.9,14.4,115,41.7L3808.4,1274.2z"/>
				<path class="st8" d="M3566,5013.7v74.1c0,51.1-41.6,92.7-92.7,92.7H2247.5c-51.1,0-92.7-41.6-92.7-92.7v-74.1h148.3v18.5h1114.6
					v-18.5H3566z"/>
				<path class="st8" d="M3566,3642.5v1371.2h-148.3V3698.1H2303.1v1315.6h-148.3V3642.5c0-51.1,41.6-92.7,92.7-92.7h1225.8
					C3524.4,3549.8,3566,3591.4,3566,3642.5z"/>
				<rect x="2303.1" y="5013.7" class="st8" width="1114.6" height="18.5"/>
				<path class="st8" d="M3221.3,2880.4c21.9,51.8,33,106.8,33,163.4c0,56.6-11.1,111.6-33,163.4c-21.1,50-51.4,94.9-89.9,133.4
					c-38.5,38.5-83.4,68.8-133.4,89.9c-51.8,21.9-106.8,33-163.4,33c-56.6,0-111.6-11.1-163.4-33c-50-21.1-94.9-51.4-133.4-89.9
					c-38.5-38.5-68.8-83.4-89.9-133.4c-21.9-51.8-33-106.8-33-163.4c0-56.6,11.1-111.6,33-163.4c21.2-50,51.4-94.9,89.9-133.4
					c38.5-38.5,83.4-68.8,133.4-89.9c51.8-21.9,106.8-33,163.4-33c56.6,0,111.6,11.1,163.4,33c50,21.1,94.9,51.4,133.4,89.9
					S3200.2,2830.4,3221.3,2880.4z M3106.1,3043.8c0-149.7-121.8-271.5-271.5-271.5c-149.7,0-271.5,121.8-271.5,271.5
					s121.8,271.5,271.5,271.5C2984.3,3315.2,3106.1,3193.5,3106.1,3043.8z"/>
				<path class="st8" d="M2497,4253.7c81.4,0,147.7,66.3,147.7,147.7c0,81.4-66.3,147.7-147.7,147.7c-81.4,0-147.7-66.3-147.7-147.7
					C2349.3,4319.9,2415.5,4253.7,2497,4253.7z M2570.5,4401.4c0-40.6-32.9-73.6-73.6-73.6s-73.6,32.9-73.6,73.6
					c0,40.6,32.9,73.5,73.6,73.5S2570.5,4442,2570.5,4401.4z"/>
				<path class="st8" d="M2497,4327.8c40.6,0,73.6,32.9,73.6,73.6c0,40.6-32.9,73.5-73.6,73.5s-73.6-32.9-73.6-73.5
					C2423.4,4360.7,2456.3,4327.8,2497,4327.8z M2497,4401.9c0.3,0,0.5-0.2,0.5-0.6c0-0.3-0.2-0.5-0.6-0.5c-0.3,0-0.5,0.2-0.5,0.6
					C2496.4,4401.7,2496.6,4401.9,2497,4401.9z"/>
				<path class="st8" d="M2497.5,4401.3c0,0.4-0.2,0.6-0.5,0.6c-0.4,0-0.6-0.2-0.6-0.6c0-0.4,0.2-0.6,0.5-0.6
					C2497.3,4400.8,2497.5,4401,2497.5,4401.3z"/>
			</g>
		</g>
	</g>
</g>
<g class="st1">
	<g id="XMLID_1_" class="st2">
		<g>
			<path class="st8" d="M5195.8,1397.5v2906.8c0,70.9-57.7,128.5-128.5,128.5H602c-70.9,0-128.5-57.7-128.5-128.5V1397.5
				l214.2,139.6v2681.5h4293.9V1537.1L5195.8,1397.5z"/>
			<path class="st8" d="M5195.8,1365v32.5l-214.2,139.6v-86.4h-181.2H868.9H687.7v86.4l-214.2-139.6V1365
				c0-32.9,12.4-62.9,32.8-85.7H5163C5183.4,1302.1,5195.8,1332.1,5195.8,1365z"/>
			<path class="st8" d="M5163,1279.3H506.3c23.6-26.3,57.7-42.8,95.7-42.8h4465.3C5105.3,1236.5,5139.5,1253.1,5163,1279.3z"/>
			<path class="st8" d="M4981.6,1450.7v86.4L2928.6,2875.7c-28.5,18.6-61.2,27.9-93.9,27.9c-32.7,0-65.4-9.3-93.9-27.9L687.7,1537.1
				v-86.4h181.2l1965.5,1281.5c0.2,0.1,0.4,0.1,0.6,0l1965.5-1281.5H4981.6z"/>
		</g>
		<g>
		</g>
	</g>
</g>
<g class="st1">
	<g class="st2">
		<g id="XMLID_4_">
			<g>
				<path class="st8" d="M10084.6,2642.9c12.5,29.4,18.8,60.7,18.8,92.8c0,32.2-6.3,63.4-18.8,92.8c-12,28.4-29.2,53.9-51.1,75.8
					c-21.9,21.9-47.4,39.1-75.8,51.1c-29.4,12.4-60.7,18.8-92.8,18.8c-32.2,0-63.4-6.3-92.8-18.8c-28.4-12-53.9-29.2-75.8-51.1
					c-21.9-21.9-39.1-47.4-51.1-75.8c-12.5-29.4-18.8-60.7-18.8-92.8c0-32.2,6.3-63.4,18.8-92.8c12-28.4,29.2-53.9,51.1-75.8
					c21.9-21.9,47.4-39.1,75.8-51.1c29.4-12.4,60.7-18.8,92.8-18.8c32.2,0,63.4,6.3,92.8,18.8c28.4,12,53.9,29.2,75.8,51.1
					C10055.4,2589.1,10072.6,2614.5,10084.6,2642.9z M10030.7,2735.8c0-91.6-74.2-165.8-165.8-165.8c-91.6,0-165.8,74.2-165.8,165.8
					s74.2,165.8,165.8,165.8C9956.5,2901.5,10030.7,2827.3,10030.7,2735.8z"/>
				<path class="st8" d="M9864.9,2570c91.6,0,165.8,74.2,165.8,165.8s-74.2,165.8-165.8,165.8c-91.6,0-165.8-74.2-165.8-165.8
					S9773.4,2570,9864.9,2570z M9958.1,2735.8c0-51.4-41.8-93.2-93.2-93.2c-51.4,0-93.1,41.8-93.1,93.2c0,51.4,41.8,93.1,93.1,93.1
					C9916.3,2828.9,9958.1,2787.1,9958.1,2735.8z"/>
				<path class="st8" d="M9864.9,2642.6c51.4,0,93.2,41.8,93.2,93.2c0,51.4-41.8,93.1-93.2,93.1c-51.4,0-93.1-41.8-93.1-93.1
					C9771.8,2684.4,9813.6,2642.6,9864.9,2642.6z"/>
				<path class="st8" d="M9840.5,3671.2c12.4,29.4,18.8,60.7,18.8,92.8c0,32.2-6.3,63.4-18.8,92.8c-12,28.4-29.2,53.9-51.1,75.8
					c-21.9,21.9-47.4,39.1-75.8,51.1c-29.4,12.4-60.7,18.8-92.8,18.8c-32.2,0-63.4-6.3-92.8-18.8c-28.4-12-53.9-29.2-75.8-51.1
					c-21.9-21.9-39.1-47.4-51.1-75.8c-12.4-29.4-18.8-60.7-18.8-92.8c0-32.2,6.3-63.4,18.8-92.8c12-28.4,29.2-53.9,51.1-75.8
					c21.9-21.9,47.4-39.1,75.8-51.1c29.4-12.4,60.7-18.8,92.8-18.8c32.2,0,63.4,6.3,92.8,18.8c28.4,12,53.9,29.2,75.8,51.1
					C9811.3,3617.3,9828.5,3642.8,9840.5,3671.2z M9786.7,3764c0-91.6-74.2-165.8-165.8-165.8s-165.8,74.2-165.8,165.8
					s74.2,165.8,165.8,165.8S9786.7,3855.6,9786.7,3764z"/>
				<path class="st8" d="M9620.9,3598.2c91.6,0,165.8,74.2,165.8,165.8s-74.2,165.8-165.8,165.8s-165.8-74.2-165.8-165.8
					S9529.3,3598.2,9620.9,3598.2z M9714,3764c0-51.4-41.8-93.2-93.2-93.2c-51.4,0-93.1,41.8-93.1,93.2c0,51.4,41.8,93.1,93.1,93.1
					C9672.2,3857.2,9714,3815.4,9714,3764z"/>
				<path class="st8" d="M9620.9,3670.9c51.4,0,93.2,41.8,93.2,93.2c0,51.4-41.8,93.1-93.2,93.1c-51.4,0-93.1-41.8-93.1-93.1
					C9527.7,3712.7,9569.5,3670.9,9620.9,3670.9z"/>
				<path class="st8" d="M9551.7,4732L9551.7,4732L9551.7,4732C9551.7,4732,9551.7,4732,9551.7,4732L9551.7,4732
					c2-1.4,48.8-33.6,119.3-92.8c65.9-55.3,166.7-146.1,272.5-264.7c184.7-207,421.2-541,499-956.5
					c84.8-452.9-32.4-916-348.1-1376.6C9471.4,1132.9,8539.9,953,8040.1,926.6c-220.9-11.7-440.6,1.1-649.2,37.2
					c-8.3-64.7-17.1-124.6-26.4-179.5c43-7.3,86.4-13.8,130.3-19.3c182.1-22.9,368.8-29.5,554.9-19.7
					c201.6,10.6,401.3,40.6,593.4,89c205.3,51.7,402.6,124.7,586.5,216.9c197,98.8,380.5,220.9,545.5,362.7
					c86.6,74.5,169.5,155.6,246.3,241.2c79.3,88.4,154.3,183.9,222.7,283.6c93.3,136,171.5,274.4,232.7,411.4
					c58,129.9,102.1,261.9,131,392.2c27.2,122.6,41.7,246.8,43,369.1c1.2,113.9-8.9,228.8-30.1,341.6
					c-38.2,202.9-113,404.5-222.4,599.2c-86.9,154.6-195.6,305.2-323.3,447.6c-212.9,237.6-405.2,371.4-420.4,381.8
					c-7,5-63.9,44.7-153.1,99.6c-86,52.9-219.9,130.4-369.1,199.6c-170.4,79-326.1,131.3-462.8,155.6
					c-59.7,10.6-116.4,15.9-169.5,15.9c-22.1,0-43.5-0.9-64.3-2.8c-82-7.3-155.4-29.1-218.1-64.9
					c-100.4-57.2-173.5-149.2-217.3-273.3c-22.1-62.7-37-134.7-44.2-214.2c-7.3-80.5-6.9-171.3,1.1-269.6
					c33.6-412-58.2-741.4-272.9-979.1c-76.2-84.4-162.7-151.1-250.2-203.7c4.6-65.3,8.8-132.5,12.4-201.3c10.1,5.2,20.1,10.6,30,16
					c132.6,72.6,247.8,162.5,342.5,267.4c116.3,128.8,202.8,281.5,256.9,453.8c29.7,94.6,50.2,196.7,60.8,303.4
					c11.1,112.4,11.6,232.9,1.4,358.4c-13.8,169.4-2.6,306.8,33.3,408.6c29.2,82.9,73.7,140.5,136,176
					c79.1,45.1,189.8,55.5,329.1,31c121-21.3,261.3-68.6,417.1-140.7c141.2-65.3,268.5-138.9,350.5-189.2
					c89.3-54.8,145.7-94.5,146.2-94.9L9551.7,4732z"/>
				<path class="st8" d="M9356.2,1885.4c12.5,29.4,18.8,60.7,18.8,92.8c0,32.2-6.3,63.4-18.8,92.8c-12,28.4-29.2,53.9-51.1,75.8
					c-21.9,21.9-47.4,39.1-75.8,51.1c-29.4,12.5-60.7,18.8-92.8,18.8c-32.2,0-63.4-6.3-92.8-18.8c-28.4-12-53.9-29.2-75.8-51.1
					c-21.9-21.9-39.1-47.4-51.1-75.8c-12.5-29.4-18.8-60.7-18.8-92.8c0-32.2,6.3-63.4,18.8-92.8c12-28.4,29.2-53.9,51.1-75.8
					c21.9-21.9,47.4-39.1,75.8-51.1c29.4-12.4,60.7-18.8,92.8-18.8c32.2,0,63.4,6.3,92.8,18.8c28.4,12,53.9,29.2,75.8,51.1
					C9327.1,1831.5,9344.2,1857,9356.2,1885.4z M9302.4,1978.2c0-91.6-74.2-165.8-165.8-165.8c-91.6,0-165.8,74.2-165.8,165.8
					c0,91.6,74.2,165.8,165.8,165.8C9228.2,2144,9302.4,2069.7,9302.4,1978.2z"/>
				<path class="st8" d="M9136.6,1812.4c91.6,0,165.8,74.2,165.8,165.8c0,91.6-74.2,165.8-165.8,165.8
					c-91.6,0-165.8-74.2-165.8-165.8C8970.8,1886.6,9045,1812.4,9136.6,1812.4z M9229.8,1978.2c0-51.4-41.8-93.1-93.2-93.1
					c-51.4,0-93.1,41.8-93.1,93.1c0,51.4,41.8,93.2,93.1,93.2C9188,2071.3,9229.8,2029.5,9229.8,1978.2z"/>
				<path class="st8" d="M9136.6,1885c51.4,0,93.2,41.8,93.2,93.1c0,51.4-41.8,93.2-93.2,93.2c-51.4,0-93.1-41.8-93.1-93.2
					C9043.5,1926.8,9085.2,1885,9136.6,1885z"/>
				<path class="st8" d="M9024.7,4355.2c12.5,29.4,18.8,60.7,18.8,92.8c0,32.2-6.3,63.4-18.8,92.8c-12,28.4-29.2,53.9-51.1,75.8
					c-21.9,21.9-47.4,39.1-75.8,51.1c-29.4,12.4-60.7,18.8-92.8,18.8c-32.2,0-63.4-6.3-92.8-18.8c-28.4-12-53.9-29.2-75.8-51.1
					c-21.9-21.9-39.1-47.4-51.1-75.8c-12.4-29.4-18.8-60.7-18.8-92.8c0-32.2,6.3-63.4,18.8-92.8c12-28.4,29.2-53.9,51.1-75.8
					c21.9-21.9,47.4-39.1,75.8-51.1c29.4-12.4,60.7-18.8,92.8-18.8c32.2,0,63.4,6.3,92.8,18.8c28.4,12,53.9,29.2,75.8,51.1
					C8995.5,4301.3,9012.7,4326.8,9024.7,4355.2z M8970.8,4448c0-91.6-74.2-165.8-165.8-165.8s-165.8,74.2-165.8,165.8
					s74.2,165.8,165.8,165.8S8970.8,4539.6,8970.8,4448z"/>
				<path class="st8" d="M8805,4282.2c91.6,0,165.8,74.2,165.8,165.8s-74.2,165.8-165.8,165.8s-165.8-74.2-165.8-165.8
					S8713.5,4282.2,8805,4282.2z M8898.2,4448c0-51.4-41.8-93.2-93.2-93.2c-51.4,0-93.1,41.8-93.1,93.2c0,51.4,41.8,93.1,93.1,93.1
					C8856.4,4541.2,8898.2,4499.4,8898.2,4448z"/>
				<path class="st8" d="M8805,4354.9c51.4,0,93.2,41.8,93.2,93.2c0,51.4-41.8,93.1-93.2,93.1c-51.4,0-93.1-41.8-93.1-93.1
					C8711.9,4396.7,8753.7,4354.9,8805,4354.9z"/>
				<path class="st8" d="M8505.1,1465.9c12.5,29.4,18.8,60.7,18.8,92.8s-6.3,63.4-18.8,92.8c-12,28.4-29.2,53.9-51.1,75.8
					c-21.9,21.9-47.4,39.1-75.8,51.1c-29.4,12.4-60.7,18.8-92.8,18.8s-63.4-6.3-92.8-18.8c-28.4-12-53.9-29.2-75.8-51.1
					c-21.9-21.9-39-47.4-51.1-75.8c-12.5-29.4-18.8-60.7-18.8-92.8s6.3-63.4,18.8-92.8c12-28.4,29.2-53.9,51.1-75.8
					c21.9-21.9,47.4-39.1,75.8-51.1c29.4-12.4,60.7-18.8,92.8-18.8s63.4,6.3,92.8,18.8c28.4,12,53.9,29.2,75.8,51.1
					C8475.9,1412,8493,1437.5,8505.1,1465.9z M8451.2,1558.7c0-91.6-74.2-165.8-165.8-165.8c-91.6,0-165.8,74.2-165.8,165.8
					c0,91.6,74.2,165.8,165.8,165.8C8377,1724.5,8451.2,1650.3,8451.2,1558.7z"/>
				<path class="st8" d="M8285.4,1393c91.6,0,165.8,74.2,165.8,165.8c0,91.6-74.2,165.8-165.8,165.8c-91.6,0-165.8-74.2-165.8-165.8
					C8119.6,1467.2,8193.9,1393,8285.4,1393z M8378.6,1558.7c0-51.4-41.8-93.1-93.1-93.1s-93.2,41.8-93.2,93.1s41.8,93.2,93.2,93.2
					S8378.6,1610.1,8378.6,1558.7z"/>
				<path class="st8" d="M8285.4,1465.6c51.4,0,93.1,41.8,93.1,93.1s-41.8,93.2-93.1,93.2s-93.2-41.8-93.2-93.2
					S8234.1,1465.6,8285.4,1465.6z"/>
				<path class="st8" d="M7564.3,4359.9c0,1,0,1.9,0,2.9c-0.4,60.4-12.4,119-35.8,174.3c-22.9,54.2-55.7,102.9-97.5,144.6
					c-17.8,17.9-36.9,34.1-57.2,48.6c30.1-105.7,45.2-229.2,45.2-370.3H7564.3z"/>
				<path class="st8" d="M7564.3,4359.9h-145.3c0-84.4-33.9-161.1-88.9-217c11.4-47.5,22.3-101.2,32.6-161
					c24.4,16.4,47.2,35.2,68.3,56.2c41.8,41.8,74.6,90.4,97.5,144.6C7552.3,4238.9,7564.3,4298.5,7564.3,4359.9z"/>
				<path class="st8" d="M7564.3,4362.8c-0.1,104.2-8.1,201.5-23.8,289.4c-15.1,84.8-37.7,163.1-67.3,232.7
					c-54.7,128.8-134.3,231.9-236.8,306.4c-79.1,57.5-172.2,98.2-276.6,120.9c-66.4,14.5-137.7,21.7-212.5,21.7
					c-19.3,0-38.9-0.5-58.7-1.5c-165.8-8.1-299.5-47.9-336.5-59.9c-34.4-11.2-55.6-45.2-50.4-81c5.2-35.8,35.2-62.4,71.4-63.3
					c57.9-1.5,105.4-23.7,145.3-67.9c69.5-77.1,115.3-219.6,132.5-412c9-100.7,7.7-191.2,5.8-241.4c4.6,44.8,15.8,88.4,33.4,130.1
					c22.9,54.2,55.7,102.9,97.5,144.6c1.8,1.8,3.6,3.6,5.5,5.4c-9,86.5-23.7,164.8-43.9,233.3c-29.3,99.5-70.6,179.3-122.8,237.2
					c-6.8,7.6-13.9,14.9-21.2,21.8c159.3,20.3,377.8,16.7,545.9-105.4c105-76.3,179.5-191.3,222.9-343.6
					c20.3-14.5,39.4-30.7,57.2-48.6c41.8-41.8,74.6-90.4,97.5-144.6C7551.9,4481.8,7564,4423.2,7564.3,4362.8z"/>
				<path class="st8" d="M7392.2,973.5c47.6,375.8,73.8,874.5,73.8,1404.4c0,266.9-6.7,525.9-19.3,765.3
					c-56.5-29.2-116-55.4-178-78.4c0.5-10.9,1-21.7,1.5-32.7h96.1v-145.3H7276c5.6-164.5,8.5-335.5,8.5-508.9
					c0-478.1-22-938-62.1-1294.9c-3.2-28.2-6.4-55.6-9.8-82.2c58.4-14.3,117.9-26.7,178.3-37.2
					C7391.4,967,7391.8,970.3,7392.2,973.5z"/>
				<path class="st8" d="M7446.7,3143.3c-3.7,68.8-7.8,136-12.4,201.3c-59.2-35.6-118.9-64.8-176.1-88.7c4-62.2,7.5-126,10.6-191.1
					C7330.7,3087.9,7390.2,3114.1,7446.7,3143.3z"/>
				<path class="st8" d="M7434.3,3344.6c-11.2,158.5-25.3,305.8-42.1,437.8c-9.2,72.5-19,139.1-29.4,199.5
					c-24-16.1-49.5-29.9-76.4-41.3c-31.1-13.1-63.2-22.7-96.1-28.6c11.5-71.4,22.2-151.3,32-239.2c14.3-127.2,26.2-267.4,35.7-416.9
					C7315.4,3279.8,7375,3309,7434.3,3344.6z"/>
				<path class="st8" d="M7366.4,2886.9v145.3h-96.1c2.1-47.8,4.1-96.2,5.7-145.3H7366.4z"/>
				<path class="st8" d="M7364.5,784.2c9.3,54.9,18.1,114.8,26.4,179.5c-60.4,10.4-119.9,22.8-178.3,37.2
					c-8.2-65.3-16.9-125.5-26.1-180.4C7244.7,806.6,7304.1,794.5,7364.5,784.2z"/>
				<path class="st8" d="M7309.8,536.7c19.7,65.7,38,148.5,54.8,247.5c-60.4,10.3-119.8,22.4-178,36.3
					c-9.8-58.8-20.2-111.4-31.1-157.7c-10.8-46-20.9-80.3-29.7-105.7c-8.8,25.4-18.9,59.8-29.7,105.7
					c-12.9,54.9-25.2,118.9-36.6,191.3c-22.1,6.4-43.9,13.1-65.6,20.1c-43.7,14-86.2,29-127.5,44.9
					c21.9-160.3,47.2-288.8,75.3-382.4c17.6-58.7,36.1-103.4,56.6-136.5c13.8-22.3,28.6-39.6,45.2-52.9c24.6-19.7,53-30.1,82.3-30.1
					c29.3,0,57.7,10.4,82.3,30.1c16.6,13.3,31.4,30.6,45.2,52.9C7273.6,433.3,7292.2,478,7309.8,536.7z"/>
				<path class="st8" d="M7362.8,3981.9c-10.3,59.8-21.2,113.5-32.6,161c-44.1-44.9-101.7-76.5-166.2-88c9.2-43,18-90.7,26.4-142.9
					c32.9,5.9,65,15.5,96.1,28.6C7313.3,3952,7338.8,3965.8,7362.8,3981.9z"/>
				<path class="st8" d="M6975.3,2886.9H7276c-1.7,49-3.6,97.5-5.7,145.3h-98.4c-13.2-4-26.6-7.9-40-11.7
					c-55-15.4-106.5-27-152.9-35.8C6977.6,2952.3,6976.4,2919.8,6975.3,2886.9z"/>
				<path class="st8" d="M7171.9,3032.2H6981c-0.7-15.8-1.4-31.6-2-47.5c46.3,8.8,97.9,20.4,152.9,35.8
					C7145.3,3024.2,7158.6,3028.1,7171.9,3032.2z"/>
				<path class="st8" d="M7190.4,3912c-8.4,52.2-17.2,99.9-26.4,142.9c-17.8-3.2-36-4.8-54.7-4.8c-7.7,0-15.3,0.3-22.8,0.8
					c-9.2-43.2-17.9-91.1-26.3-143.5c16.2-1.7,32.6-2.6,49.1-2.6C7136.7,3904.9,7163.8,3907.3,7190.4,3912z"/>
				<path class="st8" d="M7060.2,3907.5c8.4,52.4,17.1,100.3,26.3,143.5c-64.5,4.7-123.5,29.2-171.1,67.5
					c-10.5-46.3-20.5-97.9-30-154.8c15.1-8.5,30.7-16.2,46.7-23C6973.2,3923.3,7016.1,3912.2,7060.2,3907.5z"/>
				<path class="st8" d="M7028.9,3672.9c9.6,86,20.1,164.3,31.3,234.6c-44.1,4.7-87,15.8-128.1,33.2c-16.1,6.8-31.7,14.5-46.7,23
					c-9.3-55.5-18-115.9-26.3-181.2c-23.6-186.6-42-403.6-54.5-639.7c42.3,4,106.4,12.3,183.5,29.1
					C6998.3,3352.9,7012,3522.1,7028.9,3672.9z"/>
				<path class="st8" d="M7059.3,854.1c-9.5,60.4-18.5,126.6-26.9,198.4c-66.9,22.1-130.7,46.6-190.7,73.4
					c5.5-52.7,11.3-103.6,17.5-152.3c2.4-18.5,4.7-36.7,7.2-54.4c41.3-15.9,83.8-30.9,127.5-44.9
					C7015.4,867.2,7037.2,860.5,7059.3,854.1z"/>
				<path class="st8" d="M7032.4,1052.5c-1.2,10.1-2.3,20.3-3.5,30.6c-40,356.9-62.1,816.8-62.1,1294.9c0,173.4,2.9,344.4,8.5,508.9
					h-88.2v82.7c-37.4-5.1-68.2-8.1-90.9-9.8c-7.2-186.2-10.9-381.8-10.9-581.8c0-461.1,19.9-898.7,56.4-1252.1
					C6901.7,1099.2,6965.5,1074.6,7032.4,1052.5z"/>
				<path class="st8" d="M6981,3032.2c2.1,47.2,4.5,93.8,7,139.6c-77.1-16.8-141.3-25-183.5-29.1c-3.2-59.8-6-120.9-8.4-182.9
					c22.7,1.7,53.5,4.7,90.9,9.8v62.6H6981z"/>
				<path class="st8" d="M6981,3032.2h-94v-62.6c27.4,3.8,58.3,8.7,91.9,15C6979.6,3000.6,6980.3,3016.4,6981,3032.2z"/>
				<path class="st8" d="M6975.3,2886.9c1.1,32.8,2.3,65.4,3.7,97.7c-33.6-6.4-64.5-11.3-91.9-15v-82.7H6975.3z"/>
				<path class="st8" d="M6866.2,919.1c-2.4,17.8-4.8,35.9-7.2,54.4c-6.2,48.8-12,99.6-17.5,152.3
					c-187.1,83.2-338.2,187.4-436.4,302.4c-322.5,377.9-262.8,758-198.4,951c96.7,290,319.8,521.3,556.9,578.4
					c7.3,0.3,18.2,0.9,32.4,2c2.4,62.1,5.2,123.1,8.4,182.9c-34.3-3.3-54.2-3.8-54.7-3.8l-9.1-0.2l-8.9-2
					c-75.4-16.9-150.4-47.2-222.9-90.1c-69.8-41.2-136.1-93.5-197.2-155.2c-60.7-61.4-115.1-131-161.8-207.1
					c-47.7-77.8-86.5-161.1-115.4-247.7c-29.3-87.8-48-178.3-55.8-269.1c-8.2-95.9-4.1-192.2,12.3-286.1
					c17.3-99.6,48.5-197.3,92.7-290.4c46.6-98.3,108.3-192.8,183.4-280.8c78.3-91.8,181.9-176.3,307.7-251.2
					C6662.9,1006.8,6760.5,959.9,6866.2,919.1z"/>
				<path class="st8" d="M6801.6,4396.3c2.2,53.2,3.8,151.2-5.9,262.6c-0.8,9.5-1.7,18.8-2.7,28.1c-1.8-1.8-3.7-3.6-5.5-5.4
					c-41.8-41.8-74.6-90.4-97.5-144.6c-17.6-41.7-28.8-85.3-33.4-130.1c-1-25.8-2.1-40.9-2.2-41.4l144.8-11.4c0,0.4,0.1,1.5,0.2,3.2
					c0,0.8,0,1.7,0,2.5C6799.5,4372.2,6800.2,4384.4,6801.6,4396.3z"/>
				<path class="st8" d="M6799.5,4357.4c0.4,5.9,1.3,19.4,2.1,38.9c-1.4-11.9-2.1-24.1-2.1-36.4
					C6799.5,4359.1,6799.5,4358.2,6799.5,4357.4z"/>
				<path class="st8" d="M6654.4,4365.6c0,0.4,1.2,15.6,2.2,41.4c-1.6-15.5-2.4-31.3-2.4-47.1c0-61.4,12-121,35.8-177.2
					c22.9-54.2,55.7-102.9,97.5-144.6c29.4-29.4,62.2-54.3,97.9-74.5c9.5,56.9,19.5,108.6,30,154.8
					c-70,56.3-115.1,142.5-115.9,238.9c-0.1-1.7-0.2-2.8-0.2-3.2L6654.4,4365.6z"/>
			</g>
		</g>
	</g>
</g>
<g>
	<g id="XMLID_5_">
		<g>
			<polygon class="st8" points="5116,3187.7 4922.8,3293.4 4817.1,3486.6 4711.4,3293.4 4518.1,3187.7 4711.4,3082 4817.1,2888.8 
				4922.8,3082 			"/>
			<circle class="st8" cx="4756.6" cy="1541.7" r="112.6"/>
			<polygon class="st8" points="4756.6,2030.9 4563.4,2136.6 4457.7,2329.8 4352,2136.6 4158.8,2030.9 4352,1925.2 4457.7,1732 
				4563.4,1925.2 			"/>
			<path class="st8" d="M4271.4,3232c62.2,0,112.6,50.4,112.6,112.6c0,62.2-50.4,112.6-112.6,112.6s-112.6-50.4-112.6-112.6
				C4158.8,3282.4,4209.2,3232,4271.4,3232z"/>
			<path class="st8" d="M3928.4,1696.8c0,191.5-13.8,382.9-41.1,569c-26.6,181.5-66.4,360.2-118.2,530.9
				c-44.6,147.1-98.6,289.7-160.6,424.8l-131.7-197c164.2-399.1,251.7-853.7,251.7-1327.6c0-364.4-51.5-717.5-153.1-1049.4
				c-16.1-52.8,13.6-108.7,66.4-124.9c52.8-16.2,108.7,13.5,124.9,66.4c52.6,171.9,93,351.7,120,534.6
				C3914.4,1310.9,3928.4,1503.8,3928.4,1696.8z"/>
			<path class="st8" d="M3448,3924c1.1,0.5,2.2,0.9,3.4,1.4c1.1,0.4,2.3,0.8,3.4,1.2c0.6,0.2,1.2,0.4,1.7,0.5
				c0.6,0.2,1.2,0.3,1.7,0.5c0.6,0.2,1.2,0.3,1.8,0.5c0.6,0.1,1.2,0.3,1.8,0.4c0.6,0.1,1.2,0.3,1.8,0.4c0.3,0,0.6,0.1,0.9,0.2
				c0.3,0.1,0.6,0.1,0.9,0.1c0.3,0.1,0.5,0.1,0.8,0.1c0.3,0,0.6,0.1,0.8,0.1c0.7,0.1,1.3,0.2,2,0.3c0.6,0.1,1.2,0.1,1.7,0.2
				c0.2,0,0.4,0,0.6,0.1c0.2,0,0.4,0,0.6,0.1c0.3,0,0.6,0.1,0.9,0.1c2.3,0.2,4.7,0.2,7.1,0.1c0.5,0,0.9,0,1.4-0.1
				c0.4,0,0.8,0,1.2-0.1c0.5,0,0.9-0.1,1.4-0.1c0.1,0,0.3,0,0.4,0c0.5,0,0.9-0.1,1.3-0.1c0.6-0.1,1.2-0.1,1.8-0.2
				c1-0.1,1.9-0.3,2.9-0.4c0,0,0,0,0.1,0c1.1-0.2,2.1-0.4,3.1-0.6c0.5-0.1,1.1-0.2,1.6-0.4c0.5-0.1,1.1-0.3,1.6-0.4
				c0.5-0.1,1-0.3,1.5-0.4c0.5-0.1,1-0.3,1.6-0.5c2.1-0.6,4.1-1.3,6.1-2.2c1.5-0.6,3-1.3,4.5-2c0.5-0.2,1-0.5,1.5-0.7
				c0.5-0.2,1-0.5,1.4-0.8c0.4-0.2,0.9-0.5,1.3-0.7c0.1-0.1,0.2-0.1,0.3-0.2c0.4-0.2,0.8-0.5,1.3-0.7c0.5-0.3,0.9-0.6,1.4-0.9
				c0.9-0.6,1.9-1.2,2.8-1.8c0.5-0.3,0.9-0.6,1.4-1c0.9-0.6,1.8-1.3,2.7-2c0.4-0.3,0.9-0.7,1.3-1.1c0.4-0.3,0.8-0.7,1.3-1.1
				c0,0,0.1-0.1,0.1-0.1c0.9-0.8,1.9-1.7,2.8-2.6c0.3-0.3,0.6-0.6,0.9-0.9h0l67.2-67.1c100.1,114,209.7,230.7,326.6,347.6
				c218.1,218.1,441.7,416.2,629.8,558c89.6,67.6,167.9,120,232.6,155.9c12.6,7,24,13,34.3,18c-5.1-10.2-11-21.6-18-34.3
				c-35.9-64.7-88.3-142.9-155.9-232.6c-141.8-188-339.9-411.7-558-629.8c-116.9-116.9-233.6-226.6-347.6-326.6l66.6-66.6
				c0.2-0.2,0.4-0.4,0.6-0.6c0.2-0.2,0.5-0.5,0.7-0.7c0.2-0.2,0.5-0.5,0.7-0.7c1.3-1.4,2.6-2.8,3.8-4.3c0.4-0.5,0.8-1,1.2-1.5
				c0.4-0.5,0.8-1,1.1-1.5c0,0,0,0,0,0c0.4-0.5,0.7-1,1.1-1.5c0.3-0.4,0.6-0.8,0.8-1.2c0.3-0.4,0.5-0.8,0.8-1.2
				c0.3-0.4,0.6-0.9,0.8-1.3c0,0,0.1-0.1,0.1-0.1c0.2-0.4,0.4-0.7,0.6-1.1c0.4-0.6,0.7-1.3,1.1-1.9c0.5-0.8,0.9-1.7,1.3-2.5
				c0.9-1.9,1.8-3.8,2.6-5.8c0.2-0.5,0.4-1,0.6-1.5c0.2-0.5,0.4-1,0.5-1.5c0.2-0.5,0.3-1,0.5-1.5v0c0.2-0.5,0.3-1,0.5-1.5
				c0.5-1.5,0.9-3,1.2-4.6c0.1-0.5,0.3-1,0.4-1.6c0.2-1,0.4-2,0.6-3c0.2-1.1,0.3-2.2,0.5-3.3c0-0.3,0.1-0.7,0.1-1
				c0.1-0.4,0.1-0.8,0.1-1.2c0.1-0.5,0.1-0.9,0.1-1.4c0.1-1.3,0.2-2.6,0.2-3.9c0-0.3,0-0.5,0-0.7c0-0.1,0-0.1,0-0.2
				c0-0.2,0-0.4,0-0.6c0-0.1,0-0.2,0-0.4c0-0.4,0-0.9,0-1.3c0-0.5,0-0.9,0-1.4c0-0.4,0-0.9-0.1-1.3c0-0.4-0.1-0.9-0.1-1.3
				c-0.1-1.8-0.3-3.6-0.6-5.4c-0.2-1.7-0.6-3.4-0.9-5.1c-0.1-0.6-0.3-1.1-0.4-1.7c0-0.1,0-0.2-0.1-0.3c-0.1-0.6-0.3-1.2-0.5-1.8
				c-0.1-0.6-0.3-1.2-0.5-1.7c-0.2-0.6-0.4-1.2-0.5-1.7c-0.2-0.6-0.4-1.2-0.6-1.7c-0.2-0.6-0.4-1.1-0.6-1.7
				c-0.2-0.4-0.3-0.8-0.5-1.2c-0.7-1.8-1.5-3.5-2.3-5.2c-0.2-0.5-0.5-1-0.8-1.5c-0.3-0.5-0.5-1-0.8-1.5c-0.4-0.7-0.8-1.5-1.3-2.2
				c-0.4-0.7-0.9-1.5-1.3-2.2c-0.3-0.5-0.6-1-0.9-1.4l-0.3-0.4l-56-83.8c19.5,16.3,39.2,33,59.1,50
				c133.9,115,271.8,243.2,409.8,381.3c252.3,252.3,473.7,506.2,623.6,715.2c75.4,105.1,129.6,194.7,161,266.1
				c18.9,43,29.8,79.7,33.4,112.4c7.3,67.5-18.1,108.7-40.7,131.3c-22.6,22.6-63.7,48-131.3,40.7c-32.7-3.6-69.5-14.5-112.4-33.4
				c-71.4-31.4-161-85.6-266.1-161c-208.9-149.9-462.9-371.4-715.2-623.6c-137.9-137.9-266.1-275.8-381.1-409.6
				c-0.1-0.1-0.1-0.1-0.2-0.2c-17.1-19.9-33.8-39.6-50.1-59.1l83,55.5c0.6,0.4,1.1,0.8,1.7,1.1c0.5,0.3,1,0.7,1.5,1
				c0.3,0.2,0.5,0.3,0.8,0.5c0.3,0.2,0.5,0.3,0.8,0.5c0.5,0.3,1.1,0.6,1.6,0.9c0.3,0.1,0.5,0.3,0.8,0.4c0.3,0.1,0.5,0.3,0.8,0.4
				c0.1,0,0.1,0,0.1,0.1c0.5,0.3,1.1,0.6,1.6,0.8C3445.8,3923,3446.9,3923.6,3448,3924z"/>
			<path class="st8" d="M3830.8,3573.1c0,0.4,0,0.9,0.1,1.3C3830.9,3574,3830.9,3573.6,3830.8,3573.1z"/>
			<path class="st8" d="M3702.9,3524.2c29.3-29.3,76.8-29.3,106.1,0c3.4,3.4,6.4,7.1,9.1,10.9l0.3,0.4c0.3,0.5,0.6,0.9,0.9,1.4
				c0.5,0.7,0.9,1.4,1.3,2.2c0.4,0.7,0.8,1.4,1.3,2.2c0.3,0.5,0.5,1,0.8,1.5c0.3,0.5,0.5,1,0.8,1.5c0.8,1.7,1.6,3.5,2.3,5.2
				c0.2,0.4,0.3,0.8,0.5,1.2c0.2,0.6,0.4,1.1,0.6,1.7c0.2,0.6,0.4,1.1,0.6,1.7c0.2,0.6,0.4,1.2,0.5,1.7c0.2,0.6,0.3,1.1,0.5,1.7
				c0.2,0.6,0.3,1.2,0.5,1.8c0,0.1,0.1,0.2,0.1,0.3c0.1,0.6,0.3,1.1,0.4,1.7c0.4,1.7,0.7,3.4,0.9,5.1c0.3,1.8,0.4,3.6,0.6,5.4
				c0,0.4,0.1,0.9,0.1,1.3c0,0.4,0,0.9,0.1,1.3c0,0.4,0,0.9,0,1.4c0,0.4,0,0.9,0,1.3c0,0.1,0,0.2,0,0.4c0,0.2,0,0.4,0,0.6
				c0,0,0,0.1,0,0.2c0,0.2,0,0.5,0,0.7c0,1.3-0.1,2.6-0.2,3.9c0,0.5-0.1,0.9-0.1,1.4c0,0.4-0.1,0.8-0.1,1.2c0,0.3-0.1,0.7-0.1,1
				c-0.1,1.1-0.3,2.2-0.5,3.3c-0.2,1-0.4,2-0.6,3c-0.1,0.5-0.2,1-0.4,1.6c-0.4,1.5-0.8,3.1-1.2,4.6c-0.1,0.5-0.3,1-0.5,1.5v0
				c-0.2,0.5-0.3,1-0.5,1.5c-0.2,0.5-0.4,1-0.5,1.5c-0.2,0.5-0.4,1-0.6,1.5c-0.8,2-1.6,3.9-2.6,5.8c-0.4,0.8-0.9,1.7-1.3,2.5
				c-0.3,0.6-0.7,1.3-1.1,1.9c-0.2,0.3-0.4,0.7-0.6,1.1c0,0,0,0.1-0.1,0.1c-0.3,0.4-0.5,0.9-0.8,1.3c-0.3,0.4-0.5,0.8-0.8,1.2
				c-0.3,0.4-0.5,0.8-0.8,1.2c-0.4,0.5-0.7,1-1.1,1.5c0,0,0,0,0,0c-0.4,0.5-0.8,1-1.1,1.5c-0.4,0.5-0.8,1-1.2,1.5
				c-1.2,1.5-2.5,2.9-3.8,4.3c-0.2,0.2-0.4,0.5-0.7,0.7c-0.2,0.2-0.4,0.5-0.7,0.7c-0.2,0.2-0.4,0.4-0.6,0.6
				c-3.3,3.2-6.8,6.1-10.8,8.7c-34.4,23-81,13.8-104-20.7l-34.2-51.2L3702.9,3524.2z"/>
			<path class="st8" d="M3830.2,3566.4c0.3,1.8,0.5,3.6,0.6,5.4C3830.6,3570,3830.4,3568.2,3830.2,3566.4z"/>
			<path class="st8" d="M3830.2,3566.4c-0.3-1.7-0.6-3.4-0.9-5.1C3829.6,3563,3829.9,3564.7,3830.2,3566.4z"/>
			<path class="st8" d="M3829,3594.2c0.1-0.5,0.2-1,0.4-1.6C3829.2,3593.2,3829.1,3593.7,3829,3594.2z"/>
			<path class="st8" d="M3828.4,3557.6c0.2,0.6,0.3,1.2,0.5,1.8C3828.7,3558.7,3828.5,3558.1,3828.4,3557.6z"/>
			<path class="st8" d="M3827.8,3598.8c0.4-1.5,0.9-3.1,1.2-4.6C3828.6,3595.8,3828.2,3597.3,3827.8,3598.8z"/>
			<path class="st8" d="M3827.9,3555.8c0.2,0.6,0.3,1.1,0.5,1.7C3828.2,3557,3828,3556.4,3827.9,3555.8z"/>
			<path class="st8" d="M3827.3,3554.1c0.2,0.6,0.4,1.1,0.5,1.7C3827.7,3555.3,3827.5,3554.7,3827.3,3554.1z"/>
			<path class="st8" d="M3826.7,3552.4c0.2,0.6,0.4,1.1,0.6,1.7C3827.1,3553.5,3826.9,3552.9,3826.7,3552.4z"/>
			<path class="st8" d="M3826.3,3603.3c0.2-0.5,0.4-1,0.5-1.5C3826.6,3602.3,3826.4,3602.8,3826.3,3603.3z"/>
			<path class="st8" d="M3825.7,3604.8c0.2-0.5,0.4-1,0.6-1.5C3826.1,3603.8,3825.9,3604.3,3825.7,3604.8z"/>
			<path class="st8" d="M3825.7,3604.8c-0.8,2-1.6,3.9-2.6,5.8C3824.1,3608.7,3824.9,3606.8,3825.7,3604.8z"/>
			<path class="st8" d="M3822.6,3542.8c0.3,0.5,0.5,1,0.8,1.5C3823.1,3543.7,3822.9,3543.3,3822.6,3542.8z"/>
			<path class="st8" d="M3823.1,3610.6c-0.4,0.8-0.9,1.7-1.3,2.5C3822.3,3612.3,3822.7,3611.5,3823.1,3610.6z"/>
			<path class="st8" d="M3820.6,3539.1c0.4,0.7,0.8,1.4,1.3,2.2C3821.4,3540.5,3821,3539.8,3820.6,3539.1z"/>
			<path class="st8" d="M3818.3,3535.5c0.3,0.5,0.6,0.9,0.9,1.4C3818.9,3536.4,3818.6,3536,3818.3,3535.5z"/>
			<path class="st8" d="M3815.3,3623c0.4-0.5,0.8-1,1.1-1.5C3816.1,3622,3815.7,3622.5,3815.3,3623z"/>
			<path class="st8" d="M3815.3,3623c-0.4,0.5-0.8,1-1.2,1.5C3814.5,3624,3814.9,3623.5,3815.3,3623z"/>
			<path class="st8" d="M3814.1,3624.5c-1.2,1.5-2.4,2.9-3.8,4.3C3811.7,3627.4,3812.9,3626,3814.1,3624.5z"/>
			<path class="st8" d="M3762,3451.3l56,83.8c-2.6-3.9-5.6-7.5-9.1-10.9c-29.3-29.3-76.8-29.3-106.1,0l-43.5,43.5l-127.6-191
				c13.4-25.4,26.6-51.1,39.4-77C3631.4,3344.8,3695.6,3395.8,3762,3451.3z"/>
			<path class="st8" d="M3762,3451.3c-66.5-55.5-130.6-106.5-190.9-151.6c3.5-7,6.9-14,10.3-21c9.2-18.9,18.2-37.9,27-57.2
				L3762,3451.3z"/>
			<path class="st8" d="M3693.6,3618.9c23,34.4,69.6,43.7,104,20.7c3.9-2.6,7.5-5.6,10.8-8.7l-66.6,66.6c-17.1-15-34.1-29.8-51-44.3
				c-21.3-18.3-42.4-36.2-63.3-53.5l31.8-31.9L3693.6,3618.9z"/>
			<path class="st8" d="M3741.8,3697.4l-143.8,143.8c-15-17.1-29.8-34.1-44.3-51c-0.1-0.1-0.2-0.2-0.2-0.3
				c-18.2-21.2-36-42.3-53.3-63l127.3-127.3c20.8,17.4,41.9,35.2,63.3,53.5C3707.8,3667.6,3724.8,3682.4,3741.8,3697.4z"/>
			<path class="st8" d="M3476.8,3024.4l131.7,197c-8.8,19.2-17.8,38.3-27,57.2c-3.4,7-6.8,14-10.3,21
				c-49.9-37.4-97.1-70.8-140.8-99.5c-8.4-5.5-16.7-10.9-24.8-16.1C3430.7,3131.9,3454.4,3078.7,3476.8,3024.4z"/>
			<path class="st8" d="M3598.1,3841.1l-67.2,67.1h0c29.3-29.3,29.3-76.8,0-106.1l-5.2-5.2l-57.3-38.3l31.9-31.9
				c17.3,20.8,35.1,41.8,53.3,63c0.1,0.1,0.1,0.2,0.2,0.3C3568.3,3807,3583.1,3824.1,3598.1,3841.1z"/>
			<path class="st8" d="M3571.1,3299.7c-12.8,26-25.9,51.6-39.4,77l-127.3-190.4c0.4-0.7,0.7-1.5,1.1-2.2
				c8.1,5.2,16.4,10.6,24.8,16.1C3474.1,3228.9,3521.3,3262.3,3571.1,3299.7z"/>
			<path class="st8" d="M3530.9,3802.2c29.3,29.3,29.3,76.8,0,106.1c-0.3,0.3-0.6,0.6-0.9,0.9c-0.9,0.9-1.8,1.7-2.8,2.6
				c-0.1,0-0.1,0.1-0.1,0.1c-0.4,0.4-0.8,0.7-1.3,1.1c-0.4,0.4-0.9,0.7-1.3,1.1c-0.9,0.7-1.8,1.4-2.7,2c-0.4,0.3-0.9,0.6-1.4,1
				c-0.9,0.6-1.8,1.3-2.8,1.8c-0.5,0.3-0.9,0.6-1.4,0.9c-0.4,0.2-0.8,0.5-1.3,0.7c-0.1,0.1-0.2,0.1-0.3,0.2
				c-0.4,0.3-0.9,0.5-1.3,0.7c-0.5,0.3-1,0.5-1.4,0.8c-0.5,0.2-1,0.5-1.5,0.7c-1.5,0.7-3,1.4-4.5,2c-2,0.8-4.1,1.5-6.1,2.2
				c-0.5,0.2-1,0.3-1.6,0.5c-0.5,0.2-1,0.3-1.5,0.4c-0.5,0.1-1.1,0.3-1.6,0.4c-0.5,0.1-1,0.3-1.6,0.4c-1.1,0.2-2.1,0.4-3.1,0.6
				c0,0-0.1,0-0.1,0c-1,0.2-1.9,0.3-2.9,0.4c-0.6,0.1-1.2,0.1-1.8,0.2c-0.4,0.1-0.9,0.1-1.3,0.1c-0.1,0-0.3,0-0.4,0
				c-0.5,0.1-0.9,0.1-1.4,0.1c-0.4,0-0.8,0.1-1.2,0.1c-0.5,0-0.9,0-1.4,0.1c-2.4,0.1-4.7,0-7.1-0.1c-0.3,0-0.6,0-0.9-0.1
				c-0.2,0-0.4,0-0.6-0.1c-0.2,0-0.4,0-0.6-0.1c-0.6,0-1.2-0.1-1.7-0.2c-0.6-0.1-1.3-0.2-2-0.3c-0.3,0-0.5-0.1-0.8-0.1
				c-0.3,0-0.5-0.1-0.8-0.1c-0.3,0-0.6-0.1-0.9-0.1c-0.3-0.1-0.6-0.1-0.9-0.2c-0.6-0.1-1.2-0.2-1.8-0.4c-0.6-0.1-1.2-0.3-1.8-0.4
				c-0.6-0.1-1.2-0.3-1.8-0.5c-0.6-0.1-1.2-0.3-1.7-0.5c-0.6-0.2-1.2-0.3-1.7-0.5c-1.2-0.4-2.3-0.8-3.4-1.2
				c-1.1-0.4-2.3-0.9-3.4-1.4c-1.1-0.5-2.3-1-3.4-1.6c-0.5-0.3-1.1-0.5-1.6-0.8c0,0-0.1,0-0.1-0.1c-0.3-0.1-0.5-0.3-0.8-0.4
				c-0.3-0.1-0.5-0.3-0.8-0.4c-0.5-0.3-1.1-0.6-1.6-0.9c-0.3-0.2-0.5-0.3-0.8-0.5c-0.3-0.2-0.5-0.3-0.8-0.5c-0.5-0.3-1-0.6-1.5-1
				c-0.6-0.4-1.1-0.8-1.7-1.1c-3.6-2.5-7-5.3-10.1-8.5c-29.3-29.3-29.3-76.8,0-106.1l43.5-43.5l57.3,38.3L3530.9,3802.2z"/>
			<path class="st8" d="M3527.3,3911.7c0.9-0.8,1.9-1.7,2.8-2.6C3529.1,3910,3528.2,3910.9,3527.3,3911.7z"/>
			<path class="st8" d="M3524.6,3913.9c0.4-0.3,0.9-0.7,1.3-1.1C3525.4,3913.3,3525,3913.6,3524.6,3913.9z"/>
			<path class="st8" d="M3521.9,3916c0.9-0.7,1.8-1.3,2.7-2C3523.7,3914.7,3522.8,3915.3,3521.9,3916z"/>
			<path class="st8" d="M3515.1,3920.4c0.4-0.2,0.8-0.5,1.3-0.7C3515.9,3919.9,3515.5,3920.2,3515.1,3920.4z"/>
			<path class="st8" d="M3514.8,3920.6c-0.4,0.3-0.9,0.5-1.3,0.7C3513.9,3921.1,3514.3,3920.8,3514.8,3920.6z"/>
			<path class="st8" d="M3512,3922.1c0.5-0.3,1-0.5,1.4-0.8C3513,3921.6,3512.5,3921.8,3512,3922.1z"/>
			<path class="st8" d="M3510.5,3922.8c0.5-0.2,1-0.5,1.5-0.7C3511.5,3922.3,3511,3922.6,3510.5,3922.8z"/>
			<path class="st8" d="M3506,3924.8c1.5-0.6,3-1.3,4.5-2C3509.1,3923.5,3507.6,3924.2,3506,3924.8z"/>
			<path class="st8" d="M3484.4,3929.9c0.5,0,0.9-0.1,1.3-0.1C3485.3,3929.9,3484.9,3929.9,3484.4,3929.9z"/>
			<path class="st8" d="M3470.2,1509.9l-222.4,404.3l-1.5-1.9l51-136.2c-49.8-18.7-99.4-33.9-148.7-45.7L3470.2,1509.9z"/>
			<path class="st8" d="M3454.8,3926.6c0.6,0.2,1.1,0.4,1.7,0.5C3456,3927,3455.4,3926.8,3454.8,3926.6z"/>
			<path class="st8" d="M3454.8,3926.6c-1.2-0.4-2.3-0.8-3.4-1.2C3452.5,3925.8,3453.7,3926.2,3454.8,3926.6z"/>
			<path class="st8" d="M3451.4,3925.4c-1.1-0.4-2.3-0.9-3.4-1.4C3449.1,3924.5,3450.3,3925,3451.4,3925.4z"/>
			<path class="st8" d="M3443.1,3921.7c0.5,0.3,1.1,0.6,1.6,0.8C3444.1,3922.2,3443.6,3921.9,3443.1,3921.7z"/>
			<path class="st8" d="M3439.8,3919.9c0.5,0.3,1.1,0.6,1.6,0.9C3440.9,3920.5,3440.3,3920.2,3439.8,3919.9z"/>
			<path class="st8" d="M3435,3916.8l-83-55.5c-25.4-30.4-49.8-60.3-73.2-89.5c18-23.3,35.6-47.1,53-71.3
				c5.3-7.4,10.6-14.9,15.9-22.5l120.7,80.6l-43.5,43.5c-29.3,29.3-29.3,76.8,0,106.1C3428.1,3911.4,3431.4,3914.3,3435,3916.8z"/>
			<path class="st8" d="M3409.7,2924.1l67.1,100.3c-22.3,54.3-46.1,107.5-71.2,159.6c-1.5-0.9-3-1.9-4.4-2.8l-74.3-111.2l64.6-64.6
				c21.8-21.8,27.4-53.7,16.7-80.7L3409.7,2924.1z"/>
			<path class="st8" d="M3285.3,2899.3c29.3-29.3,76.8-29.3,106.1,0c7.5,7.5,13.1,16.1,16.7,25.4c10.7,27,5.1,58.9-16.7,80.7
				l-64.6,64.6l-60-89.8l-2.5-16.5c-0.1-0.4-2.2-14.1-6.6-36.7L3285.3,2899.3z"/>
			<path class="st8" d="M3405.6,3184c-0.4,0.7-0.7,1.5-1.1,2.2l-3.4-5C3402.6,3182.1,3404.1,3183.1,3405.6,3184z"/>
			<path class="st8" d="M3275.2,4241.5c62.2,0,112.6,50.4,112.6,112.6s-50.4,112.6-112.6,112.6c-62.2,0-112.6-50.4-112.6-112.6
				S3213,4241.5,3275.2,4241.5z"/>
			<path class="st8" d="M3181.4,3566.9l166.3,111.2c-5.3,7.5-10.6,15-15.9,22.5c-17.3,24.2-35,47.9-53,71.3
				c-46.4-58.1-88.5-113.8-125.6-165.8c5.4-7.3,10.7-14.7,16-22.1C3173.3,3578.3,3177.4,3572.6,3181.4,3566.9z"/>
			<path class="st8" d="M3352,3861.3l-94-62.8c7-8.8,14-17.7,20.9-26.7C3302.2,3801,3326.6,3830.9,3352,3861.3z"/>
			<path class="st8" d="M3297.4,1776l-51,136.2l-125.5-162.8l27.9-19.1C3198,1742.2,3247.6,1757.4,3297.4,1776z"/>
			<path class="st8" d="M3264.2,2963.7l2.5,16.5l60,89.8l-43.7,43.7c-3-1.5-6-2.9-8.9-4.4c-53.3-25.8-98-40.4-136.5-44.7
				c-5.7-0.6-11.2-1-16.5-1.2l136.4-136.4C3262.1,2949.6,3264.2,2963.3,3264.2,2963.7z"/>
			<path class="st8" d="M3278.8,3771.7c-6.9,9-13.9,17.9-20.9,26.7L3091.1,3687c21.1-26.3,41.8-53.3,62.1-81
				C3190.3,3658,3232.4,3713.6,3278.8,3771.7z"/>
			<path class="st8" d="M3091.1,3687l166.8,111.5c-72.5,91.6-149.9,176.2-230.9,252.5c-110.9,104.4-229.6,194.3-352.9,267
				c-13.8,8.2-27.8,16.1-41.8,23.9c-0.6-19.6-1-39.4-1-59.6c0-55.2-44.8-100-100-100c-12.8,0-25,2.4-36.2,6.8
				C2712.2,4077.1,2914,3907.9,3091.1,3687z"/>
			<path class="st8" d="M3120.9,1749.5l125.5,162.8l-1.6,4.2c-224.3-84-435-88.5-626.4-13.4c-140,55-218.9,135-223.7,140l-110-102
				c3.9-4.3,98.5-104.9,271-174.5c100.6-40.6,207.7-62.8,318.4-65.9c89.6-2.6,181.5,7.4,274.7,29.7L3120.9,1749.5z"/>
			<path class="st8" d="M3081.9,3500.4l99.5,66.5c-4,5.7-8.1,11.4-12.1,17.1c-5.3,7.4-10.6,14.8-16,22.1
				c-18.8-26.4-36.4-51.9-52.4-76.4C3094.3,3519.7,3088,3510,3081.9,3500.4z"/>
			<path class="st8" d="M3157.6,1125.3l-987.6,312c-39.6,12.5-81.9-9.5-94.4-49.1c-12.5-39.6,9.5-81.8,49.1-94.3
				c3.4-1.1,7.2-1.9,10.6-2.5L3157.6,1125.3z"/>
			<path class="st8" d="M3121.3,3063.4c5.3,0.2,10.8,0.6,16.5,1.2c38.5,4.3,83.2,18.9,136.5,44.7c2.9,1.4,5.9,2.9,8.9,4.4
				l-268.7,268.7c-1.5-3-2.9-6-4.4-8.9c-25.8-53.4-40.4-98-44.7-136.5c-0.6-5.7-1-11.2-1.2-16.5L3121.3,3063.4z"/>
			<path class="st8" d="M3109.6,5172.2c-0.1,0-0.1,0-0.1,0l-47.6,194.3c-4.7-1.1-47.3-12-107.6-42.2
				c-78.8-39.5-151.7-92.9-216.9-159c-90-91.2-161.5-203.3-212.4-333.1c-46.4-118.2-75.7-251.5-87.5-397.6
				c66.1-26.4,131.2-57.4,194.9-92.7c9.5,291.3,89.9,518,239.2,674.6c61.2,64.1,122.5,103,163.2,124.4
				C3075.8,5162.3,3104.9,5170.9,3109.6,5172.2z"/>
			<polygon class="st8" points="2915.2,2530.1 3053.7,2755 2828.8,2616.5 			"/>
			<path class="st8" d="M2827.7,3357l136.4-136.4c0.2,5.3,0.6,10.8,1.2,16.5c4.3,38.5,18.9,83.1,44.7,136.5c1.4,2.9,2.9,5.9,4.4,8.9
				l-43.7,43.7l-76-50.8l-13.9-9.3l-16.4-2.5C2864.1,3363.4,2850.4,3361.3,2827.7,3357z"/>
			<polygon class="st8" points="2883.6,2478.8 2915.2,2530.1 2828.8,2616.5 2777.5,2584.9 			"/>
			<path class="st8" d="M2827.7,3357c22.7,4.4,36.3,6.5,36.7,6.6l16.4,2.5l13.9,9.3l76,50.8l-64.6,64.6
				c-21.8,21.8-53.7,27.4-80.7,16.7c-9.3-3.6-17.9-9.2-25.4-16.7c-29.3-29.3-29.3-76.8,0-106.1L2827.7,3357z"/>
			<polygon class="st8" points="2716.2,2729.1 2854.7,2953.9 2629.8,2815.5 2673,2772.3 			"/>
			<path class="st8" d="M2825.5,3507.4c26.9,10.7,58.8,5.1,80.7-16.7l64.6-64.6l111.2,74.3c6.1,9.6,12.4,19.3,18.9,29.3
				c16.1,24.4,33.6,49.9,52.4,76.4c-20.3,27.7-41.1,54.7-62.1,81l-266.3-178L2825.5,3507.4z"/>
			<path class="st8" d="M2824.8,3509c-39.3-6.9-140.9-26.4-248.9-62c-81.7-26.9-150.4-57.7-204.1-91.3
				c-76.2-47.7-125-103.1-145.2-164.6c-15.2-46.4-14.1-94.5,3.3-143.2c16.7-46.7,47.6-92.2,94.4-138.9l242.6-242.6
				c-29.3,29.3-29.3,76.8,0,106.1c4,4,8.3,7.4,12.8,10.3l-1.3,1.3l51.3,31.6l-112.6,112.6l-31.6-51.3l-106.1,106.1l51.3,31.6
				l-0.5,0.5c-51.8,51.8-72.4,95.3-61.2,129.3c8.8,26.8,37,55.8,81.5,83.8c43.3,27.2,100.7,52.8,170.5,75.9
				c82,27.2,161.8,44.5,206.6,53.1l-27.7,27.7c-29.3,29.3-29.3,76.8,0,106.1c7.5,7.5,16.1,13.1,25.4,16.7L2824.8,3509z"/>
			<path class="st8" d="M2684.6,2677.8l31.6,51.3l-43.2,43.2c25.3-25.3,28.8-64.2,10.3-93.2L2684.6,2677.8z"/>
			<path class="st8" d="M3285.3,2899.3l-27.7,27.6c-8.6-44.8-25.9-124.6-53.1-206.6c-23.2-69.8-48.7-127.2-75.9-170.5
				c-28-44.6-57-72.8-83.8-81.5c-34-11.1-77.5,9.5-129.3,61.2l-0.5,0.5l-31.6-51.3l-106.1,106.1l51.3,31.6l-112.6,112.6l-31.6-51.3
				l-1.3,1.3c-2.9-4.6-6.3-8.9-10.3-12.8c-29.3-29.3-76.8-29.3-106.1,0l242.6-242.6c46.8-46.8,92.2-77.6,138.9-94.4
				c48.7-17.4,96.8-18.5,143.2-3.3c61.6,20.2,117,69,164.6,145.2c33.7,53.8,64.4,122.5,91.3,204.2c35.6,108,55.2,209.6,62,248.9
				l-1.6,0.6c-3.7-9.3-9.2-17.9-16.7-25.4C3362.1,2870,3314.6,2870,3285.3,2899.3z"/>
			<path class="st8" d="M2683.3,2679c18.5,29,15,67.9-10.3,93.2c-25.3,25.3-64.3,28.8-93.3,10.3L2683.3,2679z"/>
			<path class="st8" d="M2566.9,2666.2c29.3-29.3,76.8-29.3,106.1,0c4,4,7.4,8.3,10.3,12.8l-103.5,103.5c-4.6-2.9-8.9-6.3-12.8-10.3
				C2537.6,2743,2537.6,2695.5,2566.9,2666.2z"/>
			<polygon class="st8" points="2517.2,2928.1 2655.7,3152.9 2430.8,3014.4 			"/>
			<path class="st8" d="M2531.4,4182.3c55.2,0,100,44.8,100,100c0,20.1,0.3,40,1,59.6c-63.7,35.3-128.9,66.3-194.9,92.7
				c-4-49.3-6-100.1-6-152.3c0-35.4,18.4-66.5,46.2-84.3c5.9-2.9,11.7-5.9,17.6-8.9C2506.4,4184.6,2518.7,4182.3,2531.4,4182.3z"/>
			<path class="st8" d="M2579.8,2782.6c29,18.5,67.9,15,93.3-10.3l-43.2,43.2l-51.3-31.6L2579.8,2782.6z"/>
			<polygon class="st8" points="2485.6,2876.8 2517.2,2928.1 2430.8,3014.4 2379.5,2982.8 			"/>
			<path class="st8" d="M2495.2,4189c-5.9,3-11.7,6-17.6,8.9C2483.1,4194.4,2489,4191.4,2495.2,4189z"/>
			<path class="st8" d="M2477.6,4198c-27.8,17.8-46.2,48.9-46.2,84.3c0,52.2,2,103,6,152.3c-51.8,20.7-104.3,38.7-157,53.7
				c-138.9,39.6-281.9,59.7-425.1,59.7c-131.2,0-262.5-16.9-390.3-50.2c-124.3-32.4-247.1-80.9-364.8-144
				c-114.9-61.6-226.5-138-331.7-227c-103.4-87.5-201.9-188.3-292.7-299.6c-34.9-42.8-28.5-105.8,14.3-140.7
				c42.8-34.9,105.8-28.5,140.7,14.3c340.6,417.4,775.4,647.2,1224.5,647.2C2070.3,4348,2280.1,4296.6,2477.6,4198z"/>
			<path class="st8" d="M2092.2,3590.3c3.8,2.5,7.6,5.1,11.4,7.9c-3.8,2.8-7.6,5.5-11.4,7.9c-3.8,2.5-7.6,4.8-11.4,7.1
				c-7.6,4.6-15.3,8.8-22.9,12.8c-15.3,7.9-30.5,14.9-45.8,21.1c-30.5,12.5-61,22.1-91.5,29.6c-61,14.9-122.1,21.4-183.1,21.5
				c-61,0.1-122.1-6.4-183.1-21.2c-30.5-7.5-61-17.1-91.5-29.6c-15.3-6.3-30.5-13.3-45.8-21.2c-7.6-4-15.3-8.2-22.9-12.8
				c-3.8-2.3-7.6-4.7-11.4-7.2c-3.8-2.5-7.6-5.1-11.5-8c3.8-2.9,7.6-5.5,11.5-8c3.8-2.5,7.6-4.9,11.4-7.2
				c7.6-4.6,15.3-8.8,22.9-12.8c15.3-7.9,30.5-14.9,45.8-21.2c30.5-12.5,61-22.1,91.5-29.6c61-14.9,122.1-21.3,183.1-21.2
				c61,0.1,122.1,6.6,183.1,21.5c30.5,7.5,61,17.1,91.5,29.6c15.3,6.2,30.5,13.2,45.8,21.1c7.6,4,15.3,8.2,22.9,12.8
				C2084.6,3585.5,2088.4,3587.8,2092.2,3590.3z"/>
			<path class="st8" d="M1812.4,1967.4c0,173.7-12.4,337-36.9,485.4c-19.8,119.9-47.5,230.6-82.3,329
				c-30.8,87-61.7,149.4-85.5,190.8l176.6,141.3c32.3,25.9,37.6,73.1,11.7,105.4c-14.8,18.5-36.6,28.2-58.6,28.2
				c-16.4,0-33-5.4-46.8-16.4l-290.2-232.2l49.3-57.8c3.4-4.4,54.9-72,105.9-220.1c48.7-141.5,106.8-387.1,106.8-753.6
				c0-41.4,33.6-75,75-75C1778.8,1892.4,1812.4,1926,1812.4,1967.4z"/>
		</g>
		<g>
		</g>
	</g>
</g>
</svg>
