<?xml version="1.0" encoding="utf-8"?>
<!-- Generator: Adobe Illustrator 23.0.3, SVG Export Plug-In . SVG Version: 6.00 Build 0)  -->
<svg version="1.1" id="Layer_1" xmlns="http://www.w3.org/2000/svg" xmlns:xlink="http://www.w3.org/1999/xlink" x="0px" y="0px"
	 viewBox="0 0 5669.3 5669.3" style="enable-background:new 0 0 5669.3 5669.3;" xml:space="preserve">
<style type="text/css">
	.st0{display:none;fill:url(#SVGID_1_);}
	.st1{display:none;}
	.st2{display:inline;}
	.st3{clip-path:url(#SVGID_3_);fill:#E81E44;}
	.st4{clip-path:url(#SVGID_5_);fill:#FFFFFF;}
	.st5{clip-path:url(#SVGID_7_);fill:none;stroke:#231F20;stroke-miterlimit:10;}
	.st6{clip-path:url(#SVGID_9_);fill:#2D2D2F;}
	.st7{clip-path:url(#SVGID_11_);fill:#BEBEBE;}
	.st8{clip-path:url(#SVGID_13_);}
	.st9{clip-path:url(#SVGID_15_);}
	.st10{clip-path:url(#SVGID_17_);}
	.st11{clip-path:url(#SVGID_19_);}
	.st12{fill:#FFFFFF;}
	.st13{display:inline;fill:none;stroke:#FFFFFF;stroke-width:250;stroke-miterlimit:10;}
	.st14{display:inline;fill:none;stroke:#FFFFFF;stroke-width:200;stroke-miterlimit:10;}
	.st15{display:inline;fill:#FFFFFF;stroke:#FFFFFF;stroke-width:200;stroke-miterlimit:10;}
	.st16{display:inline;fill:#FFFFFF;}
	.st17{display:inline;fill:none;stroke:#FFFFFF;stroke-width:150;stroke-linejoin:round;stroke-miterlimit:10;}
	
		.st18{display:inline;fill:none;stroke:#FFFFFF;stroke-width:200;stroke-linecap:round;stroke-linejoin:round;stroke-miterlimit:10;}
	
		.st19{display:inline;fill:none;stroke:#FFFFFF;stroke-width:150;stroke-linecap:round;stroke-linejoin:round;stroke-miterlimit:10;}
	.st20{fill:none;stroke:#FFFFFF;stroke-width:250;stroke-linejoin:round;stroke-miterlimit:10;}
	
		.st21{display:inline;fill:none;stroke:#FFFFFF;stroke-width:250;stroke-linecap:round;stroke-linejoin:round;stroke-miterlimit:10;}
	.st22{fill:none;stroke:#FFFFFF;stroke-width:200;stroke-miterlimit:10;}
	.st23{fill:none;stroke:#FFFFFF;stroke-width:150;stroke-miterlimit:10;}
	.st24{fill:none;stroke:#FFFFFF;stroke-width:150;stroke-linecap:round;stroke-miterlimit:10;}
	.st25{fill:none;stroke:#FFFFFF;stroke-width:200;stroke-linecap:round;stroke-linejoin:round;stroke-miterlimit:10;}
</style>
<radialGradient id="SVGID_1_" cx="2834.6499" cy="-1611.3501" r="3444.4932" fx="1741.5579" fy="-4877.7979" gradientTransform="matrix(1 0 0 1 0 4446)" gradientUnits="userSpaceOnUse">
	<stop  offset="0" style="stop-color:#BFBEBE"/>
	<stop  offset="0.2435" style="stop-color:#BCBBBB"/>
	<stop  offset="0.3917" style="stop-color:#B4B3B3"/>
	<stop  offset="0.5144" style="stop-color:#A6A5A5"/>
	<stop  offset="0.6233" style="stop-color:#919090"/>
	<stop  offset="0.7229" style="stop-color:#777676"/>
	<stop  offset="0.8158" style="stop-color:#565656"/>
	<stop  offset="0.9036" style="stop-color:#302F2F"/>
	<stop  offset="0.985" style="stop-color:#040404"/>
	<stop  offset="0.992" style="stop-color:#000000"/>
</radialGradient>
<path class="st0" d="M4014.3,5669.3H1655c-910.3,0-1655-744.8-1655-1655V1655C0,744.8,744.8,0,1655,0h2359.3
	c910.3,0,1655,744.8,1655,1655v2359.3C5669.3,4924.5,4924.5,5669.3,4014.3,5669.3z"/>
<g class="st1">
	<g class="st2">
		<g>
			<g>
				<defs>
					<rect id="SVGID_2_" x="-1192.7" y="711.4" width="595.3" height="841.9"/>
				</defs>
				<clipPath id="SVGID_3_">
					<use xlink:href="#SVGID_2_"  style="overflow:visible;"/>
				</clipPath>
				<rect x="-1153.7" y="964.8" class="st3" width="133.3" height="133.3"/>
			</g>
		</g>
		<g>
			<g>
				<defs>
					<rect id="SVGID_4_" x="-1192.7" y="711.4" width="595.3" height="841.9"/>
				</defs>
				<clipPath id="SVGID_5_">
					<use xlink:href="#SVGID_4_"  style="overflow:visible;"/>
				</clipPath>
				<rect x="-1153.7" y="789.4" class="st4" width="133.3" height="133.3"/>
			</g>
		</g>
		<g>
			<g>
				<defs>
					<rect id="SVGID_6_" x="-1192.7" y="711.4" width="595.3" height="841.9"/>
				</defs>
				<clipPath id="SVGID_7_">
					<use xlink:href="#SVGID_6_"  style="overflow:visible;"/>
				</clipPath>
				<rect x="-1153.7" y="789.4" class="st5" width="133.3" height="133.3"/>
			</g>
		</g>
		<g>
			<g>
				<defs>
					<rect id="SVGID_8_" x="-1192.7" y="711.4" width="595.3" height="841.9"/>
				</defs>
				<clipPath id="SVGID_9_">
					<use xlink:href="#SVGID_8_"  style="overflow:visible;"/>
				</clipPath>
				<rect x="-1153.7" y="1311.1" class="st6" width="133.3" height="133.3"/>
			</g>
		</g>
		<g>
			<g>
				<defs>
					<rect id="SVGID_10_" x="-1192.7" y="711.4" width="595.3" height="841.9"/>
				</defs>
				<clipPath id="SVGID_11_">
					<use xlink:href="#SVGID_10_"  style="overflow:visible;"/>
				</clipPath>
				<rect x="-1153.7" y="1135.7" class="st7" width="133.3" height="133.3"/>
			</g>
		</g>
		<g>
			<g>
				<defs>
					<rect id="SVGID_12_" x="-1192.7" y="711.4" width="595.3" height="841.9"/>
				</defs>
				<clipPath id="SVGID_13_">
					<use xlink:href="#SVGID_12_"  style="overflow:visible;"/>
				</clipPath>
				<g class="st8">
					<text transform="matrix(1 0 0 1 -984.6704 875.3813)" style="fill:#231F20; font-family:'ArialMT'; font-size:22.7707px;">bian</text>
					<text transform="matrix(1 0 0 1 -942.7705 875.3813)" style="fill:#231F20; font-family:'ArialMT'; font-size:22.7707px;">c</text>
					<text transform="matrix(1 0 0 1 -932.7104 875.3813)" style="fill:#231F20; font-family:'ArialMT'; font-size:22.7707px;">o pu</text>
					<text transform="matrix(1 0 0 1 -889.8804 875.3813)" style="fill:#231F20; font-family:'ArialMT'; font-size:22.7707px;">r</text>
					<text transform="matrix(1 0 0 1 -882.6604 875.3813)" style="fill:#231F20; font-family:'ArialMT'; font-size:22.7707px;">o pu</text>
					<text transform="matrix(1 0 0 1 -839.8306 875.3813)" style="fill:#231F20; font-family:'ArialMT'; font-size:22.7707px;">r</text>
					<text transform="matrix(1 0 0 1 -832.2905 875.3813)" style="fill:#231F20; font-family:'ArialMT'; font-size:22.7707px;">issimo </text>
					<text transform="matrix(1 0 0 1 -767.2805 875.3813)" style="fill:#231F20; font-family:'ArialMT'; font-size:22.7707px;">v</text>
					<text transform="matrix(1 0 0 1 -756.5305 875.3813)" style="fill:#231F20; font-family:'ArialMT'; font-size:22.7707px;">e</text>
					<text transform="matrix(1 0 0 1 -745.1304 875.3813)" style="fill:#231F20; font-family:'ArialMT'; font-size:22.7707px;">r</text>
					<text transform="matrix(1 0 0 1 -737.8604 875.3813)" style="fill:#231F20; font-family:'ArialMT'; font-size:22.7707px;">g</text>
					<text transform="matrix(1 0 0 1 -725.2505 875.3813)" style="fill:#231F20; font-family:'ArialMT'; font-size:22.7707px;">inello</text>
				</g>
			</g>
		</g>
		<g>
			<g>
				<defs>
					<rect id="SVGID_14_" x="-1192.7" y="711.4" width="595.3" height="841.9"/>
				</defs>
				<clipPath id="SVGID_15_">
					<use xlink:href="#SVGID_14_"  style="overflow:visible;"/>
				</clipPath>
				<g class="st9">
					<text transform="matrix(1 0 0 1 -984.6699 1030.7935)" style="fill:#231F20; font-family:'ArialMT'; font-size:65.3249px;">#EA1C43</text>
				</g>
			</g>
		</g>
		<g>
			<g>
				<defs>
					<rect id="SVGID_16_" x="-1192.7" y="711.4" width="595.3" height="841.9"/>
				</defs>
				<clipPath id="SVGID_17_">
					<use xlink:href="#SVGID_16_"  style="overflow:visible;"/>
				</clipPath>
				<g class="st10">
					<text transform="matrix(1 0 0 1 -984.6704 1201.9883)" style="fill:#231F20; font-family:'ArialMT'; font-size:67.7988px;">#BEBEBE</text>
				</g>
			</g>
		</g>
		<g>
			<g>
				<defs>
					<rect id="SVGID_18_" x="-1192.7" y="711.4" width="595.3" height="841.9"/>
				</defs>
				<clipPath id="SVGID_19_">
					<use xlink:href="#SVGID_18_"  style="overflow:visible;"/>
				</clipPath>
				<g class="st11">
					<text transform="matrix(1 0 0 1 -984.6709 1377.2412)" style="fill:#231F20; font-family:'ArialMT'; font-size:70.3009px;">#2D2D2F</text>
				</g>
			</g>
		</g>
	</g>
</g>
<g class="st1">
	<g id="XMLID_3_" class="st2">
		<g>
			<path class="st12" d="M5032.9,2646.6l-724,1130.3c-27.8,43.4-85.7,56.1-129.1,28.3l-212.2-135.9c-2.8-1.8-5.5-3.7-8-5.8
				c33.6,16.4,74.9,5.3,95.6-26.9c22.3-34.8,12.1-81-22.6-103.3l-63-40.3l505.4-789l63,40.3c34.8,22.3,81,12.1,103.3-22.6
				l-545.8,852l117.7,75.4l663.5-1035.8l-117.8-75.4l-117.7,183.8c22.3-34.8,12.1-81-22.6-103.3l-63-40.3l107.6-168.1
				c27.8-43.4,85.7-56.1,129.1-28.3l212.2,135.9C5048,2545.3,5060.7,2603.2,5032.9,2646.6z"/>
			<path class="st12" d="M4055.1,3636.5c-20.7,32.3-62,43.3-95.6,26.9c-36.9-29.5-46.3-82.8-20.3-123.4l30.3-47.2l63,40.3
				C4067.2,3555.4,4077.4,3601.7,4055.1,3636.5z"/>
			<path class="st12" d="M4618.6,2618.2c34.8,22.3,44.9,68.5,22.6,103.3s-68.5,44.9-103.3,22.6l-63-40.3l80.7-125.9L4618.6,2618.2z"
				/>
			<path class="st12" d="M3959.5,3663.4c-2.6-1.3-5.2-2.7-7.7-4.3l-919.2-588.8l32.3-50.4l671.5,430.1l48.4-75.6l184.8,118.4
				l-30.3,47.2C3913.2,3580.6,3922.6,3634,3959.5,3663.4z"/>
			<polygon class="st12" points="4555.6,2577.9 4474.9,2703.8 4318.9,2603.9 4470.2,2699.3 4431.9,2524.6 4425.3,2494.4 			"/>
			<polygon class="st12" points="4470.2,2699.3 4318.9,2603.9 4290.2,2585.5 4370.9,2459.5 4425.3,2494.4 4431.9,2524.6 			"/>
			<polygon class="st12" points="4425.3,2494.4 4370.9,2459.5 4247.2,2380.3 3956.3,1052.7 4102.4,1020.7 			"/>
			<polygon class="st12" points="4318.9,2603.9 4290,2585.7 4290.2,2585.5 			"/>
			<polygon class="st12" points="3784.7,3374.5 3736.3,3450.1 3064.9,3019.9 3072.9,3007.3 3016.6,2971.2 3056.9,2908.3 			"/>
			<polygon class="st12" points="4290,2585.7 3784.7,3374.5 3056.9,2908.3 3562.4,2119.2 3688.3,2199.9 3215.1,2938.6 3691,3243.4 
				4163.5,2505.8 			"/>
			<polygon class="st12" points="4290.2,2585.5 4290,2585.7 4163.5,2505.8 4164.2,2504.8 			"/>
			<path class="st12" d="M4370.9,2459.5l-80.7,125.9l-126-80.7L3949.1,2367c-13.9-12.2-26.3-26.1-37.1-41.4
				c-18.1-25.7-30.6-54.4-37.4-85.1l-25.2-114.9l192.5,123.3c5.1,5.4,10.8,10.3,17.1,14.2l188.4,118.9l-0.4-1.7L4370.9,2459.5z"/>
			<path class="st12" d="M4247.5,2382l-188.4-118.9c-6.3-4-12.1-8.8-17.1-14.2l205.1,131.4L4247.5,2382z"/>
			<path class="st12" d="M4164.2,2504.8l-0.7,1.1l-184.2-116.2c-0.5-0.3-0.9-0.6-1.4-0.9c-10.2-6.6-19.9-13.8-28.9-21.8
				L4164.2,2504.8z"/>
			<path class="st12" d="M4042,2248.9l-192.5-123.3l-219.4-1001.3l146.1-32l244.5,1116.2C4024.1,2223.6,4031.6,2237.6,4042,2248.9z"
				/>
			<path class="st12" d="M3949.1,2367l-260.8-167l-125.9-80.7l80.7-125.9l206.4,132.3l25.2,114.9c6.7,30.7,19.3,59.4,37.4,85.1
				C3922.8,2340.9,3935.2,2354.7,3949.1,2367z"/>
			<path class="st12" d="M4882.9,773.2c8.9,40.3-16.7,80.2-57,89.1l-723.4,158.5l-32-146.1l723.4-158.5
				C4834.1,707.3,4874,732.8,4882.9,773.2z"/>
			<path class="st12" d="M3032.6,3070.3l-187.5,292.6c-27.8,43.4-85.7,56.1-129.1,28.3l-317.7-203.5l80.7-125.9l270.5,173.3
				l157.2-245.4L3032.6,3070.3z"/>
			<polygon class="st12" points="3064.9,3019.9 3032.6,3070.3 2906.6,2989.6 2947,2926.6 3016.6,2971.2 3008.5,2983.8 			"/>
			
				<rect x="3032.9" y="2962.2" transform="matrix(0.5394 -0.842 0.842 0.5394 -1122.1476 3939.8372)" class="st12" width="15" height="66.9"/>
			<polygon class="st12" points="3056.9,2908.3 3016.6,2971.2 2947,2926.6 2906.6,2989.6 1915.8,2354.9 1996.4,2228.9 2224.5,2375 
				2176.1,2450.6 2903.9,2916.8 2952.3,2841.2 			"/>
			
				<rect x="3475.4" y="1960.8" transform="matrix(0.5394 -0.842 0.842 0.5394 -68.283 3921.1135)" class="st12" width="149.6" height="124.3"/>
			
				<rect x="2519.1" y="2213.9" transform="matrix(0.5394 -0.842 0.842 0.5394 -1047.1217 3377.634)" class="st12" width="89.8" height="864.3"/>
			<polygon class="st12" points="3457.7,2052.2 2952.3,2841.2 2224.5,2375 2729.9,1586 2855.9,1666.7 2382.7,2405.3 2858.6,2710.2 
				3331.8,1971.5 			"/>
			<polygon class="st12" points="3538.4,1926.3 3457.7,2052.2 3331.8,1971.5 2855.9,1666.7 2729.9,1586 2810.6,1460 			"/>
			
				<rect x="3938.4" y="888.8" transform="matrix(0.9768 -0.214 0.214 0.9768 -113.2379 881.1684)" class="st12" width="149.6" height="149.6"/>
			<path class="st12" d="M4070.4,874.6l-146.1,32l-31.5-144c-4.9-22.6-18.4-41.9-37.9-54.4s-42.6-16.6-65.2-11.7l-11,2.4
				c-22.6,5-41.9,18.4-54.4,37.9s-16.6,42.6-11.7,65.2l31.5,144L3598,978l-31.5-144c-6.8-31.1-7.3-62.7-1.5-93.8
				c5.6-30,16.8-58.3,33.4-84.1c16.5-25.8,37.6-47.8,62.5-65.5c25.9-18.3,54.7-31,85.8-37.8l11-2.4c31.1-6.8,62.7-7.3,93.8-1.5
				c30,5.6,58.3,16.8,84.1,33.3s47.8,37.5,65.5,62.5c18.3,25.8,31,54.7,37.8,85.8L4070.4,874.6z"/>
			
				<rect x="3612.2" y="960.4" transform="matrix(0.9768 -0.214 0.214 0.9768 -136.1165 813.0203)" class="st12" width="149.6" height="149.6"/>
			<path class="st12" d="M2283.5,3401.4l-755.8,1179.9c-27.8,43.4-85.7,56.1-129.2,28.3l-107.5-68.9l30.3-47.2
				c27.8-43.4,15.1-101.3-28.3-129.1l139,89l188.4-294.1l93.8,60.1l80.7-125.9l-93.8-60.1l157.2-245.4l93.8,60.1l80.7-125.9
				l-93.8-60.1l188.4-294.1l-112.5-72.1c43.4,27.8,101.3,15.1,129.1-28.3l30.3-47.2l81,51.9
				C2298.6,3300.1,2311.3,3358,2283.5,3401.4z"/>
			<path class="st12" d="M2478.9,3061.7l-80.7,125.9l-83-53.1c-24.6-15.8-39.3-41.2-42.4-68.1l11.6-18.2
				c7.2-11.2,11.6-23.3,13.6-35.7l114.8,73.6c16.7-26,9.1-60.8-17-77.5L2478.9,3061.7z"/>
			
				<rect x="1632.5" y="4070.8" transform="matrix(0.5394 -0.842 0.842 0.5394 -2688.3 3338.125)" class="st12" width="149.6" height="111.4"/>
			
				<rect x="1870.3" y="3699.4" transform="matrix(0.5394 -0.842 0.842 0.5394 -2266.053 3367.3745)" class="st12" width="149.6" height="111.4"/>
			<path class="st12" d="M2412.9,3086.1l-114.8-73.6c5.6-35.6-9.7-72.8-41.9-93.4l139.8,89.5C2422,3025.3,2429.6,3060,2412.9,3086.1
				z"/>
			<path class="st12" d="M3598.1,978.1l32,146.1l-250,54.8c-20.2,4.4-40.2,0.2-56.4-10.1s-28.3-26.8-32.7-47
				c-8.8-40.3,16.7-80.2,57.1-89.1L3598.1,978.1z"/>
			<path class="st12" d="M2315.3,3134.5l-61-39.1l18.6-29.1C2275.9,3093.4,2290.7,3118.8,2315.3,3134.5z"/>
			
				<rect x="1335.6" y="3639.3" transform="matrix(0.5394 -0.842 0.842 0.5394 -2664.8096 3000.5181)" class="st12" width="149.6" height="593.7"/>
			
				<rect x="1573.5" y="3268" transform="matrix(0.5394 -0.842 0.842 0.5394 -2242.5732 3029.855)" class="st12" width="149.6" height="593.7"/>
			<path class="st12" d="M2174.2,3220.4l-30.3,47.2c-27.8,43.4-85.7,56.1-129.2,28.3l-274.9-176.1c-43.4-27.8-56.1-85.7-28.3-129.1
				l30.3-47.2l63,40.3l-30.3,47.2c-5.6,8.7-3,20.3,5.7,25.8l274.9,176.1c8.7,5.6,20.3,3,25.8-5.7l30.3-47.2L2174.2,3220.4z"/>
			
				<rect x="2108.2" y="3100.4" transform="matrix(0.5394 -0.842 0.842 0.5394 -1636.9642 3282.8665)" class="st12" width="148.4" height="74.8"/>
			<path class="st12" d="M2272.9,3066.4l-18.6,29.1l-63-40.3l30.3-47.2c5.6-8.7,3-20.3-5.7-25.8L1941,2806.1
				c-8.7-5.6-20.3-3-25.8,5.7l-30.3,47.2l-63-40.3l30.3-47.2c27.8-43.4,85.7-56.1,129.2-28.3l274.9,176.1
				c32.2,20.6,47.5,57.9,41.9,93.4l-11.1-7.1C2274.9,3024.2,2270.5,3045.7,2272.9,3066.4z"/>
			<path class="st12" d="M2284.5,3048.2l-11.6,18.2c-2.4-20.6,2.1-42.2,14.1-61l11.1,7.1C2296.1,3024.9,2291.7,3037,2284.5,3048.2z"
				/>
			<path class="st12" d="M1291.1,4540.8l-154,240.2c-3.5,5.5-7.5,10.4-11.8,14.9c7.5-13.2,11.2-28.4,10.4-43.8
				c-1.3-23.3-12.9-44.8-31.3-58.5l123.8-193.2L1291.1,4540.8z"/>
			<path class="st12" d="M1321.3,4493.5l-30.3,47.2l-63-40.3l30.3-47.2c5.6-8.7,3-20.3-5.7-25.8l-222-142.2
				c-8.7-5.5-20.3-3-25.8,5.7l-30.3,47.2l-63-40.3l30.3-47.2c27.8-43.4,85.7-56.1,129.1-28.3l222,142.2
				C1336.4,4392.2,1349.1,4450.1,1321.3,4493.5z"/>
			<path class="st12" d="M1125.3,4795.9c-4.9,8.6-11.4,16.4-19.4,22.8l-356.8,288c-26.4,21.3-63.2,23.5-91.6,5.3
				s-41.8-52.5-33.5-85.4l112.4-444.5c2.5-9.9,6.8-19.1,12.7-27.2c-15.5,40.5-1.1,87.9,36.9,112.2l5.3,3.4L696.6,5045
				c-1,3.8,2.5,6,5.5,3.5l300.6-242.6l5.3,3.4C1045.9,4833.6,1095,4827,1125.3,4795.9z"/>
			<path class="st12" d="M1135.7,4752.1c0.8,15.4-2.9,30.6-10.4,43.8c-30.3,31-79.4,37.7-117.3,13.4l-5.3-3.4l56.2-45.4
				c2.4-2,2.7-5.6,0.6-7l-11.2-7.2c8.7,5.5,20.3,3,25.8-5.7l30.2-47.1C1122.8,4707.4,1134.4,4728.9,1135.7,4752.1z"/>
			<path class="st12" d="M2111.2,3180l-30.3,47.2c-5.6,8.7-17.2,11.2-25.8,5.7l-274.9-176.1c-8.7-5.6-11.2-17.2-5.7-25.8l30.3-47.2
				l63,40.3l180.4,115.6L2111.2,3180z"/>
			
				<rect x="2045.3" y="3060.1" transform="matrix(0.5394 -0.842 0.842 0.5394 -1632.0219 3211.3069)" class="st12" width="148.4" height="74.8"/>
			<path class="st12" d="M2221.5,3007.9l-30.3,47.2l-63-40.3l-180.4-115.6l-63-40.3l30.3-47.2c5.6-8.7,17.2-11.2,25.8-5.7
				l274.9,176.1C2224.5,2987.6,2227.1,2999.2,2221.5,3007.9z"/>
			<path class="st12" d="M1104.3,4693.6l-30.2,47.1c-5.6,8.7-17.2,11.2-25.8,5.7l-222-142.2c-8.7-5.5-11.2-17.2-5.7-25.8l30.2-47.1
				c1.6,0.9,3.1,1.8,4.6,2.7l58.5,37.5l127.5,81.7l58.4,37.4C1101.4,4691.5,1102.9,4692.5,1104.3,4693.6z"/>
			<path class="st12" d="M1228.1,4500.4l-123.8,193.2c-1.4-1.1-2.9-2.1-4.4-3.1l-58.4-37.4l123.7-193L1228.1,4500.4z"/>
			<path class="st12" d="M1258.3,4453.2l-30.3,47.2l-63-40.3l-127.5-81.7l-63-40.3l30.3-47.2c5.5-8.7,17.2-11.2,25.8-5.7l222,142.2
				C1261.3,4432.9,1263.9,4444.5,1258.3,4453.2z"/>
			<path class="st12" d="M1059.5,4753.5c2.2,1.4,1.8,5.1-0.6,7l-56.2,45.4l-66.4-42.5l-78.6-50.4l-66.4-42.5l17.7-70.1
				c0.8-3,4-4.9,6.1-3.5l11.2,7.2l222,142.2L1059.5,4753.5z"/>
			<path class="st12" d="M1002.7,4806l-300.6,242.6c-3,2.4-6.5,0.2-5.5-3.5l94.7-374.5l66.4,42.5l-36.2,143l114.8-92.7L1002.7,4806z
				"/>
			
				<rect x="1923.6" y="2912.4" transform="matrix(0.5394 -0.842 0.842 0.5394 -1622.407 3072.9292)" class="st12" width="148.4" height="214.3"/>
			
				<rect x="924.5" y="4440" transform="matrix(0.5394 -0.842 0.842 0.5394 -3323.7468 2954.8354)" class="st12" width="229.3" height="151.4"/>
			<polygon class="st12" points="936.3,4763.4 821.5,4856.1 857.7,4713 			"/>
			<path class="st12" d="M1037.6,4378.4l-123.7,193l-58.5-37.4c-1.5-1-3.1-1.9-4.6-2.7L974.6,4338L1037.6,4378.4z"/>
			
				<rect x="1801.8" y="2904.1" transform="matrix(0.5394 -0.842 0.842 0.5394 -1612.7898 2934.4683)" class="st12" width="148.4" height="74.8"/>
			<path class="st12" d="M809,4600.5l-17.7,70.1l-5.3-3.4c-38-24.3-52.4-71.6-36.9-112.2c8.8-12.3,21.1-22,35.5-27.7
				c21.7-8.6,46-7,66.2,4l-30.2,47.1c-5.5,8.7-3,20.3,5.7,25.8l-11.2-7.2C813,4595.6,809.8,4597.4,809,4600.5z"/>
			<path class="st12" d="M932,4133.1l139,89c-43.4-27.8-101.3-15.1-129.2,28.3l-30.3,47.2L804,4228.7
				c-43.4-27.8-56.1-85.7-28.3-129.1l218.6-341.3l126,80.7L932,4133.1z"/>
			<path class="st12" d="M974.6,4338l-123.8,193.2c-20.2-11-44.6-12.6-66.2-4c-14.4,5.7-26.6,15.4-35.5,27.7
				c2.2-5.8,5.1-11.5,8.6-17l153.9-240.3L974.6,4338z"/>
			<path class="st12" d="M2810.6,1460l-80.7,125.9l-228-146.1c-34.8-22.3-44.9-68.5-22.6-103.3s68.5-44.9,103.3-22.6L2810.6,1460z"
				/>
			<path class="st12" d="M1758.6,2600.3l222.7,142.7c-43.4-27.8-101.3-15.1-129.2,28.3l-30.3,47.2l-144-92.3L1758.6,2600.3z"/>
			<path class="st12" d="M1739.9,3119.8l-112.5-72.1L1439,3341.8l-125.9-80.7l218.6-341.3c27.8-43.4,85.7-56.1,129.2-28.3l81,51.9
				l-30.3,47.2C1683.8,3034.1,1696.5,3092,1739.9,3119.8z"/>
			
				<rect x="1738.9" y="2863.8" transform="matrix(0.5394 -0.842 0.842 0.5394 -1607.8514 2862.9001)" class="st12" width="148.4" height="74.8"/>
			
				<rect x="1022.7" y="3661" transform="matrix(0.5394 -0.842 0.842 0.5394 -2640.179 2644.7065)" class="st12" width="149.6" height="149.6"/>
			
				<rect x="1070.7" y="3475.2" transform="matrix(0.5394 -0.842 0.842 0.5394 -2429.0034 2659.3328)" class="st12" width="291.4" height="149.6"/>
			
				<rect x="1260.6" y="3289.7" transform="matrix(0.5394 -0.842 0.842 0.5394 -2217.9387 2674.0518)" class="st12" width="149.6" height="149.6"/>
			<path class="st12" d="M1758.6,2600.3l-80.7,125.9c-33.5-21.5-61.9-48.9-84.3-81.6c-21.6-31.5-36.7-66.4-44.9-103.9
				c-8.2-37.4-9.1-75.5-2.6-113.1c6.7-39,21-75.8,42.4-109.3c21.5-33.5,48.9-61.9,81.6-84.3c31.5-21.6,66.4-36.7,103.9-44.9
				c37.4-8.2,75.5-9.1,113.1-2.6c39,6.7,75.8,21,109.3,42.4c-34.8-22.3-81-12.1-103.3,22.6c-22.3,34.8-12.2,81,22.6,103.3
				c-67.7-43.3-158-23.6-201.3,44.1C1671.1,2466.6,1690.9,2556.9,1758.6,2600.3z"/>
			<path class="st12" d="M1996.4,2228.9l-80.7,125.9c-34.8-22.3-44.9-68.5-22.6-103.3C1915.4,2216.8,1961.7,2206.6,1996.4,2228.9z"
				/>
			
				<rect x="959.3" y="3694.8" transform="matrix(0.5394 -0.842 0.842 0.5394 -2635.1543 2572.6753)" class="st12" width="149.6" height="0.8"/>
			
				<rect x="1197.3" y="3323.5" transform="matrix(0.5394 -0.842 0.842 0.5394 -2212.9141 2602.0205)" class="st12" width="149.6" height="0.8"/>
		</g>
	</g>
</g>
<g class="st1">
	<path class="st13" d="M3912.3,5064.3H1757.1c-633.6,0-1152-518.4-1152-1152V1757.1c0-633.6,518.4-1152,1152-1152h2155.2
		c633.6,0,1152,518.4,1152,1152v2155.2C5064.3,4545.9,4545.9,5064.3,3912.3,5064.3z"/>
	<circle class="st14" cx="2834.6" cy="2834.6" r="949.1"/>
	
		<ellipse transform="matrix(0.7071 -0.7071 0.7071 0.7071 54.4444 3319.2405)" class="st15" cx="4033.9" cy="1593.9" rx="250.2" ry="250.2"/>
</g>
<g class="st1">
	<path class="st16" d="M4943.6,2238.7c56.6,48.1,76.6,124.2,51,193.9s-90.1,114.7-164.4,114.7h-159.9v-74.1
		c0-61.3-49.9-111.2-111.2-111.2h243.3l-510-433.3c3.2-9.4,5-19.4,5-29.9v-209.1L4943.6,2238.7z"/>
	<path class="st16" d="M4670.3,2547.3v2540.5c0,61.3-49.9,111.2-111.2,111.2H1161.8c-61.3,0-111.2-49.9-111.2-111.2V2547.3h185.3
		v2466.4h918.9v74.1c0,51.1,41.6,92.7,92.7,92.7h1225.8c51.1,0,92.7-41.6,92.7-92.7v-74.1h918.9V2547.3H4670.3z"/>
	<path class="st16" d="M4670.3,2473.2v74.1H4485H1236h-185.3v-74.1c0-61.3,49.9-111.2,111.2-111.2h3397.3
		C4620.4,2362,4670.3,2411.9,4670.3,2473.2z"/>
	<path class="st16" d="M4297.4,1689.7v209.1c0,10.4-1.7,20.5-5,29.9l-143.3-121.8v-243.2L4297.4,1689.7z"/>
	<path class="st16" d="M4297.4,650.3v1039.4l-148.3-126V705.9h-192.4v694.3l-148.3-126v-624c0-51.1,41.6-92.7,92.7-92.7h303.6
		C4255.8,557.6,4297.4,599.2,4297.4,650.3z"/>
	<polygon class="st16" points="4149.1,1563.7 4149.1,1806.9 3956.7,1643.4 3956.7,1400.2 	"/>
	<polygon class="st16" points="3956.7,1400.2 3956.7,1643.4 3808.4,1517.4 3808.4,1274.2 	"/>
	<path class="st16" d="M3808.4,1274.2v243.2L2797.9,658.9L866.1,2362h295.7c-61.3,0-111.2,49.9-111.2,111.2v74.1H839.1
		c-73.5,0-137.8-44.4-163.8-113.2s-7.2-144.6,48-193.3L2682,514c31.6-27.8,72.1-43.4,114.2-43.8c42.1-0.4,82.9,14.4,115,41.7
		L3808.4,1274.2z"/>
	<path class="st16" d="M3566,5013.7v74.1c0,51.1-41.6,92.7-92.7,92.7H2247.5c-51.1,0-92.7-41.6-92.7-92.7v-74.1h148.3v18.5h1114.6
		v-18.5H3566z"/>
	<path class="st16" d="M3566,3642.5v1371.2h-148.3V3698.1H2303.1v1315.6h-148.3V3642.5c0-51.1,41.6-92.7,92.7-92.7h1225.8
		C3524.4,3549.8,3566,3591.4,3566,3642.5z"/>
	<rect x="2303.1" y="5013.7" class="st16" width="1114.6" height="18.5"/>
	<path class="st16" d="M3247.1,2880.4c21.9,51.8,33,106.8,33,163.4c0,56.6-11.1,111.6-33,163.4c-21.1,50-51.4,94.9-89.9,133.4
		s-83.4,68.8-133.4,89.9c-51.8,21.9-106.8,33-163.4,33c-56.6,0-111.6-11.1-163.4-33c-50-21.1-94.9-51.4-133.4-89.9
		s-68.8-83.4-89.9-133.4c-21.9-51.8-33-106.8-33-163.4c0-56.6,11.1-111.6,33-163.4c21.1-50,51.4-94.9,89.9-133.4
		s83.4-68.8,133.4-89.9c51.8-21.9,106.8-33,163.4-33c56.6,0,111.6,11.1,163.4,33c50,21.1,94.9,51.4,133.4,89.9
		S3226,2830.4,3247.1,2880.4z M3131.9,3043.8c0-149.7-121.8-271.4-271.4-271.4S2589,2894.1,2589,3043.8s121.8,271.4,271.4,271.4
		C3010.1,3315.3,3131.9,3193.5,3131.9,3043.8z"/>
	<path class="st16" d="M3221.4,2880.4c21.9,51.8,33,106.8,33,163.4c0,56.6-11.1,111.6-33,163.4c-21.1,50-51.4,94.9-89.9,133.4
		s-83.4,68.8-133.4,89.9c-51.8,21.9-106.8,33-163.4,33c-56.6,0-111.6-11.1-163.4-33c-50-21.1-94.9-51.4-133.4-89.9
		s-68.8-83.4-89.9-133.4c-21.9-51.8-33-106.8-33-163.4c0-56.6,11.1-111.6,33-163.4c21.1-50,51.4-94.9,89.9-133.4
		s83.4-68.8,133.4-89.9c51.8-21.9,106.8-33,163.4-33c56.6,0,111.6,11.1,163.4,33c50,21.1,94.9,51.4,133.4,89.9
		S3200.2,2830.4,3221.4,2880.4z M3106.1,3043.8c0-149.7-121.8-271.4-271.4-271.4s-271.4,121.8-271.4,271.4s121.8,271.4,271.4,271.4
		C2984.3,3315.3,3106.1,3193.5,3106.1,3043.8z"/>
	<path class="st16" d="M2497,4253.7c81.4,0,147.7,66.3,147.7,147.7c0,81.4-66.3,147.7-147.7,147.7s-147.7-66.3-147.7-147.7
		S2415.5,4253.7,2497,4253.7z M2570.5,4401.4c0-40.6-32.9-73.6-73.6-73.6s-73.6,32.9-73.6,73.6c0,40.6,32.9,73.5,73.6,73.5
		S2570.5,4442,2570.5,4401.4z"/>
	<path class="st16" d="M2497,4327.8c40.6,0,73.6,32.9,73.6,73.6c0,40.6-32.9,73.5-73.6,73.5s-73.6-32.9-73.6-73.5
		C2423.4,4360.7,2456.3,4327.8,2497,4327.8z M2497,4401.9c0.3,0,0.5-0.2,0.5-0.6c0-0.3-0.2-0.5-0.6-0.5c-0.3,0-0.5,0.2-0.5,0.6
		C2496.4,4401.7,2496.6,4401.9,2497,4401.9z"/>
	<path class="st16" d="M2497.6,4401.3c0,0.4-0.2,0.6-0.5,0.6c-0.4,0-0.6-0.2-0.6-0.6s0.2-0.6,0.5-0.6
		C2497.3,4400.8,2497.5,4401,2497.6,4401.3z"/>
</g>
<g class="st1">
	<g class="st2">
		<g id="XMLID_4_">
			<g>
				<path class="st12" d="M4606.5,2642.9c12.5,29.4,18.8,60.7,18.8,92.8s-6.3,63.4-18.8,92.8c-12,28.4-29.2,53.9-51.1,75.8
					c-21.9,21.9-47.4,39.1-75.8,51.1c-29.4,12.4-60.7,18.8-92.8,18.8c-32.1,0-63.4-6.3-92.8-18.8c-28.4-12-53.9-29.2-75.8-51.1
					c-21.9-21.9-39-47.4-51.1-75.8c-12.5-29.4-18.8-60.7-18.8-92.8s6.3-63.4,18.8-92.8c12-28.4,29.2-53.9,51.1-75.8
					c21.9-21.9,47.4-39.1,75.8-51.1c29.4-12.4,60.7-18.8,92.8-18.8s63.4,6.3,92.8,18.8c28.4,12,53.9,29.2,75.8,51.1
					C4577.3,2589.1,4594.5,2614.5,4606.5,2642.9z M4552.6,2735.8c0-91.6-74.2-165.8-165.8-165.8c-91.6,0-165.8,74.2-165.8,165.8
					s74.2,165.8,165.8,165.8C4478.4,2901.5,4552.6,2827.3,4552.6,2735.8z"/>
				<path class="st12" d="M4386.8,2570c91.6,0,165.8,74.2,165.8,165.8s-74.2,165.8-165.8,165.8c-91.6,0-165.8-74.2-165.8-165.8
					S4295.3,2570,4386.8,2570z M4480,2735.8c0-51.4-41.8-93.1-93.1-93.1s-93.1,41.8-93.1,93.1c0,51.4,41.8,93.1,93.1,93.1
					C4438.2,2828.9,4480,2787.1,4480,2735.8z"/>
				<path class="st12" d="M4386.8,2642.6c51.4,0,93.1,41.8,93.1,93.1c0,51.4-41.8,93.1-93.1,93.1s-93.1-41.8-93.1-93.1
					C4293.7,2684.4,4335.5,2642.6,4386.8,2642.6z"/>
				<path class="st12" d="M4362.4,3671.2c12.5,29.4,18.8,60.7,18.8,92.8s-6.3,63.4-18.8,92.8c-12,28.4-29.2,53.9-51.1,75.8
					c-21.9,21.9-47.4,39.1-75.8,51.1c-29.4,12.4-60.7,18.8-92.8,18.8s-63.4-6.3-92.8-18.8c-28.4-12-53.9-29.2-75.8-51.1
					c-21.9-21.9-39.1-47.4-51.1-75.8c-12.4-29.4-18.8-60.7-18.8-92.8s6.3-63.4,18.8-92.8c12-28.4,29.2-53.9,51.1-75.8
					c21.9-21.9,47.4-39.1,75.8-51.1c29.4-12.4,60.7-18.8,92.8-18.8s63.4,6.3,92.8,18.8c28.4,12,53.9,29.2,75.8,51.1
					C4333.2,3617.3,4350.4,3642.8,4362.4,3671.2z M4308.5,3764c0-91.6-74.2-165.8-165.8-165.8c-91.6,0-165.8,74.2-165.8,165.8
					s74.2,165.8,165.8,165.8C4234.3,3929.8,4308.5,3855.6,4308.5,3764z"/>
				<path class="st12" d="M4142.8,3598.2c91.6,0,165.8,74.2,165.8,165.8s-74.2,165.8-165.8,165.8c-91.6,0-165.8-74.2-165.8-165.8
					S4051.2,3598.2,4142.8,3598.2z M4235.9,3764c0-51.4-41.8-93.1-93.1-93.1s-93.1,41.8-93.1,93.1c0,51.4,41.8,93.1,93.1,93.1
					C4194.1,3857.2,4235.9,3815.4,4235.9,3764z"/>
				<path class="st12" d="M4142.8,3670.9c51.4,0,93.1,41.8,93.1,93.1c0,51.4-41.8,93.1-93.1,93.1s-93.1-41.8-93.1-93.1
					C4049.6,3712.7,4091.4,3670.9,4142.8,3670.9z"/>
				<path class="st12" d="M4073.5,4732L4073.5,4732L4073.5,4732C4073.5,4732,4073.6,4732,4073.5,4732L4073.5,4732
					c2-1.4,48.8-33.6,119.3-92.8c65.9-55.3,166.7-146.1,272.5-264.7c184.7-207,421.3-541,499-956.5
					c84.8-452.9-32.4-916-348.1-1376.6C3993.3,1132.9,3061.8,953,2562,926.6c-220.9-11.7-440.6,1.1-649.2,37.2
					c-8.3-64.7-17.1-124.6-26.4-179.5c43-7.3,86.4-13.8,130.3-19.3c182.1-22.9,368.8-29.5,554.9-19.7
					c201.6,10.7,401.3,40.6,593.4,89c205.3,51.7,402.6,124.7,586.5,216.9c197,98.8,380.5,220.9,545.5,362.7
					c86.6,74.5,169.5,155.6,246.3,241.2c79.4,88.4,154.3,183.8,222.7,283.6c93.3,136,171.5,274.4,232.7,411.4
					c58,129.9,102.1,261.9,131,392.2c27.2,122.6,41.7,246.8,43,369.1c1.2,113.9-8.9,228.8-30.1,341.6
					c-38.2,202.9-113,404.5-222.4,599.2c-86.9,154.6-195.6,305.2-323.3,447.7c-212.9,237.6-405.2,371.4-420.4,381.8
					c-7,5-63.9,44.7-153.1,99.6c-86,52.9-219.9,130.4-369.1,199.6c-170.4,79-326.1,131.3-462.8,155.6
					c-59.7,10.6-116.4,15.9-169.5,15.9c-22.1,0-43.5-0.9-64.3-2.8c-82-7.3-155.4-29.1-218.1-64.9
					c-100.4-57.2-173.5-149.2-217.3-273.3c-22.1-62.7-37-134.7-44.2-214.2c-7.3-80.5-6.9-171.3,1.1-269.6
					c33.6-412-58.3-741.4-272.9-979.1c-76.2-84.4-162.7-151.1-250.2-203.7c4.6-65.3,8.8-132.5,12.4-201.3c10.1,5.2,20.1,10.6,30,16
					c132.6,72.6,247.8,162.5,342.5,267.4c116.3,128.8,202.8,281.5,256.9,453.8c29.8,94.6,50.2,196.7,60.8,303.4
					c11.1,112.4,11.6,233,1.4,358.4c-13.8,169.4-2.6,306.8,33.3,408.6c29.3,82.9,73.7,140.5,136,176c79.1,45.1,189.8,55.5,329.1,31
					c121-21.3,261.3-68.6,417.1-140.7c141.2-65.3,268.5-138.9,350.5-189.2c89.3-54.8,145.7-94.5,146.2-94.9L4073.5,4732z"/>
				<path class="st12" d="M3878.1,1885.4c12.5,29.4,18.8,60.7,18.8,92.8c0,32.2-6.3,63.4-18.8,92.8c-12,28.4-29.2,53.9-51.1,75.8
					c-21.9,21.9-47.4,39.1-75.8,51.1c-29.4,12.5-60.7,18.8-92.8,18.8s-63.4-6.3-92.8-18.8c-28.4-12-53.9-29.2-75.8-51.1
					c-21.9-21.9-39.1-47.4-51.1-75.8c-12.5-29.4-18.8-60.7-18.8-92.8c0-32.2,6.3-63.4,18.8-92.8c12-28.4,29.2-53.9,51.1-75.8
					c21.9-21.9,47.4-39.1,75.8-51.1c29.4-12.4,60.7-18.8,92.8-18.8s63.4,6.3,92.8,18.8c28.4,12,53.9,29.2,75.8,51.1
					C3848.9,1831.5,3866.1,1857,3878.1,1885.4z M3824.3,1978.2c0-91.6-74.2-165.8-165.8-165.8s-165.8,74.2-165.8,165.8
					s74.2,165.8,165.8,165.8C3750,2144,3824.3,2069.7,3824.3,1978.2z"/>
				<path class="st12" d="M3658.5,1812.4c91.6,0,165.8,74.2,165.8,165.8c0,91.6-74.2,165.8-165.8,165.8s-165.8-74.2-165.8-165.8
					C3492.7,1886.6,3566.9,1812.4,3658.5,1812.4z M3751.6,1978.2c0-51.4-41.8-93.2-93.1-93.2c-51.4,0-93.1,41.8-93.1,93.2
					c0,51.4,41.8,93.1,93.1,93.1S3751.6,2029.6,3751.6,1978.2z"/>
				<path class="st12" d="M3658.5,1885c51.4,0,93.1,41.8,93.1,93.2c0,51.4-41.8,93.2-93.1,93.2c-51.4,0-93.1-41.8-93.1-93.2
					C3565.3,1926.8,3607.1,1885,3658.5,1885z"/>
				<path class="st12" d="M3546.6,4355.2c12.5,29.4,18.8,60.7,18.8,92.8s-6.3,63.4-18.8,92.8c-12,28.4-29.2,53.9-51.1,75.8
					c-21.9,21.9-47.4,39-75.8,51.1c-29.4,12.5-60.7,18.8-92.8,18.8s-63.4-6.3-92.8-18.8c-28.4-12-53.9-29.2-75.8-51.1
					c-21.9-21.9-39.1-47.4-51.1-75.8c-12.4-29.4-18.8-60.7-18.8-92.8s6.3-63.4,18.8-92.8c12-28.4,29.2-53.9,51.1-75.8
					c21.9-21.9,47.4-39,75.8-51.1c29.4-12.5,60.7-18.8,92.8-18.8s63.4,6.3,92.8,18.8c28.4,12,53.9,29.2,75.8,51.1
					C3517.4,4301.3,3534.5,4326.8,3546.6,4355.2z M3492.7,4448c0-91.6-74.2-165.8-165.8-165.8s-165.8,74.2-165.8,165.8
					s74.2,165.8,165.8,165.8S3492.7,4539.6,3492.7,4448z"/>
				<path class="st12" d="M3326.9,4282.3c91.6,0,165.8,74.2,165.8,165.8s-74.2,165.8-165.8,165.8s-165.8-74.2-165.8-165.8
					S3235.4,4282.3,3326.9,4282.3z M3420.1,4448c0-51.4-41.8-93.1-93.1-93.1s-93.1,41.8-93.1,93.1s41.8,93.1,93.1,93.1
					S3420.1,4499.4,3420.1,4448z"/>
				<path class="st12" d="M3326.9,4354.9c51.4,0,93.1,41.8,93.1,93.1s-41.8,93.1-93.1,93.1s-93.1-41.8-93.1-93.1
					C3233.8,4396.7,3275.6,4354.9,3326.9,4354.9z"/>
				<path class="st12" d="M3026.9,1465.9c12.5,29.4,18.8,60.7,18.8,92.8s-6.3,63.4-18.8,92.8c-12,28.4-29.2,53.9-51.1,75.8
					c-21.9,21.9-47.4,39.1-75.8,51.1c-29.4,12.4-60.7,18.8-92.8,18.8s-63.4-6.3-92.8-18.8c-28.4-12-53.9-29.2-75.8-51.1
					c-21.9-21.9-39.1-47.4-51.1-75.8c-12.5-29.4-18.8-60.7-18.8-92.8s6.3-63.4,18.8-92.8c12-28.4,29.2-53.9,51.1-75.8
					c21.9-21.9,47.4-39.1,75.8-51.1c29.4-12.4,60.7-18.8,92.8-18.8s63.4,6.3,92.8,18.8c28.4,12,53.9,29.2,75.8,51.1
					S3014.9,1437.5,3026.9,1465.9z M2973.1,1558.7c0-91.6-74.2-165.8-165.8-165.8s-165.8,74.2-165.8,165.8
					c0,91.6,74.2,165.8,165.8,165.8C2898.9,1724.5,2973.1,1650.3,2973.1,1558.7z"/>
				<path class="st12" d="M2807.3,1392.9c91.6,0,165.8,74.2,165.8,165.8c0,91.6-74.2,165.8-165.8,165.8s-165.8-74.2-165.8-165.8
					C2641.5,1467.2,2715.7,1392.9,2807.3,1392.9z M2900.4,1558.7c0-51.4-41.8-93.2-93.1-93.2c-51.4,0-93.1,41.8-93.1,93.2
					s41.8,93.2,93.1,93.2S2900.4,1610.1,2900.4,1558.7z"/>
				<path class="st12" d="M2807.3,1465.6c51.4,0,93.1,41.8,93.1,93.2s-41.8,93.2-93.1,93.2c-51.4,0-93.1-41.8-93.1-93.2
					S2755.9,1465.6,2807.3,1465.6z"/>
				<path class="st12" d="M2086.2,4359.9c0,1,0,1.9,0,2.9c-0.4,60.4-12.4,119-35.8,174.3c-22.9,54.2-55.7,102.9-97.5,144.6
					c-17.8,17.9-36.9,34.1-57.2,48.5c30.1-105.6,45.2-229.3,45.2-370.3H2086.2L2086.2,4359.9z"/>
				<path class="st12" d="M2086.2,4359.9h-145.3c0-84.4-33.9-161.1-88.9-217c11.4-47.5,22.3-101.2,32.6-161
					c24.4,16.4,47.2,35.2,68.3,56.2c41.8,41.8,74.6,90.4,97.5,144.6C2074.2,4238.9,2086.2,4298.5,2086.2,4359.9z"/>
				<path class="st12" d="M2086.2,4362.8c-0.1,104.2-8.1,201.5-23.8,289.4c-15.1,84.8-37.8,163.1-67.3,232.7
					c-54.7,128.8-134.3,231.9-236.8,306.4c-79.1,57.5-172.2,98.2-276.6,120.9c-66.4,14.5-137.7,21.7-212.5,21.7
					c-19.3,0-38.9-0.5-58.7-1.5c-165.8-8.1-299.5-47.9-336.5-59.9c-34.4-11.2-55.6-45.2-50.4-81c5.2-35.8,35.2-62.4,71.4-63.3
					c57.9-1.5,105.4-23.7,145.3-67.9c69.5-77.1,115.3-219.6,132.5-412c9-100.7,7.7-191.2,5.8-241.4c4.6,44.8,15.8,88.4,33.4,130.1
					c22.9,54.2,55.7,102.9,97.5,144.6c1.8,1.8,3.6,3.6,5.5,5.4c-9,86.5-23.7,164.8-43.9,233.3c-29.3,99.5-70.6,179.3-122.8,237.2
					c-6.8,7.6-13.9,14.9-21.2,21.8c159.3,20.3,377.8,16.7,545.9-105.4c105-76.4,179.5-191.3,222.8-343.6
					c20.3-14.5,39.4-30.7,57.2-48.5c41.8-41.8,74.6-90.4,97.5-144.6C2073.8,4481.8,2085.8,4423.2,2086.2,4362.8z"/>
				<path class="st12" d="M1914.1,973.5c47.6,375.8,73.8,874.5,73.8,1404.4c0,266.9-6.7,525.9-19.3,765.3
					c-56.5-29.2-116-55.4-178-78.4c0.5-10.9,1-21.8,1.5-32.7h96.2v-145.3h-90.4c5.6-164.6,8.5-335.5,8.5-508.9
					c0-478.1-22-938-62.1-1294.9c-3.2-28.2-6.4-55.6-9.8-82.2c58.4-14.3,117.9-26.7,178.3-37.2
					C1913.3,967,1913.7,970.3,1914.1,973.5z"/>
				<path class="st12" d="M1968.6,3143.3c-3.7,68.8-7.8,136-12.4,201.3c-59.2-35.6-118.9-64.8-176.1-88.7c4-62.2,7.5-126,10.6-191.1
					C1852.6,3087.9,1912.1,3114.1,1968.6,3143.3z"/>
				<path class="st12" d="M1956.2,3344.6c-11.2,158.5-25.3,305.8-42.1,437.8c-9.2,72.5-19,139.1-29.4,199.5
					c-24-16.1-49.5-29.9-76.4-41.3c-31.1-13.1-63.2-22.7-96.1-28.6c11.5-71.4,22.2-151.3,32-239.2c14.3-127.2,26.2-267.4,35.8-416.9
					C1837.3,3279.8,1896.9,3309,1956.2,3344.6z"/>
				<path class="st12" d="M1888.3,2886.9v145.3h-96.2c2.2-47.8,4.1-96.2,5.7-145.3H1888.3z"/>
				<path class="st12" d="M1886.4,784.2c9.3,54.9,18.1,114.8,26.4,179.5c-60.4,10.4-119.9,22.8-178.3,37.2
					c-8.2-65.3-16.9-125.5-26.1-180.4C1766.6,806.6,1826,794.5,1886.4,784.2z"/>
				<path class="st12" d="M1831.6,536.7c19.7,65.7,38,148.5,54.8,247.5c-60.4,10.3-119.8,22.4-178,36.3
					c-9.8-58.8-20.2-111.4-31.1-157.7c-10.8-46-20.9-80.3-29.7-105.7c-8.8,25.4-18.9,59.8-29.8,105.7
					c-12.9,54.9-25.2,118.9-36.6,191.3c-22.1,6.4-43.9,13.1-65.6,20.1c-43.7,14-86.2,29-127.5,44.9
					c21.9-160.3,47.2-288.8,75.3-382.4c17.6-58.7,36.1-103.4,56.6-136.5c13.8-22.3,28.6-39.6,45.2-52.9c24.6-19.7,53-30.1,82.3-30.1
					s57.7,10.4,82.3,30.1c16.6,13.3,31.4,30.6,45.2,52.9C1795.5,433.3,1814,478,1831.6,536.7z"/>
				<path class="st12" d="M1884.7,3981.9c-10.3,59.8-21.2,113.5-32.6,161c-44.1-44.9-101.8-76.5-166.2-88c9.2-43,18-90.7,26.4-142.9
					c32.9,5.9,65,15.5,96.1,28.6C1835.2,3952,1860.7,3965.8,1884.7,3981.9z"/>
				<path class="st12" d="M1497.2,2886.9h300.7c-1.7,49-3.6,97.5-5.7,145.3h-98.3c-13.3-4.1-26.6-7.9-40-11.7
					c-55-15.4-106.5-27-152.9-35.8C1499.5,2952.4,1498.3,2919.8,1497.2,2886.9z"/>
				<path class="st12" d="M1693.8,3032.2h-190.9c-0.7-15.8-1.4-31.6-2.1-47.5c46.3,8.8,97.9,20.4,152.9,35.8
					C1667.2,3024.2,1680.5,3028.1,1693.8,3032.2z"/>
				<path class="st12" d="M1712.3,3912.1c-8.4,52.2-17.2,99.9-26.4,142.9c-17.8-3.2-36-4.8-54.7-4.8c-7.7,0-15.3,0.3-22.8,0.8
					c-9.2-43.2-17.9-91.1-26.3-143.5c16.2-1.7,32.6-2.6,49.1-2.6C1658.6,3904.9,1685.7,3907.3,1712.3,3912.1z"/>
				<path class="st12" d="M1582.1,3907.5c8.4,52.4,17.1,100.3,26.3,143.5c-64.5,4.7-123.5,29.3-171.1,67.5
					c-10.5-46.3-20.5-97.9-30-154.8c15.1-8.5,30.7-16.2,46.7-23C1495.1,3923.3,1537.9,3912.2,1582.1,3907.5z"/>
				<path class="st12" d="M1550.7,3672.9c9.6,86,20.1,164.3,31.3,234.6c-44.1,4.7-87,15.8-128.1,33.2c-16.1,6.8-31.7,14.5-46.7,23
					c-9.3-55.5-18.1-115.9-26.3-181.2c-23.7-186.6-42-403.6-54.5-639.7c42.3,4,106.4,12.3,183.5,29.1
					C1520.1,3352.9,1533.8,3522.1,1550.7,3672.9z"/>
				<path class="st12" d="M1581.2,854.1c-9.5,60.3-18.5,126.6-26.9,198.4c-66.9,22.1-130.7,46.6-190.7,73.3
					c5.4-52.7,11.3-103.6,17.4-152.3c2.3-18.5,4.7-36.7,7.2-54.4c41.3-15.9,83.8-30.9,127.5-44.9
					C1537.2,867.2,1559.1,860.5,1581.2,854.1z"/>
				<path class="st12" d="M1554.2,1052.5c-1.2,10.1-2.3,20.3-3.5,30.6c-40,356.9-62.1,816.8-62.1,1294.9
					c0,173.4,2.9,344.4,8.5,508.9h-88.2v82.7c-37.3-5.1-68.3-8.1-90.9-9.8c-7.2-186.2-10.9-381.8-10.9-581.8
					c0-461.1,19.9-898.7,56.4-1252.1C1423.6,1099.2,1487.3,1074.6,1554.2,1052.5z"/>
				<path class="st12" d="M1502.9,3032.2c2.1,47.2,4.5,93.8,7,139.6c-77.1-16.8-141.3-25-183.5-29.1c-3.2-59.8-6-120.9-8.4-182.9
					c22.7,1.7,53.6,4.7,90.9,9.8v62.6L1502.9,3032.2L1502.9,3032.2z"/>
				<path class="st12" d="M1502.9,3032.2H1409v-62.6c27.4,3.8,58.3,8.6,91.9,15C1501.5,3000.6,1502.2,3016.4,1502.9,3032.2z"/>
				<path class="st12" d="M1497.2,2886.9c1.1,32.8,2.3,65.4,3.7,97.7c-33.6-6.4-64.5-11.3-91.9-15v-82.7H1497.2z"/>
				<path class="st12" d="M1388.1,919.1c-2.4,17.8-4.8,35.9-7.2,54.4c-6.2,48.8-12,99.6-17.4,152.4
					c-187.1,83.2-338.2,187.4-436.4,302.4c-322.5,377.9-262.8,758.1-198.4,951c96.7,290,319.8,521.3,556.9,578.4
					c7.3,0.3,18.2,0.9,32.4,2c2.4,62.1,5.2,123.1,8.4,182.9c-34.3-3.3-54.2-3.8-54.7-3.8l-9.1-0.2l-8.9-2
					c-75.4-16.9-150.4-47.2-222.9-90.1c-69.8-41.3-136.1-93.5-197.2-155.2c-60.7-61.4-115.2-131-161.8-207.1
					c-47.7-77.8-86.5-161.1-115.4-247.7c-29.3-87.8-48-178.3-55.8-269.1c-8.2-95.9-4.1-192.2,12.3-286.1
					c17.3-99.6,48.5-197.3,92.7-290.4c46.6-98.3,108.3-192.8,183.5-280.8c78.3-91.8,181.9-176.3,307.7-251.2
					C1184.8,1006.8,1282.4,959.9,1388.1,919.1z"/>
				<path class="st12" d="M1323.5,4396.3c2.2,53.2,3.8,151.2-5.9,262.6c-0.8,9.5-1.7,18.9-2.7,28.1c-1.8-1.8-3.7-3.6-5.5-5.4
					c-41.8-41.8-74.6-90.4-97.5-144.6c-17.6-41.7-28.8-85.3-33.4-130.1c-1-25.8-2.1-40.9-2.2-41.4l144.8-11.5c0,0.4,0.1,1.5,0.2,3.2
					c0,0.8,0,1.7,0,2.5C1321.3,4372.2,1322.1,4384.4,1323.5,4396.3z"/>
				<path class="st12" d="M1321.4,4357.4c0.4,5.9,1.3,19.4,2.1,38.9c-1.4-11.9-2.1-24.1-2.1-36.4
					C1321.3,4359.1,1321.3,4358.3,1321.4,4357.4z"/>
				<path class="st12" d="M1176.3,4365.6c0,0.4,1.2,15.6,2.2,41.4c-1.6-15.5-2.4-31.3-2.4-47.1c0-61.4,12-121,35.8-177.2
					c22.9-54.2,55.7-102.9,97.5-144.6c29.4-29.4,62.2-54.3,97.9-74.5c9.5,56.9,19.5,108.6,30,154.8c-70,56.3-115.1,142.5-115.9,239
					c-0.1-1.7-0.2-2.8-0.2-3.2L1176.3,4365.6z"/>
			</g>
		</g>
	</g>
</g>
<g id="XMLID_1_" class="st1">
	<g class="st2">
		<path class="st12" d="M5195.8,1397.5v2906.8c0,70.9-57.6,128.5-128.5,128.5H602c-70.9,0-128.5-57.6-128.5-128.5V1397.5
			l214.2,139.7v2681.5h4294V1537.1L5195.8,1397.5z"/>
		<path class="st12" d="M5195.8,1365v32.5l-214.2,139.7v-86.4h-181.2H868.9H687.7v86.4l-214.2-139.7V1365
			c0-32.9,12.4-62.9,32.8-85.7H5163C5183.4,1302.1,5195.8,1332.1,5195.8,1365z"/>
		<path class="st12" d="M5163,1279.3H506.3c23.6-26.3,57.7-42.8,95.7-42.8h4465.3C5105.3,1236.5,5139.5,1253.1,5163,1279.3z"/>
		<path class="st12" d="M4981.6,1450.7v86.4l-2053,1338.6c-28.5,18.6-61.2,27.9-93.9,27.9s-65.4-9.3-93.9-27.9L687.7,1537.1v-86.4
			h181.2l1965.5,1281.5c0.2,0.1,0.4,0.1,0.6,0l1965.5-1281.4L4981.6,1450.7L4981.6,1450.7z"/>
	</g>
</g>
<g class="st1">
	<ellipse class="st16" cx="2045.4" cy="4797.3" rx="462" ry="465.8"/>
	<ellipse class="st16" cx="3833.1" cy="4797.3" rx="462" ry="465.8"/>
	<ellipse class="st17" cx="2939.2" cy="4113.3" rx="1658.8" ry="195.5"/>
	<polygon class="st18" points="4295.1,3837.3 1583.4,3837.3 1280.4,1388.1 5047.4,1388.1 	"/>
	<polyline class="st18" points="1583.4,3837.3 1216.3,869.7 461.2,880.8 	"/>
	<line class="st19" x1="2619.5" y1="3837.3" x2="2395.3" y2="1388.1"/>
	<line class="st19" x1="3525" y1="3837.3" x2="3833.1" y2="1388.1"/>
	<line class="st19" x1="1426.4" y1="2568" x2="4671.2" y2="2568"/>
</g>
<g class="st1">
	<path class="st16" d="M4727.3,3416.3v39.2c0,55.2-44.8,100-100,100s-100-44.8-100-100v-39.2H4727.3z"/>
	<path class="st16" d="M4527.3,3455.5c0,55.2,44.8,100,100,100s100-44.8,100-100v-39.2h60.9c69,0,125,56,125,125s-56,125-125,125
		h-628.7c70.7,0,130.1-49.2,145.9-115.1l56.5-134.9h165.4L4527.3,3455.5L4527.3,3455.5z"/>
	<path class="st16" d="M4392.9,4430.1c21.9,51.7,32.9,106.5,32.9,163s-11.1,111.3-32.9,163c-21.1,49.9-51.3,94.6-89.7,133.1
		c-38.4,38.4-83.2,68.6-133.1,89.7c-51.7,21.9-106.5,32.9-163,32.9s-111.3-11.1-163-32.9c-49.9-21.1-94.6-51.3-133.1-89.7
		c-38.4-38.4-68.6-83.2-89.7-133.1c-21.9-51.7-32.9-106.5-32.9-163s11.1-111.3,32.9-163c21.1-49.9,51.3-94.7,89.7-133.1
		s83.2-68.6,133.1-89.7c17.2-7.3,34.7-13.3,52.5-18.2h221.1c17.8,4.9,35.3,10.9,52.5,18.2c49.9,21.1,94.6,51.3,133.1,89.7
		C4341.6,4335.5,4371.8,4380.3,4392.9,4430.1z M4279.6,4593.1c0-150.2-122.2-272.5-272.4-272.5s-272.5,122.2-272.5,272.5
		s122.2,272.5,272.5,272.5C4157.5,4865.6,4279.6,4743.4,4279.6,4593.1z"/>
	<path class="st16" d="M4304.2,3416.3v39.2c0,55.2-44.8,100-100,100s-100-44.8-100-100v-39.2H4304.2z"/>
	<path class="st16" d="M4007.1,4322.7c149.1,0,270.4,121.3,270.4,270.5s-121.3,270.5-270.4,270.5s-270.5-121.3-270.5-270.5
		S3858,4322.7,4007.1,4322.7z"/>
	<path class="st16" d="M4266,4262.7c-1.2-1-2.5-1.9-3.7-2.9c0.3,0.2,0.6,0.4,0.9,0.7C4264.1,4261.2,4265,4261.9,4266,4262.7z"/>
	<path class="st16" d="M4262.3,4926.4c1.2-0.9,2.4-1.8,3.6-2.8C4264.7,4924.6,4263.5,4925.5,4262.3,4926.4z"/>
	<path class="st16" d="M4261.7,4259.4c-1.2-0.9-2.5-1.9-3.7-2.8C4259.2,4257.5,4260.5,4258.4,4261.7,4259.4z"/>
	<path class="st16" d="M4257.9,4929.8c-1.3,1-2.6,2-4,2.9C4255.3,4931.8,4256.6,4930.8,4257.9,4929.8z"/>
	<path class="st16" d="M4245.7,4247.7c-1.1-0.8-2.3-1.6-3.4-2.4C4243.4,4246.1,4244.5,4246.9,4245.7,4247.7z"/>
	<path class="st16" d="M4243.3,4940.2c-0.5,0.3-0.9,0.6-1.4,0.9C4242.4,4940.8,4242.8,4940.5,4243.3,4940.2z"/>
	<path class="st16" d="M4234,4239.9c0.8,0.5,1.7,1.1,2.5,1.6C4235.6,4240.9,4234.8,4240.4,4234,4239.9z"/>
	<path class="st16" d="M4229.7,4237.2c-0.3-0.2-0.6-0.4-0.9-0.5c-0.1-0.1-0.3-0.2-0.4-0.2
		C4228.9,4236.6,4229.3,4236.9,4229.7,4237.2z"/>
	<path class="st16" d="M4224.5,4952.3c-1.4,0.9-2.9,1.7-4.3,2.6C4221.7,4954,4223.1,4953.1,4224.5,4952.3z"/>
	<path class="st16" d="M4213.1,4227.3c0.9,0.5,1.9,1,2.8,1.6C4214.9,4228.4,4214,4227.8,4213.1,4227.3z"/>
	<path class="st16" d="M4209.6,4225.4c1.1,0.6,2.3,1.3,3.4,1.9C4211.9,4226.6,4210.8,4226,4209.6,4225.4z"/>
	<path class="st16" d="M3258,3455.5c0,55.2,44.8,100,100,100s100-44.8,100-100v-39.2h223.1v39.2c0,55.2,44.8,100,100,100
		s100-44.8,100-100v-39.2h209.8h13.3v39.2c0,55.2,44.8,100,100,100s100-44.8,100-100v-39.2h57.7l-56.5,134.9
		c-15.8,65.9-75.2,115.1-145.9,115.1H1980.4c-78.7,0-143.5-61-149.5-138.1l-15.2-111.9h172.9v39.2c0,55.2,44.8,100,100,100
		s100-44.8,100-100v-39.2h223.1v39.2c0,55.2,44.8,100,100,100s100-44.8,100-100v-39.2h223.1v39.2c0,55.2,44.8,100,100,100
		s100-44.8,100-100v-39.2H3258V3455.5z"/>
	<path class="st16" d="M4202.6,4964.6c0.7-0.4,1.5-0.8,2.2-1.2C4204.1,4963.9,4203.4,4964.3,4202.6,4964.6z"/>
	<path class="st16" d="M4193.6,4969.3c-0.3,0.1-0.5,0.3-0.8,0.4C4193,4969.5,4193.3,4969.4,4193.6,4969.3z"/>
	<path class="st16" d="M4183.1,4212c0.9,0.4,1.9,0.9,2.8,1.3C4185,4212.9,4184.1,4212.4,4183.1,4212z"/>
	<path class="st16" d="M4178.5,4209.9L4178.5,4209.9c-0.2-0.1-0.4-0.2-0.7-0.3C4178,4209.7,4178.3,4209.8,4178.5,4209.9z"/>
	<path class="st16" d="M4166.1,4204.6c0.4,0.2,0.9,0.4,1.3,0.5C4167,4204.9,4166.5,4204.8,4166.1,4204.6z"/>
	<path class="st16" d="M4166.1,4204.6c-0.1-0.1-0.3-0.1-0.4-0.2C4165.8,4204.4,4165.9,4204.5,4166.1,4204.6L4166.1,4204.6z"/>
	<path class="st16" d="M4148.3,4988.5c-0.8,0.3-1.5,0.5-2.3,0.8C4146.8,4989,4147.5,4988.8,4148.3,4988.5z"/>
	<path class="st16" d="M4137.2,4194c0.6,0.2,1.2,0.4,1.8,0.6c0.4,0.1,0.8,0.2,1.1,0.4C4139.1,4194.6,4138.2,4194.3,4137.2,4194z"/>
	<path class="st16" d="M4116.1,4187.7c1.7,0.5,3.4,0.9,5,1.4C4119.4,4188.6,4117.7,4188.1,4116.1,4187.7z"/>
	<path class="st16" d="M4007.1,4174.4c37.7,0,74.7,4.9,110.5,14.7h-221.1C3932.4,4179.4,3969.4,4174.4,4007.1,4174.4z"/>
	<polygon class="st16" points="4104.2,3384.4 4104.2,3416.3 4090.9,3416.3 	"/>
	<path class="st16" d="M4072.7,4178.5c0.8,0.1,1.5,0.2,2.3,0.4C4074.2,4178.7,4073.4,4178.6,4072.7,4178.5z"/>
	<path class="st16" d="M4050,4175.6c1.5,0.1,3,0.3,4.5,0.5C4053,4175.9,4051.5,4175.7,4050,4175.6z"/>
	<path class="st16" d="M4042.9,4174.9c-1.2-0.1-2.4-0.2-3.6-0.3C4040.5,4174.7,4041.7,4174.8,4042.9,4174.9z"/>
	<path class="st16" d="M4033.1,4174.2c-1.6-0.1-3.2-0.2-4.8-0.3C4029.9,4174,4031.5,4174.1,4033.1,4174.2z"/>
	<path class="st16" d="M4028.3,4173.9c-1.7-0.1-3.3-0.1-5-0.2C4025,4173.8,4026.6,4173.8,4028.3,4173.9z"/>
	<path class="st16" d="M3996,4173.6c-1.1,0-2.2,0-3.3,0.1C3993.9,4173.6,3994.9,4173.6,3996,4173.6z"/>
	<path class="st16" d="M3991,4173.7c-1.7,0.1-3.3,0.1-5,0.2C3987.6,4173.8,3989.3,4173.8,3991,4173.7z"/>
	<path class="st16" d="M3986,4173.9c-1.3,0.1-2.6,0.1-3.9,0.2C3983.3,4174.1,3984.6,4174,3986,4173.9z"/>
	<path class="st16" d="M3970.6,4175c1.4-0.1,2.9-0.3,4.3-0.3C3973.5,4174.7,3972,4174.9,3970.6,4175z"/>
	<path class="st16" d="M3970.1,4175c-1.7,0.1-3.4,0.3-5.1,0.5C3966.7,4175.3,3968.4,4175.1,3970.1,4175z"/>
	<path class="st16" d="M3954.6,4176.6c-1.5,0.2-3,0.4-4.5,0.6C3951.6,4177,3953.1,4176.8,3954.6,4176.6z"/>
	<path class="st16" d="M3944.2,4178.1c-1.7,0.3-3.4,0.5-5.2,0.8C3940.8,4178.6,3942.5,4178.3,3944.2,4178.1z"/>
	<path class="st16" d="M3935.2,4179.5c1.3-0.2,2.6-0.5,3.9-0.6C3937.8,4179.1,3936.5,4179.3,3935.2,4179.5z"/>
	<path class="st16" d="M3933.9,4179.8L3933.9,4179.8c-0.1,0-0.1,0-0.2,0C3933.8,4179.8,3933.8,4179.8,3933.9,4179.8z"/>
	<path class="st16" d="M4007.1,4173.9c38.4,0,76,5.1,112.4,15.2h-1.9c-35.8-9.8-72.8-14.7-110.5-14.7s-74.7,4.9-110.5,14.7h-1.9
		C3931.1,4179,3968.8,4173.9,4007.1,4173.9z"/>
	<path class="st16" d="M3901.4,4186.8c-0.9,0.2-1.8,0.5-2.7,0.7C3899.6,4187.3,3900.5,4187,3901.4,4186.8z"/>
	<path class="st16" d="M4086,4180.8c1.2,0.2,2.4,0.5,3.7,0.7c0.6,0.1,1.3,0.3,1.9,0.4c1,0.2,1.9,0.4,2.9,0.6
		c0.6,0.1,1.2,0.2,1.7,0.4c1.3,0.3,2.5,0.5,3.8,0.8c0.3,0.1,0.7,0.1,1,0.2c1.2,0.3,2.3,0.5,3.5,0.8c0.5,0.1,0.9,0.2,1.3,0.3
		c0.1,0,0.3,0.1,0.4,0.1c3.2,0.8,6.5,1.6,9.7,2.5c1.7,0.5,3.4,0.9,5,1.4c0.1,0,0.2,0.1,0.3,0.1h-1.9c-36.4-10.1-74-15.2-112.4-15.2
		s-76,5.1-112.4,15.2h-1.9c1.9-0.6,3.9-1.1,5.8-1.6c0.9-0.3,1.8-0.5,2.7-0.7c0.6-0.2,1.2-0.3,1.8-0.5c1.7-0.4,3.3-0.8,5-1.2
		c0.1,0,0.3-0.1,0.4-0.1c1.6-0.4,3.2-0.8,4.8-1.1l0,0c1.7-0.4,3.4-0.8,5.1-1.1c1.4-0.3,2.7-0.6,4.1-0.9c0.9-0.2,1.8-0.4,2.7-0.5
		c0.8-0.2,1.6-0.3,2.4-0.5c1.9-0.4,3.8-0.7,5.7-1c0.1,0,0.3-0.1,0.4-0.1c0.1,0,0.1,0,0.2,0l0,0c0.4-0.1,0.9-0.2,1.3-0.2
		c1.3-0.2,2.6-0.4,3.9-0.6c1.7-0.3,3.4-0.5,5.2-0.8c2-0.3,3.9-0.6,5.9-0.8c1.5-0.2,3-0.4,4.5-0.6c1.7-0.2,3.3-0.4,5-0.6
		c0.1,0,0.3,0,0.4,0c1.6-0.2,3.3-0.4,5-0.5c1.7-0.2,3.4-0.3,5.1-0.5c0.2,0,0.3,0,0.5,0c1.4-0.1,2.9-0.2,4.3-0.3c0.1,0,0.1,0,0.2,0
		c0.3,0,0.6,0,0.8-0.1c1.5-0.1,3-0.2,4.5-0.3c0.2,0,0.5,0,0.7,0c0.3,0,0.6,0,0.8,0c1.3-0.1,2.6-0.1,3.9-0.2l0,0
		c1.6-0.1,3.3-0.1,5-0.2c0.3,0,0.6,0,0.9,0c0.3,0,0.6,0,0.9,0c1.1,0,2.2-0.1,3.3-0.1c0.5,0,0.9,0,1.4,0c1.2,0,2.4,0,3.6-0.1
		c0.6,0,1.3,0,1.9,0c1.4,0,2.8,0,4.3,0c1.8,0,3.5,0,5.3,0c3.4,0,6.9,0.1,10.3,0.3c0.2,0,0.4,0,0.5,0c1.7,0.1,3.3,0.1,5,0.2
		c1.6,0.1,3.2,0.2,4.8,0.3c0.4,0,0.7,0,1.1,0.1c1.3,0.1,2.5,0.2,3.7,0.3c0.5,0,1,0.1,1.4,0.1c1.2,0.1,2.4,0.2,3.6,0.3c0,0,0,0,0.1,0
		c0.5,0,0.9,0.1,1.4,0.1c1.6,0.1,3.3,0.3,4.9,0.5l0,0c0.3,0,0.5,0,0.8,0.1c1.5,0.1,3,0.3,4.5,0.5c0.1,0,0.2,0,0.3,0
		c3.4,0.4,6.7,0.8,10.1,1.3c1.7,0.2,3.4,0.5,5.1,0.7c0.1,0,0.3,0,0.4,0.1c0.8,0.1,1.5,0.2,2.2,0.4c0.8,0.1,1.5,0.2,2.3,0.4
		c0.1,0,0.2,0,0.3,0c0.2,0,0.4,0.1,0.6,0.1c1.3,0.2,2.6,0.4,3.9,0.7c0.5,0.1,1,0.2,1.5,0.3c1.2,0.2,2.4,0.4,3.7,0.7
		C4085.3,4180.6,4085.7,4180.7,4086,4180.8z"/>
	<path class="st16" d="M4007.1,4172.9c39.7,0,78.6,5.5,116.1,16.2h-1.8l0,0c-0.1,0-0.2-0.1-0.3-0.1c-1.7-0.5-3.4-0.9-5-1.4
		c-3.2-0.9-6.5-1.7-9.7-2.5c-0.1,0-0.3-0.1-0.4-0.1c-0.4-0.1-0.9-0.2-1.3-0.3c-1.2-0.3-2.3-0.6-3.5-0.8c-0.3-0.1-0.7-0.2-1-0.2
		c-1.3-0.3-2.5-0.6-3.8-0.8c-0.6-0.1-1.2-0.3-1.7-0.4c-1-0.2-1.9-0.4-2.9-0.6c-0.6-0.1-1.3-0.3-1.9-0.4c-1.2-0.3-2.4-0.5-3.7-0.7
		c-0.4-0.1-0.7-0.1-1.1-0.2c-1.2-0.2-2.4-0.5-3.7-0.7c-0.5-0.1-1-0.2-1.5-0.3c-1.3-0.2-2.6-0.5-3.9-0.7c-0.2,0-0.4-0.1-0.6-0.1
		c-0.1,0-0.2,0-0.3,0c-0.8-0.1-1.5-0.3-2.3-0.4s-1.5-0.2-2.2-0.4c-0.1,0-0.3,0-0.4-0.1c-1.7-0.3-3.4-0.5-5.1-0.7
		c-3.4-0.5-6.7-0.9-10.1-1.3c-0.1,0-0.2,0-0.3,0c-1.5-0.2-3-0.3-4.5-0.5c-0.3,0-0.5-0.1-0.8-0.1l0,0c-1.6-0.2-3.3-0.3-4.9-0.5
		c-0.4,0-0.9-0.1-1.4-0.1c0,0,0,0-0.1,0c-1.2-0.1-2.4-0.2-3.6-0.3c-0.5,0-1-0.1-1.4-0.1c-1.2-0.1-2.5-0.2-3.7-0.3
		c-0.4,0-0.7,0-1.1-0.1c-1.6-0.1-3.2-0.2-4.8-0.3c-1.7-0.1-3.3-0.2-5-0.2c-0.2,0-0.4,0-0.5,0c-3.4-0.1-6.9-0.2-10.3-0.3
		c-1.8,0-3.5,0-5.3,0c-1.4,0-2.8,0-4.3,0c-0.6,0-1.3,0-1.9,0c-1.2,0-2.4,0-3.6,0.1c-0.5,0-0.9,0-1.4,0c-1.1,0-2.2,0-3.3,0.1
		c-0.3,0-0.6,0-0.9,0c-0.3,0-0.6,0-0.9,0c-1.7,0.1-3.3,0.1-5,0.2l0,0c-1.3,0.1-2.6,0.1-3.9,0.2c-0.3,0-0.6,0-0.8,0s-0.5,0-0.7,0
		c-1.5,0.1-3,0.2-4.5,0.3c-0.3,0-0.6,0-0.8,0.1c-0.1,0-0.1,0-0.2,0c-1.4,0.1-2.9,0.2-4.3,0.3c-0.1,0-0.3,0-0.5,0
		c-1.7,0.1-3.4,0.3-5.1,0.5c-1.7,0.2-3.3,0.3-5,0.5c-0.1,0-0.3,0-0.4,0c-1.7,0.2-3.3,0.4-5,0.6c-1.5,0.2-3,0.4-4.5,0.6
		c-2,0.3-3.9,0.5-5.9,0.8c-1.7,0.3-3.4,0.5-5.2,0.8c-1.3,0.2-2.6,0.4-3.9,0.6c-0.4,0.1-0.9,0.1-1.3,0.2c-0.1,0-0.1,0-0.2,0
		c-0.1,0-0.3,0-0.4,0.1c-1.9,0.3-3.8,0.7-5.7,1c-0.8,0.1-1.6,0.3-2.4,0.5c-0.9,0.2-1.8,0.3-2.7,0.5c-1.4,0.3-2.7,0.6-4.1,0.9
		c-1.7,0.4-3.4,0.7-5.1,1.1l0,0c-1.6,0.4-3.2,0.7-4.8,1.1c-0.1,0-0.3,0-0.4,0.1c-1.7,0.4-3.3,0.8-5,1.2c-0.6,0.2-1.2,0.3-1.8,0.5
		c-0.9,0.2-1.8,0.5-2.7,0.7c-1.9,0.5-3.9,1-5.8,1.6l0,0h-1.8C3928.6,4178.4,3967.4,4172.9,4007.1,4172.9z"/>
	<path class="st16" d="M4123.2,4189.1c-37.5-10.8-76.4-16.2-116.1-16.2c-39.7,0-78.6,5.5-116.1,16.2h-1.8
		c38.1-11.1,77.6-16.7,117.9-16.7c40.3,0,79.8,5.6,117.9,16.7H4123.2z"/>
	<path class="st16" d="M4125,4189.1c-38.1-11.1-77.6-16.7-117.9-16.7s-79.8,5.6-117.9,16.7h-6.4c39.3-12.1,81-18.6,124.2-18.6
		s84.9,6.5,124.2,18.6H4125z"/>
	<path class="st16" d="M4131.4,4189.1c-39.3-12.1-81-18.6-124.2-18.6s-84.9,6.5-124.2,18.6h-1.9c39.9-12.4,82.2-19.1,126.2-19.1
		s86.3,6.7,126.2,19.1H4131.4z"/>
	<path class="st16" d="M3881.1,3416.3v39.2c0,55.2-44.8,100-100,100s-100-44.8-100-100v-39.2H3881.1z"/>
	<path class="st16" d="M4007.1,4169.5c43.9,0,86.7,6.6,127.9,19.6h-1.7c-39.9-12.4-82.2-19.1-126.2-19.1s-86.3,6.7-126.2,19.1h-1.7
		C3920.4,4176.1,3963.3,4169.5,4007.1,4169.5z"/>
	<path class="st16" d="M3878.2,4193.6c-0.9,0.3-1.9,0.6-2.9,0.9C3876.3,4194.2,3877.2,4193.9,3878.2,4193.6z"/>
	<path class="st16" d="M3861,4199.6c-0.5,0.2-1.1,0.4-1.6,0.6C3860,4199.9,3860.5,4199.8,3861,4199.6z"/>
	<path class="st16" d="M3849.8,4203.9c-0.4,0.2-0.8,0.3-1.3,0.5C3849,4204.3,3849.4,4204.1,3849.8,4203.9z"/>
	<path class="st16" d="M3848.5,4204.4c-0.6,0.2-1.1,0.5-1.7,0.7C3847.4,4204.9,3848,4204.6,3848.5,4204.4z"/>
	<path class="st16" d="M3816.2,4967c-1.5-0.8-3-1.5-4.5-2.3C3813.2,4965.4,3814.7,4966.2,3816.2,4967z"/>
	<path class="st16" d="M3802.8,4226.4c-0.5,0.3-1,0.5-1.5,0.8C3801.8,4226.9,3802.3,4226.7,3802.8,4226.4z"/>
	<path class="st16" d="M3767.5,4248.4c1.1-0.8,2.2-1.5,3.3-2.2C3769.7,4246.9,3768.6,4247.7,3767.5,4248.4z"/>
	<path class="st16" d="M3752.3,4259.6c0.5-0.4,1.1-0.8,1.6-1.2C3753.3,4258.8,3752.8,4259.2,3752.3,4259.6z"/>
	<path class="st16" d="M3748.3,4923.6c-1.3-1-2.6-2.1-3.9-3.1C3745.6,4921.5,3747,4922.5,3748.3,4923.6z"/>
	<path class="st16" d="M4007.1,4322.7c-149.1,0-270.5,121.3-270.5,270.5s121.3,270.5,270.5,270.5c149.1,0,270.4-121.3,270.4-270.5
		S4156.3,4322.7,4007.1,4322.7z M4007.1,4864.1c-149.4,0-271-121.5-271-271s121.6-271,271-271s270.9,121.5,270.9,271
		S4156.5,4864.1,4007.1,4864.1z"/>
	<path class="st16" d="M4007.1,4865.1c-150,0-272-122-272-272s122-272,272-272c149.9,0,271.9,122,271.9,272
		S4157.1,4865.1,4007.1,4865.1z M3735.7,4593.1c0,64.3,22.5,123.5,60,170c0.7,0.9,1.4,1.7,2.1,2.5c5.5,6.7,11.4,13.1,17.5,19.3
		c49.2,49.1,117,79.6,191.9,79.6c149.7,0,271.4-121.8,271.4-271.5s-121.8-271.5-271.4-271.5
		C3857.5,4321.7,3735.7,4443.4,3735.7,4593.1z"/>
	<path class="st16" d="M3795.7,4763.2c-37.5-46.6-60-105.7-60-170c0-149.7,121.8-271.5,271.5-271.5s271.4,121.8,271.4,271.5
		s-121.8,271.5-271.4,271.5c-74.8,0-142.7-30.4-191.9-79.6c-6.1-6.1-12-12.6-17.5-19.3C3797.1,4764.9,3796.4,4764,3795.7,4763.2z
		 M3736.2,4593.1c0,149.4,121.6,271,271,271c149.4,0,270.9-121.5,270.9-271s-121.5-271-270.9-271
		C3857.7,4322.2,3736.2,4443.7,3736.2,4593.1z"/>
	<path class="st16" d="M3735.2,4593.1c0,150,122,272,272,272c149.9,0,271.9-122,271.9-272s-122-272-271.9-272
		C3857.2,4321.2,3735.2,4443.2,3735.2,4593.1z M4007.1,4865.6c-150.2,0-272.5-122.2-272.5-272.5s122.2-272.5,272.5-272.5
		c150.2,0,272.4,122.2,272.4,272.5S4157.4,4865.6,4007.1,4865.6z"/>
	<path class="st16" d="M3587.9,4593.1c0-56.5,11.1-111.5,33-163.2c21.1-49.9,51.4-94.8,89.8-133.2c38.5-38.5,83.3-68.7,133.2-89.8
		c16.6-7,33.6-13,50.8-17.7h1.9c-17.8,4.9-35.3,10.9-52.5,18.2c-49.9,21.1-94.6,51.3-133.1,89.7c-38.4,38.4-68.6,83.2-89.7,133.1
		c-21.9,51.7-32.9,106.5-32.9,163s11.1,111.3,32.9,163c21.1,49.9,51.3,94.7,89.7,133.1s83.2,68.6,133.1,89.7
		c51.7,21.9,106.5,32.9,163,32.9s111.3-11.1,163-32.9c49.9-21.1,94.7-51.3,133.1-89.7c38.4-38.4,68.6-83.2,89.7-133.1
		c21.9-51.7,32.9-106.5,32.9-163s-11.1-111.4-32.9-163c-21.1-49.9-51.3-94.6-89.7-133.1c-38.4-38.4-83.2-68.6-133.1-89.7
		c-17.2-7.3-34.7-13.3-52.5-18.2h1.9c17.2,4.8,34.2,10.7,50.8,17.7c49.9,21.1,94.8,51.3,133.2,89.8c38.5,38.5,68.7,83.3,89.8,133.2
		c21.9,51.7,33,106.6,33,163.2s-11.1,111.5-33,163.2c-21.1,49.9-51.3,94.8-89.8,133.2s-83.3,68.7-133.2,89.8
		c-51.7,21.9-106.7,33-163.2,33c-56.6,0-111.5-11.1-163.2-33c-49.9-21.1-94.8-51.3-133.2-89.8c-38.5-38.5-68.7-83.3-89.8-133.2
		C3599,4704.6,3587.9,4649.7,3587.9,4593.1z"/>
	<path class="st16" d="M3587.6,4606.7c0-1.1-0.1-2.1-0.1-3.2c0-0.1,0-0.2,0-0.3c0-1.4-0.1-2.7-0.1-4.1c0-0.4,0-0.8,0-1.1
		c0-1.6,0-3.3,0-4.9s0-3.2,0-4.9c0-0.1,0-0.3,0-0.5c0-0.3,0-0.5,0-0.7c0-1.3,0.1-2.7,0.1-4l0,0c0-0.1,0-0.2,0-0.4c0-0.1,0-0.1,0-0.2
		c0-1.5,0.1-2.9,0.1-4.4c0-1.1,0.1-2.2,0.1-3.3c0-0.2,0-0.4,0-0.6c0-0.5,0-1,0.1-1.5c0-0.2,0-0.3,0-0.5s0-0.4,0-0.6s0-0.4,0-0.6
		c2.5-48.9,13.4-96.3,32.4-141.4c21.1-50,51.4-94.9,89.9-133.4c8.3-8.3,16.9-16.2,25.8-23.8c1.1-0.9,2.1-1.8,3.2-2.7
		c0.9-0.7,1.8-1.5,2.6-2.2c0.2-0.2,0.4-0.3,0.6-0.5c0.9-0.8,1.8-1.5,2.8-2.2c2.1-1.7,4.2-3.3,6.3-5c0.2-0.2,0.4-0.3,0.6-0.5
		c0.5-0.4,1.1-0.8,1.6-1.2c0.5-0.4,0.9-0.7,1.4-1.1c0.7-0.5,1.3-1,2-1.5c3.4-2.5,6.8-5,10.2-7.4c1.1-0.8,2.2-1.5,3.3-2.2
		c0.9-0.6,1.7-1.2,2.6-1.8c1.1-0.7,2.2-1.5,3.3-2.2c2.5-1.7,5.1-3.3,7.6-4.9c0.4-0.2,0.7-0.5,1.1-0.7c0.8-0.5,1.5-1,2.3-1.4
		c0.9-0.6,1.9-1.1,2.8-1.7c2.3-1.4,4.7-2.8,7.1-4.1c0.9-0.5,1.9-1.1,2.8-1.6c0.3-0.2,0.6-0.3,0.9-0.5c0.5-0.3,1-0.5,1.5-0.8
		c0.4-0.2,0.9-0.5,1.3-0.7c5.1-2.8,10.2-5.5,15.4-8.1c0.6-0.3,1.3-0.6,1.9-1c0.6-0.3,1.3-0.6,1.9-0.9c0.8-0.4,1.5-0.7,2.3-1.1
		c1.7-0.8,3.4-1.6,5.1-2.4c1.1-0.5,2.2-1,3.3-1.5c0.3-0.1,0.6-0.3,1-0.4c1.4-0.6,2.8-1.3,4.2-1.9c1.6-0.7,3.1-1.4,4.7-2l0,0
		c1-0.4,2.1-0.9,3.1-1.3c0.6-0.2,1.1-0.5,1.7-0.7l0,0c0.4-0.2,0.8-0.3,1.3-0.5c1.2-0.5,2.4-1,3.6-1.4c1.6-0.6,3.2-1.3,4.8-1.9
		c0.4-0.2,0.8-0.3,1.2-0.5c0.5-0.2,1.1-0.4,1.6-0.6c2.3-0.9,4.6-1.7,6.9-2.5c1.6-0.5,3.1-1.1,4.7-1.6c0.6-0.2,1.3-0.5,1.9-0.6
		c0.3-0.1,0.5-0.2,0.8-0.3c0.9-0.3,1.9-0.6,2.9-0.9c4.9-1.6,9.8-3.1,14.7-4.5l0,0h1.9c-17.2,4.8-34.2,10.7-50.8,17.7
		c-49.9,21.1-94.8,51.3-133.2,89.8c-38.5,38.5-68.7,83.3-89.8,133.2c-21.9,51.8-33,106.7-33,163.2s11.1,111.5,33,163.2
		c21.1,50,51.4,94.8,89.8,133.2c38.5,38.5,83.3,68.7,133.2,89.8c51.7,21.9,106.6,33,163.2,33c56.6,0,111.5-11.1,163.2-33
		c49.9-21.1,94.8-51.3,133.2-89.8s68.7-83.3,89.8-133.2c21.9-51.7,33-106.6,33-163.2s-11.1-111.5-33-163.2
		c-21.1-49.9-51.3-94.8-89.8-133.2c-38.5-38.5-83.3-68.7-133.2-89.8c-16.6-7-33.6-12.9-50.8-17.7h1.9l0,0c1.6,0.4,3.1,0.9,4.7,1.4
		c0.4,0.1,0.8,0.2,1.2,0.4c1.2,0.3,2.4,0.7,3.5,1.1c0.3,0.1,0.6,0.2,0.9,0.3c1.3,0.4,2.6,0.8,3.9,1.2c0.2,0,0.3,0.1,0.5,0.1
		c0.4,0.1,0.7,0.2,1.1,0.4c1,0.3,1.9,0.6,2.9,1c0.6,0.2,1.2,0.4,1.8,0.6c1.1,0.4,2.2,0.8,3.3,1.1c0.5,0.2,1,0.4,1.5,0.5
		c1.1,0.4,2.1,0.8,3.2,1.1c1.3,0.5,2.5,0.9,3.8,1.4c1.1,0.4,2.3,0.9,3.4,1.3c1.2,0.5,2.5,1,3.7,1.4c0.1,0,0.3,0.1,0.4,0.2
		c0.1,0,0.3,0.1,0.4,0.2c1.4,0.5,2.7,1.1,4.1,1.6c0.1,0.1,0.3,0.1,0.4,0.2c0.4,0.2,0.9,0.4,1.3,0.5c1,0.4,2.1,0.9,3.1,1.3l0,0
		c1.8,0.8,3.6,1.5,5.4,2.3c0.6,0.3,1.3,0.6,1.9,0.8c0.2,0.1,0.5,0.2,0.7,0.3c0.3,0.1,0.7,0.3,1,0.5c0.1,0,0.2,0.1,0.4,0.1
		c0.4,0.2,0.8,0.4,1.2,0.5c0.7,0.3,1.4,0.6,2.1,1c0.9,0.4,1.9,0.9,2.8,1.3c0.3,0.1,0.5,0.2,0.8,0.4c1.2,0.5,2.3,1.1,3.5,1.7
		c1.3,0.6,2.6,1.3,3.9,1.9c0.8,0.4,1.7,0.8,2.5,1.3c0.4,0.2,0.9,0.5,1.3,0.7c0.1,0,0.1,0.1,0.2,0.1c1.3,0.6,2.5,1.3,3.7,1.9
		c1,0.5,1.9,1,2.8,1.5c0.4,0.2,0.9,0.5,1.3,0.7c1,0.5,2,1.1,2.9,1.6c0.3,0.1,0.5,0.3,0.7,0.4c1.2,0.6,2.3,1.3,3.4,1.9
		c0.9,0.5,1.9,1,2.8,1.6c0.3,0.1,0.5,0.3,0.8,0.5c1.3,0.7,2.6,1.5,3.8,2.2c2.5,1.5,4.9,2.9,7.3,4.4l0,0c0.2,0.1,0.4,0.3,0.6,0.4
		c0.1,0.1,0.3,0.2,0.4,0.2c0.3,0.2,0.6,0.4,0.9,0.5c0.3,0.2,0.6,0.4,0.9,0.5c0.9,0.5,1.7,1.1,2.5,1.6c0.3,0.2,0.6,0.4,0.8,0.5
		c0.8,0.5,1.6,1,2.5,1.6c0.5,0.4,1.1,0.7,1.6,1c0.2,0.1,0.5,0.3,0.7,0.5l0,0c0.3,0.2,0.6,0.4,1,0.6c0.9,0.6,1.7,1.1,2.6,1.7
		c1.2,0.8,2.3,1.6,3.4,2.4c0,0,0.1,0,0.1,0.1c1.2,0.8,2.4,1.6,3.5,2.5c0.1,0.1,0.2,0.2,0.3,0.3c1.4,1,2.9,2,4.3,3.1
		c0.2,0.2,0.4,0.3,0.7,0.5c0.6,0.4,1.1,0.8,1.7,1.2c0.6,0.4,1.1,0.9,1.7,1.3c1.3,0.9,2.5,1.9,3.7,2.8c0.1,0.1,0.2,0.1,0.3,0.2
		c0.1,0.1,0.2,0.1,0.2,0.2c1.3,1,2.5,1.9,3.7,2.9l0,0c0.2,0.1,0.3,0.3,0.5,0.4c1.1,0.9,2.3,1.8,3.4,2.7c0,0,0.1,0,0.1,0.1
		c1.1,0.9,2.2,1.8,3.3,2.7c0.7,0.6,1.4,1.1,2.1,1.7c0.7,0.5,1.3,1.1,2,1.6c0.1,0.1,0.3,0.2,0.4,0.4l0,0c0.2,0.2,0.5,0.4,0.7,0.6
		c0.5,0.4,0.9,0.8,1.4,1.2c0.3,0.2,0.6,0.5,0.9,0.7c0.6,0.5,1.2,1,1.8,1.5c0.2,0.2,0.4,0.4,0.6,0.5c0.4,0.4,0.8,0.7,1.2,1.1
		c0.7,0.6,1.4,1.2,2,1.8c6,5.4,11.9,10.9,17.6,16.6c38.5,38.5,68.8,83.4,89.9,133.4c19.2,45.4,30.1,93.2,32.5,142.5
		c0,0.2,0,0.4,0,0.6c0.1,1.2,0.1,2.4,0.1,3.5c0,0.5,0,1.1,0.1,1.6c0.1,1.5,0.1,3,0.1,4.6c0,0.2,0,0.4,0,0.5c0,1.2,0,2.4,0.1,3.6
		c0,0.9,0,1.9,0,2.8c0,1.2,0,2.5,0,3.7s0,2.4,0,3.6c0,0,0,0,0,0.1c0,0.9,0,1.8,0,2.7c0,1.2,0,2.4-0.1,3.6c0,0.2,0,0.3,0,0.5l0,0
		c0,1.5-0.1,3-0.1,4.6c0,0.5,0,1.1-0.1,1.6c0,1.2-0.1,2.4-0.1,3.6c0,0.1,0,0.3,0,0.5c0,0,0,0,0,0.1c-2.4,49.3-13.3,97.1-32.5,142.5
		c-21.1,50-51.4,94.9-89.9,133.4c-5.5,5.5-11.1,10.8-16.8,15.9c-0.1,0.1-0.2,0.1-0.3,0.2c-1,0.9-2,1.8-3,2.7c-1.1,1-2.2,1.9-3.3,2.9
		c-1,0.9-2,1.7-3,2.6c-0.1,0.1-0.2,0.2-0.3,0.2c-0.3,0.3-0.6,0.5-0.9,0.7c-1.9,1.6-3.8,3.1-5.6,4.6c-1.6,1.3-3.3,2.6-4.9,3.9
		c-1.2,0.9-2.4,1.9-3.5,2.8c-0.3,0.2-0.5,0.4-0.8,0.6c-1.1,0.8-2.1,1.6-3.2,2.4c-0.1,0.1-0.3,0.2-0.4,0.3c-1.3,1-2.6,2-3.9,2.9l0,0
		c-1.3,1-2.7,1.9-4,2.9c-1.2,0.9-2.5,1.7-3.7,2.6c-0.2,0.1-0.3,0.2-0.5,0.4c-0.3,0.2-0.7,0.5-1,0.7c-0.5,0.3-0.9,0.6-1.4,0.9
		s-0.9,0.6-1.4,0.9c-0.3,0.2-0.6,0.4-1,0.6c-1.2,0.8-2.4,1.6-3.6,2.4l0,0c-1.4,0.9-2.8,1.8-4.2,2.7c-1.4,0.9-2.8,1.8-4.3,2.7
		c-0.2,0.1-0.4,0.2-0.5,0.3c-1.2,0.8-2.5,1.5-3.7,2.3c0,0,0,0-0.1,0c-1.4,0.9-2.9,1.7-4.3,2.6c-1.8,1-3.5,2.1-5.3,3.1
		c-0.9,0.5-1.7,1-2.6,1.5c-0.3,0.2-0.6,0.3-0.8,0.5c-0.8,0.5-1.6,0.9-2.4,1.3c-1,0.5-1.9,1-2.9,1.6c-0.5,0.3-0.9,0.5-1.3,0.7
		c-0.7,0.4-1.5,0.8-2.2,1.2c-0.2,0.1-0.4,0.2-0.6,0.3c-1.3,0.7-2.6,1.3-3.9,2l0,0c-1.3,0.7-2.6,1.3-3.8,1.9
		c-0.2,0.1-0.4,0.2-0.7,0.3c-0.3,0.1-0.5,0.3-0.8,0.4c-0.5,0.2-1,0.5-1.5,0.7c-0.4,0.2-0.9,0.4-1.3,0.6c-1,0.5-1.9,0.9-2.9,1.4
		c-1.1,0.5-2.2,1-3.3,1.6c-1.1,0.5-2.2,1-3.2,1.5c-0.4,0.2-0.8,0.4-1.1,0.5c-1.3,0.6-2.5,1.1-3.8,1.7c-1.7,0.7-3.4,1.5-5.1,2.2l0,0
		c-1.6,0.7-3.2,1.4-4.9,2c-0.2,0.1-0.4,0.2-0.6,0.3c-0.9,0.4-1.8,0.8-2.8,1.1c-2.3,0.9-4.5,1.8-6.8,2.6c-1.4,0.5-2.9,1.1-4.3,1.6
		c-0.2,0.1-0.4,0.2-0.6,0.2c-0.8,0.3-1.5,0.5-2.3,0.8s-1.5,0.5-2.3,0.8l0,0c-0.1,0-0.2,0.1-0.4,0.1c-1,0.4-2.1,0.7-3.2,1.1
		c-0.7,0.2-1.4,0.5-2.1,0.7c-1,0.4-2.1,0.7-3.1,1c-0.7,0.2-1.4,0.4-2,0.7c-1.2,0.4-2.4,0.8-3.6,1.1c-0.2,0.1-0.4,0.1-0.6,0.2
		c-1.3,0.4-2.5,0.8-3.8,1.2c-0.4,0.1-0.8,0.3-1.2,0.4c-38.4,11.4-78.2,17.1-118.9,17.1c-43.8,0-86.5-6.6-127.6-19.8
		c-0.5-0.1-0.9-0.3-1.4-0.5c-1.6-0.5-3.3-1.1-4.9-1.6l0,0c-0.5-0.2-1-0.3-1.5-0.5c-2.8-0.9-5.6-1.9-8.3-2.9
		c-6.6-2.4-13.1-5-19.6-7.7c-9.4-4-18.6-8.3-27.6-12.9c-1.5-0.8-3-1.5-4.5-2.3c-14.9-7.9-29.3-16.6-43.1-26.1l0,0
		c-5.5-3.8-10.9-7.8-16.3-11.9l0,0c-1.3-1-2.7-2-4-3.1c-1.3-1-2.6-2.1-3.9-3.1c-1.1-0.9-2.1-1.7-3.2-2.6c-0.2-0.2-0.5-0.4-0.7-0.6
		c-2.6-2.1-5.2-4.3-7.7-6.5l0,0c-1.3-1.1-2.5-2.2-3.8-3.3l0,0c-1.3-1.1-2.5-2.2-3.8-3.4l0,0c-2.5-2.3-5-4.6-7.4-6.9l0,0
		c-2.4-2.3-4.9-4.7-7.3-7.1c-38.5-38.5-68.8-83.4-89.9-133.4c-17.6-41.7-28.3-85.5-31.8-130.6l0,0c0-0.2,0-0.4-0.1-0.6
		c0-0.1,0-0.2,0-0.3c0-0.2,0-0.3,0-0.5c-0.1-0.8-0.1-1.6-0.2-2.4l0,0c0-0.2,0-0.4,0-0.6c0-0.1,0-0.3,0-0.4c0-0.4-0.1-0.8-0.1-1.2
		c0-0.6-0.1-1.3-0.1-1.9c0-0.3,0-0.5-0.1-0.8c0-0.3,0-0.5,0-0.8v-0.1c0-0.5-0.1-1.1-0.1-1.7s-0.1-1.1-0.1-1.7c0-0.3,0-0.6,0-0.9
		s0-0.6,0-0.9c0-1-0.1-2.1-0.1-3.1C3587.7,4607.6,3587.6,4607.1,3587.6,4606.7z"/>
	<path class="st16" d="M3587.7,4578.1c0-1.1,0.1-2.2,0.1-3.3C3587.8,4575.9,3587.7,4577,3587.7,4578.1z"/>
	<path class="st16" d="M3586.9,4593.1c0-56.7,11.1-111.7,33.1-163.6c21.2-50.1,51.5-95,90-133.5c38.6-38.6,83.5-68.9,133.6-90
		c15.6-6.6,31.4-12.2,47.5-16.8h1.8c-4.9,1.4-9.8,2.9-14.7,4.5c-0.9,0.3-1.9,0.6-2.9,0.9c-0.3,0.1-0.5,0.2-0.8,0.3
		c-0.6,0.2-1.3,0.4-1.9,0.6c-1.6,0.5-3.1,1.1-4.7,1.6c-2.3,0.8-4.6,1.6-6.9,2.5c-0.5,0.2-1.1,0.4-1.6,0.6c-0.4,0.2-0.8,0.3-1.2,0.5
		c-1.6,0.6-3.2,1.2-4.8,1.9c-1.2,0.5-2.4,1-3.6,1.4c-0.4,0.2-0.8,0.3-1.3,0.5l0,0c-0.6,0.2-1.1,0.5-1.7,0.7c-1,0.4-2.1,0.9-3.1,1.3
		l0,0c-1.6,0.7-3.1,1.3-4.7,2c-1.4,0.6-2.8,1.2-4.2,1.9c-0.3,0.1-0.6,0.3-1,0.4c-1.1,0.5-2.2,1-3.3,1.5c-1.7,0.8-3.4,1.6-5.1,2.4
		c-0.8,0.4-1.5,0.7-2.3,1.1c-0.6,0.3-1.3,0.6-1.9,0.9c-0.6,0.3-1.3,0.6-1.9,1c-5.2,2.6-10.4,5.3-15.4,8.1c-0.4,0.2-0.9,0.5-1.3,0.7
		c-0.5,0.3-1,0.5-1.5,0.8c-0.3,0.2-0.6,0.3-0.9,0.5c-0.9,0.5-1.9,1.1-2.8,1.6c-2.4,1.4-4.7,2.7-7.1,4.1c-0.9,0.6-1.9,1.1-2.8,1.7
		c-0.8,0.5-1.5,1-2.3,1.4c-0.4,0.2-0.8,0.5-1.1,0.7c-2.6,1.6-5.1,3.2-7.6,4.9c-1.1,0.7-2.2,1.5-3.3,2.2c-0.9,0.6-1.7,1.2-2.6,1.8
		c-1.1,0.7-2.2,1.5-3.3,2.2c-3.4,2.4-6.9,4.9-10.2,7.4c-0.7,0.5-1.4,1-2,1.5c-0.5,0.4-0.9,0.7-1.4,1.1s-1.1,0.8-1.6,1.2
		c-0.2,0.1-0.4,0.3-0.6,0.5c-2.1,1.6-4.2,3.3-6.3,5c-0.9,0.7-1.9,1.5-2.8,2.2c-0.2,0.2-0.4,0.3-0.6,0.5c-0.9,0.7-1.8,1.5-2.6,2.2
		c-1.1,0.9-2.1,1.8-3.2,2.7c-8.9,7.5-17.5,15.5-25.8,23.8c-38.5,38.5-68.8,83.4-89.9,133.4c-19.1,45-29.9,92.5-32.4,141.4
		c0,0.2,0,0.4,0,0.6s0,0.4,0,0.6s0,0.3,0,0.5c0,0.5-0.1,1-0.1,1.5c0,0.2,0,0.4,0,0.6c-0.1,1.1-0.1,2.2-0.1,3.3
		c-0.1,1.5-0.1,2.9-0.1,4.4c0,0.1,0,0.1,0,0.2s0,0.2,0,0.4l0,0c0,1.3-0.1,2.7-0.1,4c0,0.2,0,0.5,0,0.7c0,0.1,0,0.3,0,0.5
		c0,1.6,0,3.2,0,4.9c0,1.6,0,3.3,0,4.9c0,0.4,0,0.8,0,1.1c0,1.4,0.1,2.7,0.1,4.1c0,0.1,0,0.2,0,0.3c0,1.1,0.1,2.1,0.1,3.2
		c0,0.5,0,0.9,0,1.4c0,1,0.1,2.1,0.1,3.1c0,0.3,0,0.6,0,0.9s0,0.6,0,0.9c0,0.6,0.1,1.1,0.1,1.7s0.1,1.1,0.1,1.7v0.1
		c0,0.3,0,0.5,0,0.8s0,0.5,0.1,0.8c0,0.6,0.1,1.3,0.1,1.9c0,0.4,0.1,0.8,0.1,1.2c0,0.1,0,0.3,0,0.4c0,0.2,0,0.4,0,0.6l0,0
		c0.1,0.8,0.1,1.6,0.2,2.4c0,0.1,0,0.3,0,0.5c0,0.1,0,0.2,0,0.3c0,0.2,0,0.4,0.1,0.6l0,0c3.5,45,14.1,88.9,31.8,130.6
		c21.1,50,51.4,94.9,89.9,133.4c2.4,2.4,4.8,4.8,7.3,7.1l0,0c2.5,2.3,4.9,4.6,7.4,6.9l0,0c1.3,1.1,2.5,2.3,3.8,3.4l0,0
		c1.3,1.1,2.5,2.2,3.8,3.3l0,0c2.6,2.2,5.1,4.4,7.7,6.5c0.3,0.2,0.5,0.4,0.7,0.6c1.1,0.9,2.1,1.7,3.2,2.6c1.3,1.1,2.6,2.1,3.9,3.1
		c1.3,1,2.7,2.1,4,3.1l0,0c5.3,4.1,10.8,8,16.3,11.9l0,0c13.8,9.5,28.2,18.3,43.1,26.1c1.5,0.8,3,1.6,4.5,2.3
		c9,4.6,18.2,8.9,27.6,12.9c6.5,2.7,13,5.3,19.6,7.7c2.8,1,5.6,2,8.3,2.9c0.5,0.2,1,0.4,1.5,0.5l0,0c1.6,0.5,3.3,1.1,4.9,1.6
		c0.5,0.1,0.9,0.3,1.4,0.5c41.1,13.1,83.8,19.8,127.6,19.8c40.7,0,80.5-5.7,118.9-17.1c0.4-0.1,0.8-0.2,1.2-0.4
		c1.3-0.4,2.5-0.8,3.8-1.2c0.2-0.1,0.4-0.1,0.6-0.2c1.2-0.4,2.4-0.8,3.6-1.1c0.7-0.2,1.4-0.4,2-0.7c1-0.3,2.1-0.7,3.1-1
		c0.7-0.2,1.4-0.5,2.1-0.7c1.1-0.4,2.1-0.7,3.2-1.1c0.1,0,0.2-0.1,0.4-0.1l0,0c0.8-0.3,1.5-0.5,2.3-0.8s1.5-0.5,2.3-0.8
		c0.2-0.1,0.4-0.2,0.7-0.2c1.4-0.5,2.9-1,4.3-1.6c2.3-0.9,4.5-1.7,6.8-2.6c0.9-0.4,1.8-0.7,2.8-1.1c0.2-0.1,0.4-0.2,0.6-0.3
		c1.6-0.7,3.2-1.3,4.9-2l0,0c1.7-0.7,3.4-1.4,5.1-2.2c1.3-0.6,2.6-1.1,3.8-1.7c0.4-0.2,0.8-0.3,1.1-0.5c1.1-0.5,2.2-1,3.2-1.5
		c1.1-0.5,2.2-1,3.3-1.6c1-0.5,1.9-0.9,2.9-1.4c0.4-0.2,0.9-0.4,1.3-0.6c0.5-0.2,1-0.5,1.5-0.7c0.3-0.1,0.5-0.3,0.8-0.4
		c0.2-0.1,0.4-0.2,0.7-0.3c1.3-0.6,2.6-1.3,3.8-1.9l0,0c1.3-0.7,2.6-1.3,3.9-2c0.2-0.1,0.4-0.2,0.6-0.3c0.7-0.4,1.5-0.8,2.2-1.2
		c0.4-0.2,0.9-0.5,1.3-0.7c1-0.5,1.9-1,2.9-1.6c0.8-0.4,1.6-0.9,2.4-1.3c0.3-0.1,0.6-0.3,0.8-0.5c0.9-0.5,1.7-1,2.6-1.5
		c1.8-1,3.6-2,5.3-3.1c1.4-0.8,2.9-1.7,4.3-2.6c0,0,0,0,0.1,0c1.2-0.8,2.5-1.5,3.7-2.3c0.2-0.1,0.4-0.2,0.5-0.3
		c1.4-0.9,2.9-1.8,4.3-2.7c1.4-0.9,2.8-1.8,4.2-2.7l0,0c1.2-0.8,2.4-1.6,3.6-2.4c0.3-0.2,0.6-0.4,1-0.6c0.5-0.3,0.9-0.6,1.4-0.9
		s0.9-0.6,1.4-0.9c0.3-0.2,0.7-0.5,1-0.7c0.2-0.1,0.3-0.2,0.5-0.4c1.2-0.9,2.5-1.7,3.7-2.6c1.3-1,2.7-1.9,4-2.9l0,0
		c1.3-1,2.6-1.9,3.9-2.9c0.2-0.1,0.3-0.2,0.4-0.3c1.1-0.8,2.2-1.6,3.2-2.4c0.3-0.2,0.5-0.4,0.8-0.6c1.2-0.9,2.4-1.8,3.6-2.8
		c1.6-1.3,3.3-2.6,4.9-3.9c1.9-1.5,3.8-3.1,5.6-4.6c0.3-0.2,0.6-0.5,0.9-0.7c0.1-0.1,0.2-0.2,0.3-0.2c1-0.9,2-1.7,3-2.6
		c1.1-0.9,2.2-1.9,3.3-2.9c1-0.9,2-1.8,3-2.7c0.1-0.1,0.2-0.1,0.3-0.2c5.7-5.1,11.3-10.4,16.8-15.9c38.5-38.5,68.8-83.4,89.9-133.4
		c19.2-45.4,30.1-93.2,32.5-142.5c0,0,0,0,0-0.1c0-0.2,0-0.3,0-0.5c0-1.2,0.1-2.4,0.1-3.6c0-0.5,0-1.1,0.1-1.6
		c0.1-1.5,0.1-3,0.1-4.6l0,0c0-0.2,0-0.4,0-0.5c0-1.2,0-2.4,0.1-3.6c0-0.9,0-1.8,0-2.7c0,0,0,0,0-0.1c0-1.2,0-2.4,0-3.6s0-2.5,0-3.7
		c0-0.9,0-1.8,0-2.8c0-1.2,0-2.4-0.1-3.6c0-0.2,0-0.4,0-0.5c0-1.5-0.1-3.1-0.1-4.6c0-0.5,0-1.1-0.1-1.6c0-1.2-0.1-2.4-0.1-3.5
		c0-0.2,0-0.4,0-0.6c-2.4-49.3-13.3-97.1-32.5-142.5c-21.1-50-51.4-94.9-89.9-133.4c-5.7-5.7-11.6-11.3-17.6-16.6
		c-0.7-0.6-1.3-1.2-2-1.8c-0.4-0.4-0.8-0.7-1.2-1.1c-0.2-0.2-0.4-0.4-0.6-0.5c-0.6-0.5-1.2-1-1.8-1.5c-0.3-0.3-0.6-0.5-0.9-0.7
		c-0.4-0.4-0.9-0.8-1.4-1.2c-0.2-0.2-0.5-0.4-0.7-0.6l0,0c-0.1-0.1-0.3-0.3-0.4-0.4c-0.6-0.6-1.3-1.1-2-1.6
		c-0.7-0.6-1.4-1.1-2.1-1.7c-1.1-0.9-2.2-1.8-3.3-2.7c0,0,0,0-0.1-0.1c-1.1-0.9-2.3-1.8-3.4-2.7c-0.2-0.1-0.3-0.3-0.5-0.4l0,0
		c-1-0.8-1.9-1.5-2.9-2.2c-0.3-0.2-0.6-0.5-0.9-0.7c-0.1-0.1-0.2-0.1-0.2-0.2c-0.1-0.1-0.2-0.2-0.3-0.2c-1.2-1-2.5-1.9-3.7-2.8
		c-0.6-0.4-1.1-0.9-1.7-1.3s-1.1-0.8-1.7-1.2c-0.2-0.2-0.4-0.3-0.7-0.5c-1.4-1-2.8-2-4.3-3.1c-0.1-0.1-0.2-0.2-0.3-0.3
		c-1.2-0.8-2.3-1.6-3.5-2.5c0,0-0.1,0-0.1-0.1c-1.1-0.8-2.3-1.6-3.4-2.4c-0.9-0.6-1.7-1.2-2.6-1.7c-0.3-0.2-0.6-0.4-1-0.6l0,0
		c-0.2-0.2-0.5-0.3-0.7-0.5c-0.5-0.3-1-0.7-1.6-1c-0.8-0.5-1.6-1.1-2.5-1.6c-0.3-0.2-0.6-0.4-0.8-0.5c-0.8-0.5-1.7-1.1-2.5-1.6
		c-0.3-0.2-0.6-0.4-0.9-0.5c-0.4-0.3-0.8-0.5-1.3-0.8c-0.2-0.1-0.4-0.3-0.6-0.4l0,0c-2.4-1.5-4.9-3-7.3-4.4
		c-1.3-0.8-2.5-1.5-3.8-2.2c-0.3-0.2-0.5-0.3-0.8-0.5c-0.9-0.5-1.9-1.1-2.8-1.6c-1.1-0.6-2.3-1.3-3.4-1.9c-0.2-0.1-0.5-0.3-0.7-0.4
		c-1-0.5-2-1.1-2.9-1.6c-0.4-0.2-0.9-0.5-1.3-0.7c-0.9-0.5-1.9-1-2.8-1.5c-1.2-0.6-2.5-1.3-3.7-1.9c-0.1,0-0.1-0.1-0.2-0.1
		c-0.4-0.2-0.9-0.5-1.3-0.7c-0.8-0.4-1.7-0.9-2.5-1.3c-1.3-0.6-2.6-1.3-3.9-1.9c-1.2-0.6-2.3-1.1-3.5-1.7c-0.3-0.1-0.5-0.3-0.8-0.4
		c-0.9-0.4-1.9-0.9-2.8-1.3c-0.7-0.3-1.4-0.6-2.1-1c-0.4-0.2-0.8-0.4-1.2-0.5c-0.1,0-0.2-0.1-0.4-0.1c-0.3-0.2-0.7-0.3-1-0.5l0,0
		c-0.2-0.1-0.4-0.2-0.7-0.3c-0.6-0.3-1.3-0.6-1.9-0.8c-1.8-0.8-3.6-1.6-5.4-2.3l0,0c-1-0.4-2.1-0.9-3.1-1.3
		c-0.4-0.2-0.9-0.4-1.3-0.5l0,0c-0.1,0-0.3-0.1-0.4-0.2c-1.4-0.6-2.7-1.1-4.1-1.6c-0.1-0.1-0.3-0.1-0.4-0.2s-0.3-0.1-0.4-0.2
		c-1.2-0.5-2.5-1-3.7-1.4c-1.1-0.4-2.3-0.9-3.4-1.3c-1.3-0.5-2.5-0.9-3.8-1.4c-1.1-0.4-2.1-0.8-3.2-1.1c-0.5-0.2-1-0.4-1.5-0.5
		c-1.1-0.4-2.2-0.8-3.3-1.1c-0.6-0.2-1.2-0.4-1.8-0.6c-0.4-0.1-0.8-0.3-1.1-0.4c-0.6-0.2-1.2-0.4-1.8-0.6c-0.4-0.1-0.7-0.3-1.1-0.4
		c-0.1,0-0.3-0.1-0.5-0.1c-1.3-0.4-2.6-0.8-3.9-1.2c-0.3-0.1-0.6-0.2-0.9-0.3c-1.2-0.4-2.3-0.7-3.5-1.1c-0.4-0.1-0.8-0.3-1.2-0.4
		c-1.6-0.5-3.1-0.9-4.7-1.4h1.8c16.1,4.6,31.9,10.2,47.5,16.8c50.1,21.2,95,51.5,133.6,90c38.6,38.6,68.9,83.5,90,133.5
		c21.9,51.9,33,106.9,33,163.6s-11.1,111.7-33,163.6c-21.2,50-51.5,95-90,133.5c-38.6,38.6-83.5,68.9-133.6,90
		c-51.9,21.9-106.9,33-163.6,33c-56.7,0-111.7-11.1-163.6-33c-50.1-21.2-95-51.5-133.6-90s-68.9-83.5-90-133.5
		C3598,4704.9,3586.9,4649.8,3586.9,4593.1z"/>
	<path class="st16" d="M3619.5,4756.9c-21.9-51.9-33.1-107-33.1-163.8s11.1-111.9,33.1-163.8c21.2-50.1,51.5-95.1,90.1-133.7
		s83.6-68.9,133.7-90.1c15.1-6.4,30.4-11.8,45.9-16.4h1.8c-16.1,4.6-31.9,10.2-47.5,16.8c-50.1,21.2-95,51.5-133.6,90
		s-68.9,83.5-90,133.5c-21.9,51.9-33.1,106.9-33.1,163.6s11.1,111.7,33.1,163.6c21.2,50.1,51.5,95,90,133.5
		c38.6,38.6,83.5,68.9,133.6,90c51.9,21.9,106.9,33,163.6,33c56.7,0,111.7-11.1,163.6-33c50.1-21.2,95-51.5,133.5-90
		c38.6-38.6,68.9-83.5,90-133.5c21.9-51.9,33-106.9,33-163.6s-11.1-111.8-33-163.6c-21.2-50-51.5-95-90-133.5
		c-38.6-38.6-83.5-68.9-133.6-90c-15.6-6.6-31.4-12.2-47.5-16.8h1.8c15.5,4.5,30.9,10,45.9,16.4c50.1,21.2,95.1,51.5,133.7,90.1
		s68.9,83.6,90.1,133.7c22,51.9,33.1,107,33.1,163.8s-11.1,111.9-33.1,163.8c-21.2,50.1-51.5,95.1-90.1,133.7s-83.6,68.9-133.7,90.1
		c-51.9,22-107,33.1-163.8,33.1s-111.9-11.1-163.8-33.1c-50.1-21.2-95.1-51.5-133.7-90.1C3671,4852,3640.7,4807,3619.5,4756.9z"/>
	<path class="st16" d="M3619.5,4429.3c-21.9,51.9-33.1,107-33.1,163.8s11.1,111.9,33.1,163.8c21.2,50.1,51.5,95.1,90.1,133.7
		s83.6,68.9,133.7,90.1c51.9,22,107,33.1,163.8,33.1s111.9-11.1,163.8-33.1c50.1-21.2,95.1-51.5,133.7-90.1s68.9-83.6,90.1-133.7
		c22-51.9,33.1-107,33.1-163.8s-11.1-111.9-33.1-163.8c-21.2-50.1-51.5-95.1-90.1-133.7s-83.6-68.9-133.7-90.1
		c-15.1-6.4-30.4-11.8-45.9-16.4h6.4c172.6,53.2,298.4,214.2,298.4,404c0,233-189.6,422.6-422.6,422.6s-422.6-189.6-422.6-422.6
		c0-189.8,125.8-350.8,298.4-404h6.4c-15.6,4.5-30.9,10-45.9,16.4c-50.1,21.2-95.1,51.5-133.7,90.1
		C3671,4334.2,3640.7,4379.2,3619.5,4429.3z"/>
	<path class="st16" d="M3584,4593.1c0-189.7,124.9-350.3,296.9-404h1.9c-172.6,53.2-298.4,214.2-298.4,404
		c0,233,189.6,422.6,422.6,422.6s422.6-189.6,422.6-422.6c0-189.8-125.8-350.8-298.4-404h1.9c172.1,53.7,296.9,214.2,296.9,404
		c0,233.7-189.4,423.1-423.1,423.1S3584,4826.8,3584,4593.1z"/>
	<path class="st16" d="M3881,4189.1c-172.1,53.7-296.9,214.2-296.9,404c0,233.7,189.4,423.1,423.1,423.1s423.1-189.4,423.1-423.1
		c0-189.7-124.9-350.3-296.9-404h1.7c12.5,4,24.9,8.5,37,13.7c50.4,21.3,95.7,51.9,134.6,90.8s69.5,84.2,90.8,134.6
		c22.1,52.2,33.3,107.7,33.3,164.9s-11.2,112.7-33.3,164.9c-21.3,50.4-51.9,95.8-90.8,134.6c-38.9,38.9-84.2,69.5-134.6,90.8
		c-52.2,22.1-107.7,33.3-164.9,33.3s-112.7-11.2-164.9-33.3c-50.4-21.3-95.8-51.9-134.6-90.8c-38.9-38.9-69.4-84.2-90.8-134.6
		c-22.1-52.2-33.3-107.7-33.3-164.9s11.2-112.7,33.3-164.9c21.3-50.4,51.9-95.8,90.8-134.6c38.9-38.9,84.2-69.5,134.6-90.8
		c12.2-5.1,24.5-9.7,37-13.7H3881z"/>
	<path class="st16" d="M3458,3416.3v39.2c0,55.2-44.8,100-100,100s-100-44.8-100-100v-39.2H3458z"/>
	<path class="st16" d="M3034.8,3416.3v39.2c0,55.2-44.8,100-100,100s-100-44.8-100-100v-39.2H3034.8z"/>
	<path class="st16" d="M2611.7,3416.3v39.2c0,55.2-44.8,100-100,100s-100-44.8-100-100v-39.2H2611.7z"/>
	<path class="st16" d="M2474.9,4429.9c21.9,51.7,33,106.6,33,163.2s-11.1,111.5-33,163.2c-21.1,49.9-51.3,94.8-89.8,133.2
		c-38.5,38.5-83.3,68.7-133.2,89.8c-51.7,21.9-106.7,33-163.2,33c-56.6,0-111.5-11.1-163.2-33c-49.9-21.1-94.8-51.3-133.2-89.8
		c-38.5-38.5-68.7-83.3-89.8-133.2c-21.9-51.7-33-106.6-33-163.2s11.1-111.5,33-163.2c21.1-49.9,51.3-94.8,89.8-133.2
		c38.5-38.5,83.3-68.7,133.2-89.8c16.6-7,33.6-13,50.8-17.7H2201c17.2,4.8,34.2,10.7,50.8,17.7c49.9,21.1,94.8,51.3,133.2,89.8
		C2423.5,4335.2,2453.8,4380,2474.9,4429.9z M2360.6,4593.1c0-150-122-272-272-272c-149.9,0-271.9,122-271.9,272s122,272,271.9,272
		C2238.6,4865.1,2360.6,4743.1,2360.6,4593.1z"/>
	<path class="st16" d="M2088.6,4322.2c149.4,0,271,121.5,271,271s-121.6,271-271,271s-270.9-121.5-270.9-271
		S1939.2,4322.2,2088.6,4322.2z"/>
	<path class="st16" d="M2088.6,4173.9c38.4,0,76,5.1,112.4,15.2h-224.8C2012.6,4179,2050.2,4173.9,2088.6,4173.9z"/>
	<path class="st16" d="M2188.6,3416.3v39.2c0,55.2-44.8,100-100,100s-100-44.8-100-100v-39.2h79.4H2188.6z"/>
	<path class="st16" d="M1980.4,3666.3h-455.6v272.9h3263.4c69,0,125,56,125,125c0,69-56,125-125,125H4135
		c-41.2-13-84-19.6-127.9-19.6s-86.7,6.6-127.9,19.6H2216.5c-41.2-13-84-19.6-127.9-19.6c-43.8,0-86.7,6.6-127.8,19.6h-535.9
		c-29.2,0-57.3-7.5-81.4-21.8c-43-25.5-68.6-69.6-68.6-118v-493.3c0-48.4,25.7-92.5,68.6-118c24.1-14.3,52.2-21.8,81.4-21.8h390.9
		l15.2,111.9C1836.9,3605.3,1901.7,3666.3,1980.4,3666.3z"/>
	<path class="st16" d="M2088.6,4173.4c39.1,0,77.3,5.3,114.3,15.7h-1.8c-36.4-10.1-74-15.2-112.4-15.2s-76,5.1-112.4,15.2h-1.9
		C2011.3,4178.7,2049.6,4173.4,2088.6,4173.4z"/>
	<path class="st16" d="M2088.6,4172.9c39.7,0,78.6,5.5,116.1,16.2h-1.8c-37-10.5-75.2-15.7-114.3-15.7c-39,0-77.3,5.3-114.3,15.7
		h-1.8C2010.1,4178.4,2048.9,4172.9,2088.6,4172.9z"/>
	<path class="st16" d="M2088.6,4170.5c43.2,0,84.9,6.5,124.2,18.6h-8.1c-37.5-10.8-76.4-16.2-116.1-16.2
		c-39.7,0-78.6,5.5-116.1,16.2h-8.1C2003.7,4177,2045.4,4170.5,2088.6,4170.5z"/>
	<path class="st16" d="M2212.8,4189.1c-39.3-12.1-81-18.6-124.2-18.6s-84.9,6.5-124.2,18.6h-1.9c39.8-12.4,82.2-19.1,126.2-19.1
		c43.9,0,86.3,6.7,126.2,19.1H2212.8z"/>
	<path class="st16" d="M2088.6,4169.5c43.9,0,86.7,6.6,127.9,19.6h-1.7c-39.8-12.4-82.2-19.1-126.2-19.1
		c-43.9,0-86.3,6.7-126.2,19.1h-1.7C2001.9,4176.1,2044.8,4169.5,2088.6,4169.5z"/>
	<path class="st16" d="M2088.6,4864.6c-149.7,0-271.4-121.8-271.4-271.5s121.8-271.5,271.4-271.5s271.5,121.8,271.5,271.5
		S2238.3,4864.6,2088.6,4864.6z M1817.7,4593.1c0,149.4,121.6,271,271,271s271-121.5,271-271s-121.6-271-271-271
		C1939.2,4322.2,1817.7,4443.7,1817.7,4593.1z"/>
	<path class="st16" d="M2088.6,4321.2c150,0,272,122,272,272s-122,272-272,272c-149.9,0-271.9-122-271.9-272
		S1938.7,4321.2,2088.6,4321.2z M2088.6,4864.6c149.7,0,271.5-121.8,271.5-271.5s-121.8-271.5-271.5-271.5s-271.4,121.8-271.4,271.5
		S1938.9,4864.6,2088.6,4864.6z"/>
	<path class="st16" d="M1669.4,4593.1c0,56.5,11.1,111.5,33,163.2c21.1,50,51.3,94.8,89.8,133.2c38.5,38.5,83.3,68.7,133.2,89.8
		c51.7,21.9,106.7,33,163.2,33c56.6,0,111.5-11.1,163.2-33c49.9-21.1,94.8-51.3,133.2-89.8c38.5-38.5,68.7-83.3,89.8-133.2
		c21.9-51.7,33-106.6,33-163.2s-11.1-111.5-33-163.2c-21.1-49.9-51.3-94.8-89.8-133.2c-38.5-38.5-83.3-68.7-133.2-89.8
		c-16.6-7-33.6-12.9-50.8-17.7h1.9c16.6,4.7,33,10.5,49.1,17.3c50,21.1,94.9,51.4,133.4,89.9s68.8,83.4,89.9,133.4
		c21.9,51.8,33,106.8,33,163.4s-11.1,111.6-33,163.4c-21.1,50-51.4,94.9-89.9,133.4s-83.4,68.8-133.4,89.9
		c-51.8,21.9-106.8,33-163.4,33c-56.6,0-111.6-11.1-163.4-33c-50-21.1-94.9-51.4-133.4-89.9s-68.8-83.4-89.9-133.4
		c-21.9-51.8-33-106.8-33-163.4s11.1-111.6,33-163.4c21.2-50,51.4-94.9,89.9-133.4s83.4-68.8,133.4-89.9
		c16.1-6.8,32.5-12.6,49.1-17.3h1.9c-17.2,4.8-34.2,10.7-50.8,17.7c-49.9,21.1-94.8,51.3-133.2,89.8
		c-38.5,38.5-68.7,83.3-89.8,133.2C1680.5,4481.7,1669.4,4536.6,1669.4,4593.1z"/>
	<path class="st16" d="M1668.9,4593.1c0,56.6,11.1,111.6,33,163.4c21.2,50,51.4,94.9,89.9,133.4s83.4,68.8,133.4,89.9
		c51.8,21.9,106.8,33,163.4,33c56.6,0,111.6-11.1,163.4-33c50-21.1,94.9-51.4,133.4-89.9s68.8-83.4,89.9-133.4
		c21.9-51.8,33-106.8,33-163.4s-11.1-111.6-33-163.4c-21.1-50-51.4-94.9-89.9-133.4s-83.4-68.8-133.4-89.9
		c-16.1-6.8-32.5-12.6-49.1-17.3h1.8c16.1,4.6,31.9,10.2,47.5,16.8c50.1,21.2,95,51.5,133.6,90s68.9,83.5,90,133.5
		c21.9,51.9,33.1,106.9,33.1,163.6s-11.1,111.7-33.1,163.6c-21.2,50-51.5,95-90,133.5c-38.6,38.6-83.5,68.9-133.6,90
		c-51.9,21.9-106.9,33-163.6,33c-56.7,0-111.7-11.1-163.6-33c-50.1-21.2-95-51.5-133.6-90s-68.8-83.5-90-133.5
		c-21.9-51.9-33.1-106.9-33.1-163.6s11.1-111.7,33.1-163.6c21.2-50.1,51.5-95,90-133.5c38.6-38.6,83.5-68.9,133.6-90
		c15.6-6.6,31.4-12.2,47.5-16.8h1.8c-16.7,4.7-33.1,10.5-49.1,17.3c-50,21.1-94.9,51.4-133.4,89.9s-68.8,83.4-89.9,133.4
		C1680,4481.5,1668.9,4536.5,1668.9,4593.1z"/>
	<path class="st16" d="M1666,4593.1c0-189.8,125.8-350.8,298.4-404h8.1c-16.1,4.6-31.9,10.2-47.5,16.8c-50,21.2-95,51.5-133.6,90
		s-68.8,83.5-90,133.5c-21.9,51.9-33.1,106.9-33.1,163.6s11.1,111.7,33.1,163.6c21.2,50.1,51.5,95,90,133.5
		c38.6,38.6,83.5,68.9,133.6,90c51.9,21.9,106.9,33,163.6,33c56.7,0,111.7-11.1,163.6-33c50.1-21.2,95-51.5,133.6-90
		c38.6-38.6,68.9-83.5,90-133.5c21.9-51.9,33.1-106.9,33.1-163.6s-11.1-111.8-33.1-163.6c-21.2-50-51.5-95-90-133.5
		s-83.5-68.9-133.6-90c-15.6-6.6-31.4-12.2-47.5-16.8h8.1c172.6,53.2,298.4,214.2,298.4,404c0,233-189.6,422.6-422.6,422.6
		C1855.6,5015.8,1666,4826.1,1666,4593.1z"/>
	<path class="st16" d="M1964.4,4189.1c-172.6,53.2-298.4,214.2-298.4,404c0,233,189.6,422.6,422.6,422.6s422.6-189.6,422.6-422.6
		c0-189.8-125.8-350.8-298.4-404h1.9c172.1,53.7,297,214.2,297,404c0,233.7-189.4,423.1-423.1,423.1
		c-233.7,0-423.1-189.4-423.1-423.1c0-189.7,124.9-350.3,296.9-404H1964.4z"/>
	<path class="st16" d="M1665,4593.1c0-57.2,11.2-112.7,33.3-164.9c21.3-50.4,51.9-95.8,90.8-134.6c38.9-38.9,84.2-69.5,134.7-90.8
		c12.2-5.1,24.5-9.7,37-13.7h1.7c-172.1,53.7-296.9,214.2-296.9,404c0,233.7,189.4,423.1,423.1,423.1s423.1-189.4,423.1-423.1
		c0-189.7-124.9-350.3-296.9-404h1.7c12.5,4,24.9,8.5,37,13.7c50.4,21.3,95.8,51.9,134.6,90.8c38.9,38.9,69.4,84.2,90.8,134.6
		c22.1,52.2,33.3,107.7,33.3,164.9s-11.2,112.7-33.3,164.9c-21.3,50.4-51.9,95.8-90.8,134.6c-38.9,38.9-84.2,69.5-134.6,90.8
		c-52.2,22.1-107.7,33.3-164.9,33.3s-112.7-11.2-164.9-33.3c-50.4-21.3-95.7-51.9-134.7-90.8c-38.9-38.9-69.4-84.2-90.8-134.6
		C1676.2,4705.8,1665,4650.3,1665,4593.1z"/>
	<g class="st2">
		<polygon class="st20" points="1507.9,1671.3 4842.5,1671.3 4480.5,3534 1845.2,3534 		"/>
		<line class="st20" x1="1757.6" y1="3068.3" x2="4571" y2="3068.3"/>
		<line class="st20" x1="1676.6" y1="2602.7" x2="4616.3" y2="2602.7"/>
		<line class="st20" x1="1611.1" y1="2137" x2="4752" y2="2137"/>
		<line class="st20" x1="3903.7" y1="1671.3" x2="3602.1" y2="3534"/>
		<line class="st20" x1="2461.8" y1="1671.3" x2="2723.6" y2="3534"/>
	</g>
	<polyline class="st21" points="1507.9,1671.3 1324.3,777.7 827.2,777.7 	"/>
</g>
<g>
	<g>
		<path class="st22" d="M4782.4,3527.1l296.8-1981.9c0-15.8-12.4-28.8-27.7-28.8H1412c-15.3,0-27.7,13-27.7,28.8l314.1,1926.5"/>
		<line class="st23" x1="2147.5" y1="1516.5" x2="2460.7" y2="3527.1"/>
		<line class="st23" x1="4020.1" y1="3496.6" x2="4315.9" y2="1516.5"/>
		<line class="st23" x1="3231.7" y1="3496.6" x2="3231.7" y2="1516.5"/>
		<line class="st23" x1="4920.3" y1="2198.5" x2="1490.8" y2="2198.5"/>
		<line class="st23" x1="1603.3" y1="2888.7" x2="4878" y2="2888.7"/>
	</g>
	<path class="st24" d="M5081.7,4134.6H1426.6c-15.2,0-27.6-13-27.6-28.8v-539.1c0-15.8,12.4-28.8,27.6-28.8h3655.2"/>
	<path class="st12" d="M2587.7,4490.7c24.2,59.6,36.4,122.8,36.4,187.9s-12.2,128.4-36.4,187.9c-23.3,57.5-56.6,109.1-99.1,153.4
		c-42.5,44.3-92,79.1-147.1,103.4c-57.2,25.2-117.7,38-180.2,38s-123.1-12.8-180.2-38c-55.1-24.3-104.6-59.1-147.1-103.4
		c-42.5-44.3-75.9-95.9-99.1-153.4c-24.2-59.6-36.4-122.8-36.4-187.9s12.2-128.4,36.4-187.9c23.4-57.5,56.6-109.1,99.1-153.4
		c42.5-44.3,92-79.1,147.1-103.4c57.2-25.2,117.7-38,180.2-38c62.4,0,123.1,12.8,180.2,38c55.1,24.3,104.6,59.1,147.1,103.4
		C2531.1,4381.5,2564.5,4433.2,2587.7,4490.7z M2460.7,4678.6c0-172.2-134.3-312.3-299.3-312.3c-165,0-299.4,140.1-299.4,312.3
		s134.3,312.2,299.4,312.2C2326.3,4990.9,2460.7,4850.8,2460.7,4678.6z"/>
	<path class="st12" d="M4746,4490.7c24.2,59.6,36.4,122.8,36.4,187.9s-12.2,128.4-36.4,187.9c-23.3,57.5-56.6,109.1-99.1,153.4
		c-42.5,44.3-92,79.1-147.1,103.4c-57.2,25.2-117.7,38-180.2,38c-62.4,0-123.1-12.8-180.2-38c-55.1-24.3-104.6-59.1-147.1-103.4
		c-42.5-44.3-75.9-95.9-99.1-153.4c-24.2-59.6-36.4-122.8-36.4-187.9s12.2-128.4,36.4-187.9c23.4-57.5,56.6-109.1,99.1-153.4
		c42.5-44.3,92-79.1,147.1-103.4c57.2-25.2,117.7-38,180.2-38c62.4,0,123.1,12.8,180.2,38c55.1,24.3,104.6,59.1,147.1,103.4
		C4689.3,4381.7,4722.6,4433.2,4746,4490.7z M4618.8,4678.6c0-172.2-134.3-312.3-299.4-312.3c-165.1,0-299.3,140.1-299.3,312.3
		s134.3,312.2,299.3,312.2C4484.6,4990.9,4618.8,4850.8,4618.8,4678.6z"/>
	<polyline class="st25" points="1529.2,2434.4 1215.1,508 587.6,508 	"/>
</g>
</svg>
