<svg xmlns="http://www.w3.org/2000/svg" width="4265.3" height="4364.04" viewBox="0 0 4265.3 4364.04">
  <defs>
    <style>
      .cls-1 {
        fill: #fff;
      }

      .cls-2, .cls-3 {
        fill: none;
        stroke: #fff;
        stroke-linejoin: round;
        stroke-miterlimit: 10;
        stroke-width: 250px;
      }

      .cls-3 {
        stroke-linecap: round;
      }
    </style>
  </defs>
  <g id="shop_icon" data-name="shop icon" transform="translate(-498.19 -706.71)">
    <g id="Group_17" data-name="Group 17">
      <path id="Path_505" data-name="Path 505" class="cls-1" d="M4523.3,3470.25v39.21a100,100,0,0,1-200,0v-39.21Z"/>
      <path id="Path_506" data-name="Path 506" class="cls-1" d="M4323.3,3509.47a100,100,0,0,0,200,0v-39.21h60.9a125,125,0,0,1,0,250H3955.51c70.7,0,130.13-49.17,145.9-115.1l56.48-134.9H4323.3Z"/>
      <path id="Path_507" data-name="Path 507" class="cls-1" d="M4188.93,4484.12a418.714,418.714,0,1,1-496.32-240.97h221.05a419.665,419.665,0,0,1,275.27,240.97Zm-113.34,163.01c0-150.23-122.22-272.45-272.45-272.45s-272.46,122.22-272.46,272.45,122.23,272.45,272.46,272.45S4075.59,4797.35,4075.59,4647.13Z"/>
      <path id="Path_508" data-name="Path 508" class="cls-1" d="M4100.19,3470.25v39.21a100,100,0,0,1-200,0v-39.21Z"/>
      <path id="Path_509" data-name="Path 509" class="cls-1" d="M3803.14,4376.67c149.13,0,270.45,121.32,270.45,270.45s-121.32,270.45-270.45,270.45-270.46-121.32-270.46-270.45S3654.01,4376.67,3803.14,4376.67Z"/>
      <path id="Path_510" data-name="Path 510" class="cls-1" d="M4061.98,4316.67c-1.24-.98-2.48-1.94-3.74-2.9.3.22.59.44.88.67C4060.08,4315.17,4061.03,4315.9,4061.98,4316.67Z"/>
      <path id="Path_511" data-name="Path 511" class="cls-1" d="M4058.31,4980.44q1.785-1.365,3.55-2.76C4060.69,4978.6,4059.5,4979.52,4058.31,4980.44Z"/>
      <path id="Path_512" data-name="Path 512" class="cls-1" d="M4057.7,4313.35q-1.845-1.41-3.72-2.81Q4055.855,4311.92,4057.7,4313.35Z"/>
      <path id="Path_513" data-name="Path 513" class="cls-1" d="M4053.88,4983.79c-1.31.97-2.62,1.95-3.95,2.9C4051.26,4985.75,4052.57,4984.77,4053.88,4983.79Z"/>
      <path id="Path_514" data-name="Path 514" class="cls-1" d="M4041.69,4301.69c-1.14-.79-2.28-1.57-3.44-2.35C4039.4,4300.13,4040.54,4300.9,4041.69,4301.69Z"/>
      <path id="Path_515" data-name="Path 515" class="cls-1" d="M4039.28,4994.21c-.46.32-.92.62-1.38.93Z"/>
      <path id="Path_516" data-name="Path 516" class="cls-1" d="M4029.95,4293.88c.83.52,1.66,1.06,2.47,1.59C4031.6,4294.92,4030.77,4294.4,4029.95,4293.88Z"/>
      <path id="Path_517" data-name="Path 517" class="cls-1" d="M4025.72,4291.19c-.29-.18-.58-.36-.88-.54-.12-.08-.25-.16-.37-.24C4024.89,4290.65,4025.3,4290.92,4025.72,4291.19Z"/>
      <path id="Path_518" data-name="Path 518" class="cls-1" d="M4020.53,5006.27c-1.43.86-2.86,1.72-4.3,2.56Q4018.39,5007.555,4020.53,5006.27Z"/>
      <path id="Path_519" data-name="Path 519" class="cls-1" d="M4009.07,4281.29q1.41.78,2.79,1.59C4010.94,4282.35,4010.01,4281.83,4009.07,4281.29Z"/>
      <path id="Path_520" data-name="Path 520" class="cls-1" d="M4005.65,4279.38c1.15.63,2.29,1.26,3.42,1.91C4007.94,4280.65,4006.8,4280.02,4005.65,4279.38Z"/>
      <path id="Path_521" data-name="Path 521" class="cls-1" d="M3053.96,3509.47a100,100,0,0,0,200,0v-39.21h223.11v39.21a100,100,0,0,0,200,0v-39.21h223.12v39.21a100,100,0,0,0,200,0v-39.21h57.7l-56.48,134.9c-15.77,65.93-75.2,115.1-145.9,115.1H1776.4c-78.72,0-143.48-60.96-149.54-138.15l-15.16-111.85h172.91v39.21a100,100,0,0,0,200,0v-39.21h223.12v39.21a100,100,0,0,0,200,0v-39.21h223.11v39.21a100,100,0,0,0,200,0v-39.21h223.12Z"/>
      <path id="Path_522" data-name="Path 522" class="cls-1" d="M3998.61,5018.65c.74-.39,1.47-.78,2.21-1.18C4000.08,5017.87,3999.35,5018.25,3998.61,5018.65Z"/>
      <path id="Path_523" data-name="Path 523" class="cls-1" d="M3989.59,5023.25c-.27.13-.54.27-.81.4C3989.05,5023.52,3989.32,5023.38,3989.59,5023.25Z"/>
      <path id="Path_524" data-name="Path 524" class="cls-1" d="M3979.13,4265.98c.93.42,1.86.86,2.78,1.3C3980.99,4266.85,3980.06,4266.42,3979.13,4265.98Z"/>
      <path id="Path_525" data-name="Path 525" class="cls-1" d="M3974.48,4263.87l.01.01c-.22-.1-.45-.2-.67-.3C3974.04,4263.67,3974.26,4263.77,3974.48,4263.87Z"/>
      <path id="Path_526" data-name="Path 526" class="cls-1" d="M3962.09,4258.56c.44.18.88.36,1.32.55C3962.97,4258.92,3962.53,4258.75,3962.09,4258.56Z"/>
      <path id="Path_527" data-name="Path 527" class="cls-1" d="M3962.09,4258.56c-.14-.06-.28-.11-.42-.17.13.05.27.11.41.16Z"/>
      <path id="Path_528" data-name="Path 528" class="cls-1" d="M3944.3,5042.5c-.76.28-1.51.55-2.27.81C3942.79,5043.04,3943.55,5042.77,3944.3,5042.5Z"/>
      <path id="Path_529" data-name="Path 529" class="cls-1" d="M3933.19,4247.96c.6.18,1.19.38,1.79.58.37.12.75.24,1.12.38C3935.13,4248.58,3934.16,4248.27,3933.19,4247.96Z"/>
      <path id="Path_530" data-name="Path 530" class="cls-1" d="M3912.06,4241.67q2.52.675,5.04,1.39Q3914.58,4242.34,3912.06,4241.67Z"/>
      <path id="Path_531" data-name="Path 531" class="cls-1" d="M3803.14,4228.4a417.532,417.532,0,0,1,110.52,14.74H3692.61A418.084,418.084,0,0,1,3803.14,4228.4Z"/>
      <path id="Path_532" data-name="Path 532" class="cls-1" d="M3900.19,3438.45v31.8h-13.32Z"/>
      <path id="Path_533" data-name="Path 533" class="cls-1" d="M3868.66,4232.48c.76.11,1.51.23,2.27.36C3870.18,4232.71,3869.42,4232.6,3868.66,4232.48Z"/>
      <path id="Path_534" data-name="Path 534" class="cls-1" d="M3846.04,4229.56c1.49.14,2.97.3,4.46.47C3849.01,4229.88,3847.53,4229.71,3846.04,4229.56Z"/>
      <path id="Path_535" data-name="Path 535" class="cls-1" d="M3838.94,4228.92c-1.2-.11-2.41-.21-3.62-.3C3836.53,4228.71,3837.73,4228.79,3838.94,4228.92Z"/>
      <path id="Path_536" data-name="Path 536" class="cls-1" d="M3829.05,4228.19c-1.58-.09-3.17-.18-4.75-.26C3825.89,4228,3827.47,4228.08,3829.05,4228.19Z"/>
      <path id="Path_537" data-name="Path 537" class="cls-1" d="M3824.3,4227.92c-1.66-.08-3.33-.15-5-.22C3820.97,4227.77,3822.64,4227.83,3824.3,4227.92Z"/>
      <path id="Path_538" data-name="Path 538" class="cls-1" d="M3792.04,4227.56c-1.09.02-2.19.05-3.27.09C3789.86,4227.6,3790.95,4227.58,3792.04,4227.56Z"/>
      <path id="Path_539" data-name="Path 539" class="cls-1" d="M3786.97,4227.71c-1.66.07-3.32.14-4.97.22C3783.65,4227.83,3785.31,4227.77,3786.97,4227.71Z"/>
      <path id="Path_540" data-name="Path 540" class="cls-1" d="M3781.97,4227.92l-3.94.21C3779.34,4228.06,3780.65,4227.98,3781.97,4227.92Z"/>
      <path id="Path_541" data-name="Path 541" class="cls-1" d="M3766.6,4228.96c1.44-.13,2.86-.25,4.3-.34C3769.46,4228.73,3768.03,4228.85,3766.6,4228.96Z"/>
      <path id="Path_542" data-name="Path 542" class="cls-1" d="M3766.13,4229c-1.72.15-3.42.31-5.13.48Q3763.565,4229.225,3766.13,4229Z"/>
      <path id="Path_543" data-name="Path 543" class="cls-1" d="M3750.63,4230.65c-1.51.19-3.01.38-4.52.59C3747.61,4231.02,3749.12,4230.83,3750.63,4230.65Z"/>
      <path id="Path_544" data-name="Path 544" class="cls-1" d="M3740.2,4232.08q-2.58.39-5.16.81Q3737.62,4232.455,3740.2,4232.08Z"/>
      <path id="Path_545" data-name="Path 545" class="cls-1" d="M3731.19,4233.54c1.28-.23,2.57-.45,3.85-.65C3733.75,4233.1,3732.47,4233.31,3731.19,4233.54Z"/>
      <path id="Path_546" data-name="Path 546" class="cls-1" d="M3729.89,4233.75v.01a1.218,1.218,0,0,0-.19.03A.7.7,0,0,0,3729.89,4233.75Z"/>
      <path id="Path_547" data-name="Path 547" class="cls-1" d="M3803.14,4227.9a418.082,418.082,0,0,1,112.41,15.24h-1.89a421.739,421.739,0,0,0-221.05,0h-1.88A418.492,418.492,0,0,1,3803.14,4227.9Z"/>
      <path id="Path_548" data-name="Path 548" class="cls-1" d="M3697.44,4240.81c-.91.24-1.83.47-2.73.72C3695.62,4241.29,3696.53,4241.04,3697.44,4240.81Z"/>
      <path id="Path_549" data-name="Path 549" class="cls-1" d="M3882.04,4234.79c1.22.23,2.45.47,3.67.72.65.12,1.29.25,1.93.39.98.19,1.95.39,2.92.61.59.11,1.17.24,1.75.37,1.27.27,2.54.55,3.8.84.34.07.68.15,1.01.23,1.16.26,2.32.53,3.48.82.45.1.89.2,1.34.31.14.03.28.07.42.11q4.86,1.17,9.7,2.47c1.68.45,3.36.92,5.04,1.39.11.03.21.06.31.09h-1.86a422.18,422.18,0,0,0-224.82,0h-1.86c1.94-.56,3.89-1.09,5.84-1.61.9-.25,1.82-.48,2.73-.72.61-.16,1.22-.31,1.83-.47,1.66-.43,3.33-.84,4.99-1.24a2.958,2.958,0,0,1,.38-.09c1.59-.39,3.18-.76,4.77-1.12,0,0,.01-.01.01,0,1.7-.39,3.39-.77,5.09-1.13,1.36-.3,2.72-.58,4.09-.86.89-.19,1.79-.37,2.68-.53.79-.17,1.58-.32,2.37-.47q2.82-.555,5.66-1.04a2.657,2.657,0,0,1,.39-.07,1.218,1.218,0,0,1,.19-.03v-.01c.43-.08.87-.16,1.3-.22,1.28-.23,2.56-.44,3.85-.65q2.58-.42,5.16-.81,2.955-.45,5.91-.84c1.51-.21,3.01-.4,4.52-.59,1.66-.21,3.32-.4,4.98-.59.14-.02.29-.04.43-.05,1.65-.18,3.3-.36,4.96-.52,1.71-.17,3.41-.33,5.13-.48.16-.02.32-.03.47-.04,1.43-.12,2.86-.24,4.3-.34.07-.01.15-.01.22-.02q.42-.045.84-.06c1.51-.12,3.02-.22,4.53-.31.24-.02.47-.04.7-.05.28-.02.56-.03.84-.05l3.94-.21c.01,0,.02-.01.03,0,1.65-.08,3.31-.15,4.97-.22l.91-.03.89-.03c1.08-.04,2.18-.07,3.27-.09.47-.02.93-.04,1.4-.04,1.19-.03,2.37-.05,3.56-.06.62-.02,1.25-.03,1.88-.03,1.42-.01,2.84-.02,4.26-.02q2.655,0,5.31.03c3.44.04,6.88.13,10.31.25.18,0,.36.01.54.02,1.67.07,3.34.14,5,.22,1.58.08,3.17.17,4.75.26.37.02.73.04,1.09.07,1.25.08,2.49.16,3.73.26.49.02.97.06,1.45.1,1.21.09,2.42.19,3.62.3h.06c.46.03.92.07,1.37.11,1.63.14,3.26.3,4.89.46.01-.01.01-.01.02,0,.25.02.51.05.76.08,1.49.15,2.97.31,4.46.47l.29.03q5.055.57,10.1,1.27,2.55.345,5.1.73l.43.06c.75.11,1.49.23,2.24.35l2.27.36a2.808,2.808,0,0,1,.31.05c.21.03.42.07.62.11,1.32.21,2.63.43,3.95.66.51.09,1.02.18,1.52.27,1.22.22,2.44.44,3.66.67C3881.34,4234.65,3881.69,4234.73,3882.04,4234.79Z"/>
      <path id="Path_550" data-name="Path 550" class="cls-1" d="M3803.14,4226.9a419,419,0,0,1,116.09,16.24h-1.82c-.1-.03-.2-.06-.31-.09q-2.52-.72-5.04-1.39-4.83-1.29-9.7-2.47c-.14-.04-.28-.08-.42-.11-.45-.11-.89-.21-1.34-.31-1.16-.29-2.32-.56-3.48-.82-.33-.08-.67-.16-1.01-.23-1.26-.29-2.53-.57-3.8-.84-.58-.13-1.16-.26-1.75-.37-.97-.22-1.94-.42-2.92-.61-.64-.14-1.28-.27-1.93-.39-1.22-.25-2.45-.49-3.67-.72-.35-.07-.7-.14-1.05-.2-1.22-.23-2.44-.45-3.66-.67-.5-.09-1.01-.18-1.52-.27-1.32-.23-2.63-.45-3.95-.66-.2-.04-.41-.08-.62-.11a2.808,2.808,0,0,0-.31-.05c-.76-.13-1.51-.25-2.27-.36s-1.49-.24-2.24-.35l-.43-.06q-2.55-.39-5.1-.73-5.04-.705-10.1-1.27l-.29-.03c-1.49-.17-2.97-.33-4.46-.47-.25-.03-.51-.06-.76-.08-.01-.01-.01-.01-.02,0-1.63-.16-3.26-.32-4.89-.46-.45-.04-.91-.08-1.37-.11h-.06c-1.21-.12-2.41-.21-3.62-.3-.48-.04-.96-.08-1.45-.1-1.24-.1-2.48-.18-3.73-.26-.36-.03-.72-.05-1.09-.07-1.58-.1-3.16-.19-4.75-.26-1.66-.09-3.33-.16-5-.22-.18-.01-.36-.02-.54-.02-3.43-.12-6.87-.21-10.31-.25q-2.655-.03-5.31-.03c-1.42,0-2.84.01-4.26.02-.63,0-1.26.01-1.88.03-1.19.01-2.37.03-3.56.06-.47,0-.93.02-1.4.04q-1.635.03-3.27.09l-.89.03-.91.03c-1.66.06-3.32.13-4.97.22-.01-.01-.02,0-.03,0-1.32.06-2.63.13-3.94.21-.28.02-.56.03-.84.05-.23.01-.46.03-.7.05-1.51.09-3.02.19-4.53.31q-.42.015-.84.06c-.07.01-.15.01-.22.02-1.44.09-2.86.21-4.3.34-.15.01-.31.02-.47.04q-2.565.21-5.13.48c-1.66.16-3.31.34-4.96.52-.14.01-.29.03-.43.05-1.66.19-3.32.38-4.98.59-1.51.18-3.02.38-4.52.59q-2.955.39-5.91.84-2.58.375-5.16.81c-1.28.2-2.57.42-3.85.65-.43.06-.87.14-1.3.22-.07.01-.13.03-.19.04a2.657,2.657,0,0,0-.39.07q-2.835.48-5.66,1.04c-.79.15-1.58.3-2.37.47-.89.16-1.79.34-2.68.53-1.37.28-2.73.56-4.09.86-1.7.36-3.39.74-5.09,1.13,0-.01-.01,0-.01,0q-2.385.54-4.77,1.12a2.948,2.948,0,0,0-.38.09c-1.66.4-3.33.81-4.99,1.24-.61.16-1.22.31-1.83.47q-1.365.345-2.73.72c-1.95.52-3.9,1.05-5.84,1.61h-1.82A419.015,419.015,0,0,1,3803.14,4226.9Z"/>
      <path id="Path_551" data-name="Path 551" class="cls-1" d="M3919.23,4243.15a423.044,423.044,0,0,0-232.18,0h-1.79a423.374,423.374,0,0,1,235.75,0Z"/>
      <path id="Path_552" data-name="Path 552" class="cls-1" d="M3921.01,4243.15a423.374,423.374,0,0,0-235.75,0h-6.35a423.517,423.517,0,0,1,248.46,0Z"/>
      <path id="Path_553" data-name="Path 553" class="cls-1" d="M3927.37,4243.15a423.517,423.517,0,0,0-248.46,0h-1.94a425.638,425.638,0,0,1,252.34,0Z"/>
      <path id="Path_554" data-name="Path 554" class="cls-1" d="M3677.07,3470.25v39.21a100,100,0,0,1-200,0v-39.21Z"/>
      <path id="Path_555" data-name="Path 555" class="cls-1" d="M3803.14,4223.52A421.961,421.961,0,0,1,3931,4243.15h-1.69a425.638,425.638,0,0,0-252.34,0h-1.69A421.559,421.559,0,0,1,3803.14,4223.52Z"/>
      <path id="Path_556" data-name="Path 556" class="cls-1" d="M3674.17,4247.6c-.95.31-1.9.62-2.85.94C3672.27,4248.21,3673.22,4247.9,3674.17,4247.6Z"/>
      <path id="Path_557" data-name="Path 557" class="cls-1" d="M3657.02,4253.56c-.53.2-1.05.39-1.58.59C3655.97,4253.94,3656.49,4253.75,3657.02,4253.56Z"/>
      <path id="Path_558" data-name="Path 558" class="cls-1" d="M3645.8,4257.92c-.42.17-.84.33-1.25.51C3644.97,4258.25,3645.38,4258.08,3645.8,4257.92Z"/>
      <path id="Path_559" data-name="Path 559" class="cls-1" d="M3644.54,4258.42c-.56.23-1.12.46-1.67.7C3643.43,4258.88,3643.99,4258.65,3644.54,4258.42Z"/>
      <path id="Path_560" data-name="Path 560" class="cls-1" d="M3612.16,5020.98c-1.5-.76-2.99-1.54-4.48-2.32Q3609.915,5019.83,3612.16,5020.98Z"/>
      <path id="Path_561" data-name="Path 561" class="cls-1" d="M3598.81,4280.4c-.49.27-.98.55-1.47.82C3597.83,4280.94,3598.32,4280.67,3598.81,4280.4Z"/>
      <path id="Path_562" data-name="Path 562" class="cls-1" d="M3563.53,4302.44c1.08-.76,2.16-1.5,3.25-2.24C3565.69,4300.94,3564.61,4301.69,3563.53,4302.44Z"/>
      <path id="Path_563" data-name="Path 563" class="cls-1" d="M3548.29,4313.58c.52-.41,1.05-.81,1.58-1.2C3549.34,4312.77,3548.81,4313.17,3548.29,4313.58Z"/>
      <path id="Path_564" data-name="Path 564" class="cls-1" d="M3544.28,4977.58c-1.32-1.04-2.64-2.08-3.95-3.14C3541.64,4975.48,3542.96,4976.54,3544.28,4977.58Z"/>
      <path id="Path_565" data-name="Path 565" class="cls-1" d="M3803.14,4376.67c-149.13,0-270.46,121.32-270.46,270.45s121.33,270.45,270.46,270.45,270.45-121.32,270.45-270.45S3952.27,4376.67,3803.14,4376.67Zm0,541.41c-149.41,0-270.96-121.55-270.96-270.95s121.55-270.95,270.96-270.95,270.95,121.55,270.95,270.95S3952.54,4918.08,3803.14,4918.08Z"/>
      <path id="Path_566" data-name="Path 566" class="cls-1" d="M3803.14,4919.08c-149.96,0-271.96-121.99-271.96-271.95s122-271.95,271.96-271.95,271.95,121.99,271.95,271.95S3953.09,4919.08,3803.14,4919.08Zm-271.46-271.95a270.137,270.137,0,0,0,60,170.04q1.02,1.275,2.07,2.52,8.3,10.065,17.53,19.3a270.637,270.637,0,0,0,191.86,79.59c149.68,0,271.45-121.77,271.45-271.45s-121.77-271.45-271.45-271.45S3531.68,4497.44,3531.68,4647.13Z"/>
      <path id="Path_567" data-name="Path 567" class="cls-1" d="M3591.68,4817.17a270.137,270.137,0,0,1-60-170.04c0-149.68,121.78-271.45,271.46-271.45s271.45,121.77,271.45,271.45-121.77,271.45-271.45,271.45a270.637,270.637,0,0,1-191.86-79.59q-9.225-9.225-17.53-19.3C3593.05,4818.85,3592.36,4818.02,3591.68,4817.17Zm-59.5-170.04c0,149.4,121.55,270.95,270.96,270.95s270.95-121.55,270.95-270.95-121.55-270.95-270.95-270.95S3532.18,4497.73,3532.18,4647.13Z"/>
      <path id="Path_568" data-name="Path 568" class="cls-1" d="M3531.18,4647.13c0,149.96,122,271.95,271.96,271.95s271.95-121.99,271.95-271.95-122-271.95-271.95-271.95S3531.18,4497.17,3531.18,4647.13Zm271.96,272.45c-150.23,0-272.46-122.22-272.46-272.45s122.23-272.45,272.46-272.45,272.45,122.22,272.45,272.45S3953.37,4919.58,3803.14,4919.58Z"/>
      <path id="Path_569" data-name="Path 569" class="cls-1" d="M3383.91,4647.13a419.35,419.35,0,0,1,306.82-403.98h1.88a418.62,418.62,0,1,0,221.05,0h1.89a419.438,419.438,0,1,1-531.64,403.98Z"/>
      <path id="Path_570" data-name="Path 570" class="cls-1" d="M3383.63,4660.67c-.04-1.07-.07-2.13-.09-3.2a2.344,2.344,0,0,1-.01-.26c-.03-1.36-.06-2.72-.08-4.08,0-.37-.01-.75-.01-1.12-.02-1.62-.03-3.25-.03-4.88s.01-3.24.03-4.86v-.45c.01-.25.01-.49.01-.73.02-1.34.05-2.68.08-4.02v-.01c0-.12,0-.24.01-.36v-.17c.04-1.47.08-2.94.13-4.41.04-1.11.09-2.22.14-3.33,0-.19.01-.38.02-.57.02-.49.04-.99.07-1.48,0-.17.01-.34.02-.5.01-.2.02-.39.03-.59s.02-.37.03-.56a418.575,418.575,0,0,1,122.37-274.75q12.465-12.465,25.8-23.76c1.06-.9,2.12-1.78,3.18-2.66.88-.74,1.76-1.47,2.65-2.19.2-.17.4-.33.6-.49q1.365-1.125,2.76-2.22c2.1-1.69,4.21-3.34,6.34-4.97.2-.16.4-.32.61-.47.52-.41,1.05-.8,1.58-1.2.47-.37.94-.72,1.41-1.07.67-.51,1.34-1.01,2.02-1.51q5.055-3.765,10.23-7.36c1.08-.75,2.16-1.5,3.25-2.24.86-.6,1.73-1.18,2.6-1.77,1.11-.74,2.22-1.48,3.33-2.21q3.78-2.49,7.61-4.88c.37-.24.74-.47,1.12-.7.77-.48,1.54-.96,2.31-1.43.94-.58,1.88-1.15,2.83-1.72,2.33-1.41,4.69-2.8,7.05-4.15.94-.55,1.89-1.09,2.84-1.63.29-.16.58-.33.87-.49.49-.27.98-.55,1.47-.82.43-.24.85-.48,1.28-.71q7.605-4.215,15.42-8.11c.64-.32,1.29-.64,1.93-.96s1.27-.62,1.91-.93c.75-.37,1.5-.73,2.25-1.09,1.67-.8,3.36-1.6,5.06-2.38,1.08-.51,2.17-1,3.26-1.5.32-.14.64-.29.97-.43q2.085-.945,4.18-1.86,2.325-1.02,4.67-2.01h.01q1.56-.66,3.12-1.29c.55-.24,1.11-.47,1.67-.7h.01c.41-.18.83-.34,1.25-.51,1.18-.48,2.37-.96,3.56-1.43,1.61-.64,3.23-1.26,4.84-1.87.41-.16.83-.31,1.24-.47.53-.2,1.05-.39,1.58-.59q3.45-1.29,6.91-2.5,2.325-.825,4.66-1.61c.65-.23,1.3-.45,1.95-.65.26-.09.52-.18.78-.26.95-.32,1.9-.63,2.85-.94q7.32-2.37,14.69-4.45h1.87a418.988,418.988,0,1,0,224.82,0h1.87c1.57.44,3.14.9,4.7,1.36.4.12.8.24,1.21.37,1.18.34,2.35.69,3.52,1.06.3.09.6.18.9.28,1.3.4,2.61.81,3.91,1.24.15.04.3.09.45.14q.54.165,1.08.36,1.455.465,2.91.96c.61.2,1.23.4,1.84.61,1.09.37,2.18.75,3.27,1.13.5.17,1.01.35,1.51.53,1.07.37,2.13.75,3.19,1.14,1.26.45,2.51.91,3.77,1.39q1.71.63,3.42,1.29c1.23.47,2.46.95,3.69,1.43.13.05.26.1.39.16s.28.1.42.16c1.36.54,2.71,1.08,4.07,1.64.14.06.28.11.42.17.44.18.88.36,1.32.55,1.04.42,2.08.86,3.12,1.3h.01q2.7,1.14,5.37,2.32c.64.27,1.27.56,1.91.84.22.1.45.2.67.3.34.14.67.3,1.01.46.12.04.23.1.35.15.39.18.78.35,1.17.54.7.31,1.41.63,2.11.96.93.43,1.86.86,2.78,1.3.27.12.53.24.79.37q1.755.825,3.51,1.68c1.29.62,2.58,1.25,3.87,1.9.83.41,1.67.83,2.5,1.26.45.22.9.45,1.34.67.06.03.12.07.18.1,1.25.63,2.48,1.27,3.72,1.91.95.5,1.89,1,2.83,1.5.44.24.88.47,1.32.71.98.52,1.96,1.06,2.94,1.59.25.14.5.28.74.41,1.15.63,2.29,1.27,3.42,1.91.94.53,1.87,1.05,2.79,1.59.27.15.54.3.81.46,1.29.74,2.57,1.48,3.84,2.24,2.47,1.45,4.91,2.93,7.34,4.44h.01c.2.12.41.25.61.38.12.08.25.16.37.24.3.18.59.36.88.54s.58.36.87.55q1.275.795,2.52,1.59c.28.18.56.36.84.55.82.52,1.65,1.05,2.47,1.59.53.35,1.05.69,1.57,1.03.23.15.46.3.69.46h.01c.32.21.64.43.96.65.87.57,1.73,1.15,2.6,1.74,1.16.78,2.3,1.56,3.44,2.35l.1.07q1.77,1.23,3.52,2.46c.11.08.23.16.34.25,1.43,1.01,2.86,2.03,4.27,3.06.23.16.45.33.67.5.56.4,1.12.81,1.68,1.22s1.14.85,1.71,1.28q1.875,1.4,3.72,2.81c.1.07.2.15.3.23.08.06.16.12.24.19,1.26.96,2.5,1.92,3.74,2.9l.01.01c.17.12.34.26.51.4,1.13.89,2.26,1.78,3.38,2.68.02.02.05.04.07.06,1.11.9,2.22,1.8,3.33,2.71.69.57,1.38,1.14,2.06,1.71.66.54,1.32,1.09,1.97,1.65a4.677,4.677,0,0,1,.43.37h.01c.23.19.47.39.7.6.46.37.92.76,1.37,1.16.29.24.57.48.85.74q.9.75,1.77,1.53c.21.17.43.36.64.55.41.35.82.71,1.22,1.08.68.58,1.35,1.18,2.02,1.78q9.015,8.04,17.61,16.64a418.527,418.527,0,0,1,122.42,275.87c.01.2.02.39.03.59q.09,1.77.15,3.54l.06,1.62c.06,1.52.11,3.05.14,4.58,0,.17.01.35.01.52.03,1.21.05,2.42.07,3.62.02.93.03,1.85.03,2.77.01,1.23.02,2.45.02,3.68,0,1.2,0,2.41-.02,3.61v.08c0,.92-.01,1.83-.03,2.74-.02,1.22-.04,2.43-.07,3.64,0,.17-.01.34-.01.52v.01c-.03,1.52-.08,3.05-.14,4.57-.02.53-.04,1.07-.06,1.6-.04,1.2-.1,2.39-.15,3.58-.01.15-.02.31-.03.47v.08a418.572,418.572,0,0,1-122.42,275.89q-8.2,8.205-16.8,15.91l-.25.22c-1,.9-2,1.79-3.01,2.67q-1.62,1.44-3.27,2.85c-1,.86-2.01,1.73-3.03,2.58-.1.08-.19.16-.28.24-.3.25-.59.5-.89.74-1.86,1.57-3.75,3.12-5.64,4.65-1.62,1.31-3.25,2.62-4.9,3.9q-1.77,1.4-3.55,2.76c-.25.2-.51.39-.77.59-1.07.82-2.15,1.63-3.23,2.44-.14.11-.28.22-.43.33-1.31.98-2.62,1.95-3.95,2.9a.01.01,0,0,1-.01.01c-1.33.98-2.68,1.94-4.02,2.9-1.23.87-2.46,1.74-3.7,2.59-.17.12-.34.24-.5.35l-1.05.72c-.45.32-.91.63-1.37.94l-1.38.93c-.32.22-.63.44-.95.64q-1.8,1.215-3.6,2.4h-.01q-2.1,1.4-4.23,2.74c-1.41.91-2.84,1.81-4.26,2.69-.18.12-.36.23-.54.34-1.23.76-2.46,1.52-3.7,2.27a.341.341,0,0,0-.08.05q-2.145,1.29-4.3,2.56c-1.77,1.05-3.54,2.08-5.33,3.09-.86.49-1.72.98-2.59,1.46-.28.16-.55.32-.83.47-.81.45-1.62.9-2.43,1.34-.96.53-1.92,1.05-2.89,1.57-.45.25-.9.49-1.34.71-.74.4-1.47.79-2.21,1.18-.2.11-.4.21-.61.32-1.29.68-2.57,1.34-3.86,2-.01,0-.02.01-.03.01-1.28.66-2.56,1.3-3.84,1.94-.23.11-.45.22-.68.34-.27.13-.54.26-.81.4-.5.24-1,.49-1.49.73l-1.29.63c-.95.46-1.9.91-2.85,1.36-1.11.53-2.22,1.05-3.34,1.56-1.08.51-2.16,1-3.24,1.49-.38.18-.76.35-1.14.52-1.27.57-2.55,1.14-3.83,1.7-1.68.74-3.37,1.46-5.06,2.18h-.01c-1.62.69-3.23,1.36-4.86,2.02-.2.09-.4.17-.61.25q-1.38.57-2.76,1.11-3.375,1.35-6.78,2.64c-1.42.54-2.85,1.07-4.28,1.59-.22.08-.43.16-.65.24-.76.28-1.52.55-2.29.82-.75.27-1.51.54-2.27.81l-.01.01c-.11.04-.23.08-.35.12-1.05.36-2.1.73-3.16,1.09-.7.24-1.4.48-2.1.71-1.04.35-2.08.69-3.12,1.03l-2.03.66c-1.19.38-2.39.76-3.59,1.13-.21.07-.41.13-.62.19-1.27.4-2.54.78-3.82,1.16q-.6.195-1.2.36a422.158,422.158,0,0,1-246.48-2.67c-.47-.15-.94-.3-1.4-.45-1.65-.53-3.3-1.08-4.95-1.63-.01,0-.01-.01-.02-.01-.51-.17-1.02-.34-1.53-.53q-4.185-1.41-8.34-2.94-9.855-3.6-19.57-7.71-14.07-5.94-27.58-12.85-2.25-1.155-4.48-2.32a418.8,418.8,0,0,1-43.11-26.11v-.01q-8.28-5.73-16.29-11.86a.01.01,0,0,1-.01-.01q-2-1.53-3.99-3.09t-3.95-3.14c-1.06-.86-2.13-1.73-3.2-2.6-.24-.2-.48-.4-.73-.6q-3.885-3.21-7.72-6.53l-.01-.01q-1.905-1.65-3.8-3.33a.01.01,0,0,1-.01-.01c-1.26-1.12-2.52-2.24-3.77-3.38a.01.01,0,0,0-.01-.01q-3.75-3.405-7.43-6.92l-.01-.01q-3.675-3.51-7.29-7.12a418.681,418.681,0,0,1-121.68-263.97v-.01c-.02-.2-.03-.4-.05-.59,0-.11-.01-.21-.02-.32-.01-.16-.03-.32-.04-.47-.06-.79-.11-1.58-.16-2.37v-.02c-.02-.19-.03-.39-.04-.59-.01-.13-.02-.26-.03-.4-.03-.41-.06-.82-.08-1.24-.04-.64-.08-1.28-.11-1.93-.02-.26-.04-.51-.05-.77s-.03-.51-.04-.77a.614.614,0,0,1-.01-.14c-.03-.55-.06-1.11-.09-1.67s-.05-1.13-.08-1.7c-.02-.29-.03-.59-.04-.89s-.03-.59-.04-.88l-.12-3.12C3383.66,4661.6,3383.64,4661.13,3383.63,4660.67Z"/>
      <path id="Path_571" data-name="Path 571" class="cls-1" d="M3383.67,4632.12c.04-1.11.08-2.22.14-3.33C3383.76,4629.9,3383.71,4631,3383.67,4632.12Z"/>
      <path id="Path_572" data-name="Path 572" class="cls-1" d="M3382.91,4647.13a420.388,420.388,0,0,1,304.14-403.98h1.81q-7.38,2.085-14.69,4.45c-.95.31-1.9.61-2.85.94-.26.08-.52.17-.78.26-.65.2-1.3.42-1.95.65q-2.34.78-4.66,1.61-3.465,1.215-6.91,2.5c-.53.19-1.05.39-1.58.59-.41.16-.83.31-1.24.47-1.61.61-3.23,1.23-4.84,1.87-1.19.47-2.38.95-3.56,1.43-.42.16-.83.33-1.25.51h-.01c-.55.22-1.11.45-1.67.7q-1.56.63-3.12,1.29h-.01q-2.34.99-4.67,2.01-2.1.915-4.18,1.86c-.33.14-.65.29-.97.43-1.09.5-2.18.99-3.26,1.5-1.7.78-3.39,1.58-5.06,2.38-.75.36-1.5.72-2.25,1.09-.64.31-1.28.62-1.91.93s-1.29.64-1.93.96q-7.815,3.9-15.42,8.11c-.43.23-.85.47-1.28.71-.49.27-.98.55-1.47.82-.29.16-.58.33-.87.49-.95.54-1.9,1.08-2.84,1.63-2.36,1.35-4.72,2.74-7.05,4.15-.95.57-1.89,1.14-2.83,1.72-.77.47-1.54.95-2.31,1.43-.38.23-.75.46-1.12.7q-3.825,2.385-7.61,4.88c-1.11.73-2.22,1.47-3.33,2.21-.87.59-1.74,1.17-2.6,1.77-1.09.74-2.17,1.48-3.25,2.24q-5.175,3.6-10.23,7.36c-.68.5-1.35,1-2.02,1.51-.47.35-.94.7-1.41,1.07-.53.39-1.06.79-1.58,1.2-.21.15-.41.31-.61.47-2.13,1.63-4.24,3.28-6.34,4.97q-1.395,1.095-2.76,2.22c-.2.16-.4.32-.6.49-.89.72-1.77,1.45-2.65,2.19-1.06.88-2.12,1.76-3.18,2.66q-13.335,11.295-25.8,23.76a418.575,418.575,0,0,0-122.37,274.75c-.01.19-.02.37-.03.56s-.02.39-.03.59c-.01.16-.02.33-.02.5-.03.49-.05.99-.07,1.48-.01.19-.02.38-.02.57-.06,1.11-.1,2.22-.14,3.33-.05,1.47-.09,2.94-.13,4.41v.17c-.01.12-.01.24-.01.36v.01c-.03,1.34-.06,2.68-.08,4.02,0,.24,0,.48-.01.73v.45q-.03,2.43-.03,4.86c0,1.63.01,3.26.03,4.88,0,.37.01.75.01,1.12.02,1.36.05,2.72.08,4.08a2.34,2.34,0,0,0,.01.26c.02,1.07.05,2.13.09,3.2.01.47.03.93.04,1.4l.12,3.12c.01.29.03.59.04.88s.02.6.04.89c.03.57.05,1.13.08,1.7s.06,1.12.09,1.67a.617.617,0,0,0,.01.14c.01.26.02.51.04.77s.03.51.05.77c.03.65.07,1.29.11,1.93.02.42.05.83.08,1.24.01.14.02.27.03.4.01.2.02.4.04.59v.02c.05.79.1,1.58.16,2.37.01.15.03.31.04.47.01.11.02.21.02.32.02.19.03.39.05.59v.01a418.681,418.681,0,0,0,121.68,263.97q3.615,3.615,7.29,7.12l.01.01q3.69,3.51,7.43,6.92a.01.01,0,0,1,.01.01c1.25,1.14,2.51,2.26,3.77,3.38a.01.01,0,0,0,.01.01q1.89,1.68,3.8,3.33l.01.01q3.84,3.315,7.72,6.53c.25.2.49.4.73.6,1.07.87,2.14,1.74,3.2,2.6,1.31,1.06,2.63,2.1,3.95,3.14s2.66,2.07,3.99,3.09a.01.01,0,0,0,.01.01q8.01,6.135,16.29,11.86v.01a418.778,418.778,0,0,0,43.11,26.11c1.49.78,2.98,1.56,4.48,2.32q13.515,6.9,27.58,12.85,9.7,4.11,19.57,7.71,4.155,1.53,8.34,2.94c.51.19,1.02.36,1.53.53.01,0,.01.01.02.01,1.65.55,3.3,1.1,4.95,1.63.46.15.93.3,1.4.45a422.158,422.158,0,0,0,246.48,2.67q.6-.165,1.2-.36c1.28-.38,2.55-.76,3.82-1.16.21-.06.41-.12.62-.19,1.2-.37,2.4-.75,3.59-1.13l2.03-.66c1.04-.34,2.08-.68,3.12-1.03.7-.23,1.4-.47,2.1-.71,1.06-.36,2.11-.73,3.16-1.09.12-.04.24-.08.35-.12l.01-.01c.76-.26,1.51-.53,2.27-.81s1.53-.54,2.29-.82c.22-.08.43-.16.65-.24,1.43-.52,2.86-1.05,4.28-1.59q3.405-1.29,6.78-2.64,1.38-.54,2.76-1.11c.21-.08.41-.16.61-.25,1.63-.66,3.24-1.33,4.86-2.02h.01c1.69-.72,3.38-1.44,5.06-2.18,1.28-.56,2.56-1.13,3.83-1.7.38-.17.76-.34,1.14-.52,1.08-.49,2.16-.98,3.24-1.49,1.12-.51,2.23-1.03,3.34-1.56.95-.45,1.9-.9,2.85-1.36l1.29-.63c.49-.24.99-.49,1.49-.73.27-.13.54-.27.81-.4.23-.12.45-.23.68-.34,1.28-.64,2.56-1.28,3.84-1.94.01,0,.02-.01.03-.01,1.29-.66,2.57-1.32,3.86-2,.21-.11.41-.21.61-.32.74-.39,1.47-.78,2.21-1.18.44-.22.89-.46,1.34-.71.97-.52,1.93-1.04,2.89-1.57.81-.44,1.62-.89,2.43-1.34.28-.15.55-.31.83-.47.87-.48,1.73-.97,2.59-1.46,1.79-1.01,3.56-2.04,5.33-3.09,1.44-.84,2.87-1.7,4.3-2.56a.341.341,0,0,1,.08-.05c1.24-.75,2.47-1.51,3.7-2.27.18-.11.36-.22.54-.34,1.42-.88,2.85-1.78,4.26-2.69s2.83-1.81,4.23-2.74h.01q1.8-1.185,3.6-2.4c.32-.2.63-.42.95-.64.46-.31.92-.61,1.38-.93s.92-.62,1.37-.94l1.05-.72c.16-.11.33-.23.5-.35,1.24-.85,2.47-1.72,3.7-2.59,1.34-.96,2.69-1.92,4.02-2.9a.01.01,0,0,0,.01-.01c1.33-.95,2.64-1.93,3.95-2.9.15-.11.29-.22.43-.33,1.08-.81,2.16-1.62,3.23-2.44.26-.2.52-.39.77-.59,1.19-.91,2.38-1.83,3.55-2.76,1.65-1.28,3.28-2.59,4.9-3.9,1.89-1.53,3.78-3.08,5.64-4.65.3-.24.59-.49.89-.74.09-.08.18-.16.28-.24,1.02-.85,2.03-1.72,3.03-2.58q1.65-1.41,3.27-2.85c1.01-.88,2.01-1.77,3.01-2.67l.25-.22q8.595-7.695,16.8-15.91a418.572,418.572,0,0,0,122.42-275.89v-.08c.01-.16.02-.32.03-.47.05-1.19.11-2.38.15-3.58.02-.53.04-1.07.06-1.6.06-1.52.11-3.05.14-4.57v-.01c0-.18.01-.35.01-.52.03-1.21.05-2.42.07-3.64.02-.91.03-1.82.03-2.74v-.08c.02-1.2.02-2.41.02-3.61,0-1.23-.01-2.45-.02-3.68,0-.92-.01-1.84-.03-2.77-.02-1.2-.04-2.41-.07-3.62,0-.17-.01-.35-.01-.52-.03-1.53-.08-3.06-.14-4.58l-.06-1.62q-.06-1.77-.15-3.54c-.01-.2-.02-.39-.03-.59a418.527,418.527,0,0,0-122.42-275.87q-8.595-8.595-17.61-16.64c-.67-.6-1.34-1.2-2.02-1.78-.4-.37-.81-.73-1.22-1.08-.21-.19-.43-.38-.64-.55q-.87-.78-1.77-1.53c-.28-.26-.56-.5-.85-.74-.45-.4-.91-.79-1.37-1.16-.23-.21-.47-.41-.7-.6h-.01a4.754,4.754,0,0,0-.43-.37c-.65-.56-1.31-1.11-1.97-1.65-.68-.57-1.37-1.14-2.06-1.71-1.11-.91-2.22-1.81-3.33-2.71-.02-.02-.05-.04-.07-.06q-1.68-1.35-3.38-2.68c-.17-.14-.34-.28-.51-.4l-.01-.01c-.95-.76-1.9-1.49-2.86-2.23-.29-.23-.58-.45-.88-.67-.08-.07-.16-.13-.24-.19-.1-.08-.2-.16-.3-.23q-1.845-1.425-3.72-2.81c-.57-.43-1.14-.86-1.71-1.28s-1.12-.82-1.68-1.22c-.22-.17-.44-.34-.67-.5-1.41-1.03-2.84-2.05-4.27-3.06-.11-.09-.23-.17-.34-.25q-1.755-1.23-3.52-2.46l-.1-.07c-1.15-.8-2.29-1.57-3.44-2.35-.87-.59-1.73-1.17-2.6-1.74-.32-.22-.64-.44-.96-.65h-.01c-.23-.16-.46-.31-.69-.46-.52-.34-1.04-.68-1.57-1.03-.81-.53-1.64-1.07-2.47-1.59-.28-.19-.56-.37-.84-.55q-1.245-.795-2.52-1.59c-.29-.19-.58-.37-.87-.55-.42-.27-.83-.53-1.25-.78-.2-.13-.41-.26-.61-.38h-.01q-3.645-2.265-7.34-4.44c-1.27-.76-2.55-1.5-3.84-2.24-.27-.16-.54-.31-.81-.46q-1.38-.81-2.79-1.59c-1.13-.65-2.27-1.28-3.42-1.91-.24-.13-.49-.27-.74-.41-.98-.53-1.96-1.07-2.94-1.59-.44-.24-.88-.47-1.32-.71-.94-.5-1.88-1-2.83-1.5-1.24-.64-2.47-1.28-3.72-1.91-.06-.03-.12-.07-.18-.1-.44-.22-.89-.45-1.34-.67-.83-.43-1.67-.85-2.5-1.26-1.29-.65-2.58-1.28-3.87-1.9q-1.755-.855-3.51-1.68c-.26-.13-.52-.25-.79-.37-.92-.44-1.85-.88-2.78-1.3-.7-.33-1.41-.65-2.11-.96-.39-.19-.78-.36-1.17-.54-.12-.05-.23-.11-.35-.15-.34-.16-.67-.32-1.01-.46l-.01-.01c-.22-.1-.44-.2-.66-.29-.64-.28-1.27-.57-1.91-.84q-2.67-1.185-5.37-2.32h-.01c-1.04-.44-2.08-.88-3.12-1.3-.44-.19-.88-.37-1.32-.55l-.01-.01c-.14-.05-.28-.11-.41-.16-1.36-.56-2.71-1.1-4.07-1.64-.14-.06-.28-.11-.42-.16s-.26-.11-.39-.16c-1.23-.48-2.46-.96-3.69-1.43q-1.71-.66-3.42-1.29c-1.26-.48-2.51-.94-3.77-1.39-1.06-.39-2.12-.77-3.19-1.14-.5-.18-1.01-.36-1.51-.53-1.09-.38-2.18-.76-3.27-1.13-.61-.21-1.23-.41-1.84-.61-.37-.14-.75-.26-1.12-.38-.6-.2-1.19-.4-1.79-.58q-.54-.195-1.08-.36c-.15-.05-.3-.1-.45-.14-1.3-.43-2.61-.84-3.91-1.24-.3-.1-.6-.19-.9-.28-1.17-.37-2.34-.72-3.52-1.06-.41-.13-.81-.25-1.21-.37-1.56-.46-3.13-.92-4.7-1.36h1.81a420.45,420.45,0,1,1-536.321,403.98Z"/>
      <path id="Path_573" data-name="Path 573" class="cls-1" d="M3415.5,4810.9a420.93,420.93,0,0,1,269.76-567.76h1.79a419.915,419.915,0,1,0,232.18,0h1.78A420.709,420.709,0,1,1,3415.5,4810.9Z"/>
      <path id="Path_574" data-name="Path 574" class="cls-1" d="M3415.5,4483.33a420.725,420.725,0,1,0,505.51-240.19h6.36c172.59,53.18,298.38,214.16,298.38,403.98,0,233.03-189.58,422.62-422.61,422.62s-422.62-189.59-422.62-422.62c0-189.82,125.79-350.8,298.39-403.98h6.35A421.746,421.746,0,0,0,3415.5,4483.33Z"/>
      <path id="Path_575" data-name="Path 575" class="cls-1" d="M3380.02,4647.13c0-189.74,124.89-350.3,296.95-403.98h1.94c-172.6,53.18-298.39,214.16-298.39,403.98,0,233.03,189.59,422.62,422.62,422.62s422.61-189.59,422.61-422.62c0-189.82-125.79-350.8-298.38-403.98h1.94c172.06,53.68,296.94,214.24,296.94,403.98,0,233.68-189.43,423.12-423.11,423.12S3380.02,4880.81,3380.02,4647.13Z"/>
      <path id="Path_576" data-name="Path 576" class="cls-1" d="M3676.97,4243.15c-172.06,53.68-296.95,214.24-296.95,403.98,0,233.68,189.44,423.12,423.12,423.12s423.11-189.44,423.11-423.12c0-189.74-124.88-350.3-296.94-403.98H3931q18.75,5.925,37.03,13.66a423.263,423.263,0,1,1-329.78,0q18.255-7.725,37.03-13.66Z"/>
      <path id="Path_577" data-name="Path 577" class="cls-1" d="M3253.96,3470.25v39.21a100,100,0,0,1-200,0v-39.21Z"/>
      <path id="Path_578" data-name="Path 578" class="cls-1" d="M2830.84,3470.25v39.21a100,100,0,0,1-200,0v-39.21Z"/>
      <path id="Path_579" data-name="Path 579" class="cls-1" d="M2407.73,3470.25v39.21a100,100,0,0,1-200,0v-39.21Z"/>
      <path id="Path_580" data-name="Path 580" class="cls-1" d="M2270.86,4483.92a419.215,419.215,0,1,1-498.65-240.77h224.82a420.186,420.186,0,0,1,273.83,240.77Zm-114.29,163.21c0-149.96-122-271.95-271.96-271.95s-271.95,121.99-271.95,271.95,122,271.95,271.95,271.95S2156.57,4797.08,2156.57,4647.13Z"/>
      <path id="Path_581" data-name="Path 581" class="cls-1" d="M1884.61,4376.17c149.41,0,270.96,121.55,270.96,270.95s-121.55,270.95-270.96,270.95-270.95-121.55-270.95-270.95S1735.21,4376.17,1884.61,4376.17Z"/>
      <path id="Path_582" data-name="Path 582" class="cls-1" d="M1884.61,4227.9a418.1,418.1,0,0,1,112.42,15.24H1772.21A418.418,418.418,0,0,1,1884.61,4227.9Z"/>
      <path id="Path_583" data-name="Path 583" class="cls-1" d="M1984.61,3470.25v39.21a100,100,0,0,1-200,0v-39.21h200Z"/>
      <path id="Path_584" data-name="Path 584" class="cls-1" d="M1776.4,3720.25H1320.82v272.89H4584.2a125,125,0,0,1,0,250H3931a426.226,426.226,0,0,0-255.72,0H2012.47a426.193,426.193,0,0,0-255.71,0H1220.82a159.524,159.524,0,0,1-81.38-21.81c-42.97-25.46-68.62-69.58-68.62-118.01V3610.06c0-48.43,25.65-92.54,68.62-118a159.524,159.524,0,0,1,81.38-21.81H1611.7l15.16,111.85C1632.92,3659.29,1697.68,3720.25,1776.4,3720.25Z"/>
      <path id="Path_585" data-name="Path 585" class="cls-1" d="M1884.61,4227.4a418.573,418.573,0,0,1,114.27,15.74h-1.85a422.181,422.181,0,0,0-224.82,0h-1.86A418.95,418.95,0,0,1,1884.61,4227.4Z"/>
      <path id="Path_586" data-name="Path 586" class="cls-1" d="M1884.61,4226.9a419.1,419.1,0,0,1,116.09,16.24h-1.82a422.619,422.619,0,0,0-228.53,0h-1.83A419,419,0,0,1,1884.61,4226.9Z"/>
      <path id="Path_587" data-name="Path 587" class="cls-1" d="M1884.61,4224.52a421.108,421.108,0,0,1,124.22,18.63h-8.13a423.043,423.043,0,0,0-232.18,0h-8.13A421.108,421.108,0,0,1,1884.61,4224.52Z"/>
      <path id="Path_588" data-name="Path 588" class="cls-1" d="M2008.83,4243.15a423.451,423.451,0,0,0-248.44,0h-1.95a425.639,425.639,0,0,1,252.34,0Z"/>
      <path id="Path_589" data-name="Path 589" class="cls-1" d="M1884.61,4223.52a421.865,421.865,0,0,1,127.86,19.63h-1.69a425.639,425.639,0,0,0-252.34,0h-1.68A421.548,421.548,0,0,1,1884.61,4223.52Z"/>
      <path id="Path_590" data-name="Path 590" class="cls-1" d="M1884.61,4918.58c-149.68,0-271.45-121.77-271.45-271.45s121.77-271.45,271.45-271.45,271.46,121.77,271.46,271.45S2034.29,4918.58,1884.61,4918.58Zm-270.95-271.45c0,149.4,121.55,270.95,270.95,270.95s270.96-121.55,270.96-270.95-121.55-270.95-270.96-270.95S1613.66,4497.73,1613.66,4647.13Z"/>
      <path id="Path_591" data-name="Path 591" class="cls-1" d="M1884.61,4375.17c149.96,0,271.96,121.99,271.96,271.95s-122,271.95-271.96,271.95-271.95-121.99-271.95-271.95S1734.66,4375.17,1884.61,4375.17Zm0,543.41c149.68,0,271.46-121.77,271.46-271.45s-121.78-271.45-271.46-271.45-271.45,121.77-271.45,271.45S1734.93,4918.58,1884.61,4918.58Z"/>
      <path id="Path_592" data-name="Path 592" class="cls-1" d="M1465.39,4647.13a419.17,419.17,0,1,0,531.64-403.98h1.85a419.445,419.445,0,1,1-228.53,0h1.86a418.969,418.969,0,0,0-306.82,403.98Z"/>
      <path id="Path_593" data-name="Path 593" class="cls-1" d="M1464.89,4647.13a419.655,419.655,0,1,0,533.99-403.98h1.82a419.915,419.915,0,1,1-232.18,0h1.83a419.484,419.484,0,0,0-305.46,403.98Z"/>
      <path id="Path_594" data-name="Path 594" class="cls-1" d="M1462,4647.13c0-189.82,125.79-350.8,298.39-403.98h8.13a420.009,420.009,0,1,0,232.18,0h8.13c172.61,53.18,298.4,214.16,298.4,403.98,0,233.03-189.59,422.62-422.62,422.62S1462,4880.15,1462,4647.13Z"/>
      <path id="Path_595" data-name="Path 595" class="cls-1" d="M1760.39,4243.15c-172.6,53.18-298.39,214.16-298.39,403.98,0,233.03,189.58,422.62,422.61,422.62s422.62-189.59,422.62-422.62c0-189.82-125.79-350.8-298.4-403.98h1.95c172.06,53.68,296.95,214.24,296.95,403.98,0,233.68-189.44,423.12-423.12,423.12s-423.11-189.44-423.11-423.12c0-189.74,124.88-350.3,296.94-403.98Z"/>
      <path id="Path_596" data-name="Path 596" class="cls-1" d="M1461,4647.13a424.068,424.068,0,0,1,258.72-390.32q18.255-7.725,37.04-13.66h1.68c-172.06,53.68-296.94,214.24-296.94,403.98,0,233.68,189.43,423.12,423.11,423.12s423.12-189.44,423.12-423.12c0-189.74-124.89-350.3-296.95-403.98h1.69q18.765,5.925,37.03,13.66A423.844,423.844,0,1,1,1461,4647.13Z"/>
      <g id="Group_16" data-name="Group 16">
        <path id="Path_597" data-name="Path 597" class="cls-2" d="M1303.95,1725.35H4638.49L4276.55,3587.99H1641.15Z"/>
        <line id="Line_19" data-name="Line 19" class="cls-2" x2="2813.48" transform="translate(1553.55 3122.33)"/>
        <line id="Line_20" data-name="Line 20" class="cls-2" x2="2939.73" transform="translate(1472.55 2656.67)"/>
        <line id="Line_21" data-name="Line 21" class="cls-2" x2="3140.89" transform="translate(1407.11 2191.01)"/>
        <line id="Line_22" data-name="Line 22" class="cls-2" x1="301.62" y2="1862.64" transform="translate(3398.08 1725.35)"/>
        <line id="Line_23" data-name="Line 23" class="cls-2" x2="261.81" y2="1862.64" transform="translate(2257.81 1725.35)"/>
      </g>
      <path id="Path_598" data-name="Path 598" class="cls-3" d="M1303.95,1725.35,1120.33,831.71H623.19"/>
    </g>
  </g>
</svg>
