<svg xmlns="http://www.w3.org/2000/svg" width="4426.044" height="4579.411" viewBox="0 0 4426.044 4579.411">
  <defs>
    <style>
      .cls-1 {
        fill: #fff;
      }
    </style>
  </defs>
  <g id="tattoo_icon" data-name="tattoo icon" transform="translate(-621.591 -544.99)">
    <path id="Path_401" data-name="Path 401" class="cls-1" d="M5032.9,2646.6l-724,1130.25a93.59,93.59,0,0,1-129.15,28.29L3967.51,3669.2a91.967,91.967,0,0,1-8-5.77,74.79,74.79,0,0,0,73-130.27l-63-40.34,505.43-789,63,40.34a74.78,74.78,0,0,0,103.31-22.63l-545.77,852,117.75,75.44,663.51-1035.79-117.75-75.43-117.74,183.8a74.791,74.791,0,0,0-22.63-103.32l-63-40.34,107.66-168.05a93.58,93.58,0,0,1,129.14-28.3l212.22,135.95A93.58,93.58,0,0,1,5032.9,2646.6Z"/>
    <path id="Path_402" data-name="Path 402" class="cls-1" d="M4055.09,3636.48a74.79,74.79,0,0,1-95.61,26.95,93.6,93.6,0,0,1-20.26-123.38l30.26-47.23,63,40.34a74.79,74.79,0,0,1,22.61,103.32Z"/>
    <path id="Path_403" data-name="Path 403" class="cls-1" d="M4618.57,2618.2a74.809,74.809,0,1,1-80.68,126l-63-40.34,80.68-125.95Z"/>
    <path id="Path_404" data-name="Path 404" class="cls-1" d="M3959.48,3663.43a72.582,72.582,0,0,1-7.71-4.32L3032.59,3070.3l32.27-50.37,671.45,430.13,48.42-75.59,184.75,118.35-30.26,47.23a93.6,93.6,0,0,0,20.26,123.38Z"/>
    <path id="Path_405" data-name="Path 405" class="cls-1" d="M4555.59,2577.86l-80.68,125.95-156.05-99.96,151.32,95.47-38.27-174.68-6.63-30.26Z"/>
    <path id="Path_406" data-name="Path 406" class="cls-1" d="M4470.18,2699.32l-151.32-95.47-28.7-18.39,80.69-125.95,54.43,34.87,6.63,30.26Z"/>
    <path id="Path_407" data-name="Path 407" class="cls-1" d="M4425.28,2494.38l-54.43-34.87-123.69-79.23L3956.33,1052.72l146.11-32.01Z"/>
    <path id="Path_408" data-name="Path 408" class="cls-1" d="M4318.86,2603.85l-28.82-18.19.12-.2Z"/>
    <path id="Path_409" data-name="Path 409" class="cls-1" d="M3784.73,3374.47l-48.42,75.59-671.45-430.13,8.07-12.61-56.35-36.1,40.34-62.97Z"/>
    <path id="Path_410" data-name="Path 410" class="cls-1" d="M4290.04,2585.66l-505.31,788.81-727.81-466.22,505.44-789.01,125.95,80.68-473.17,738.65,475.9,304.85,472.49-737.58Z"/>
    <path id="Path_411" data-name="Path 411" class="cls-1" d="M4290.16,2585.46l-.12.2-126.51-79.82.68-1.06Z"/>
    <path id="Path_412" data-name="Path 412" class="cls-1" d="M4370.85,2459.51l-80.69,125.95-125.95-80.68L3949.07,2367a236.478,236.478,0,0,1-74.41-126.53l-25.169-114.89L4042,2248.87a85.755,85.755,0,0,0,17.12,14.23L4247.53,2382l-.37-1.69Z"/>
    <path id="Path_413" data-name="Path 413" class="cls-1" d="M4247.53,2382l-188.39-118.9a85.743,85.743,0,0,1-17.12-14.23l205.139,131.41Z"/>
    <path id="Path_414" data-name="Path 414" class="cls-1" d="M4164.21,2504.78l-.68,1.06-184.21-116.23-1.39-.89a234.407,234.407,0,0,1-28.86-21.76Z"/>
    <path id="Path_415" data-name="Path 415" class="cls-1" d="M4042,2248.87l-192.53-123.33L3630.12,1124.19l146.12-32,244.54,1116.25A86.92,86.92,0,0,0,4042,2248.87Z"/>
    <path id="Path_416" data-name="Path 416" class="cls-1" d="M3949.07,2367l-260.76-167-125.95-80.68,80.68-126,206.45,132.26,25.17,114.89A236.478,236.478,0,0,0,3949.07,2367Z"/>
    <path id="Path_417" data-name="Path 417" class="cls-1" d="M4882.86,773.18a74.78,74.78,0,0,1-57,89.06L4102.49,1020.71l-32-146.11L4793.8,716.13a74.78,74.78,0,0,1,89.06,57.05Z"/>
    <path id="Path_418" data-name="Path 418" class="cls-1" d="M3032.59,3070.3l-187.46,292.63A93.581,93.581,0,0,1,2716,3391.22l-317.74-203.54,80.68-125.95L2749.44,3235l157.2-245.39Z"/>
    <path id="Path_419" data-name="Path 419" class="cls-1" d="M3064.86,3019.93l-32.27,50.37-125.95-80.69,40.34-62.97,69.6,44.58-8.07,12.61Z"/>
    <rect id="Rectangle_62" data-name="Rectangle 62" class="cls-1" width="14.97" height="66.92" transform="matrix(0.539, -0.842, 0.842, 0.539, 3008.465, 2983.597)"/>
    <path id="Path_420" data-name="Path 420" class="cls-1" d="M3056.92,2908.25l-40.34,62.97-69.6-44.58-40.34,62.97-990.88-634.74,80.69-125.95,228.03,146.07-48.42,75.59,727.8,466.22,48.42-75.58Z"/>
    <rect id="Rectangle_63" data-name="Rectangle 63" class="cls-1" width="149.58" height="124.27" transform="matrix(0.539, -0.842, 0.842, 0.539, 3457.625, 2052)"/>
    <rect id="Rectangle_64" data-name="Rectangle 64" class="cls-1" width="89.76" height="864.33" transform="matrix(0.539, -0.842, 0.842, 0.539, 2176.022, 2450.384)"/>
    <path id="Path_421" data-name="Path 421" class="cls-1" d="M3457.72,2052.2l-505.44,789.02-727.8-466.23,505.43-789.01,125.95,80.68-473.17,738.65,475.91,304.86,473.16-738.65Z"/>
    <path id="Path_422" data-name="Path 422" class="cls-1" d="M3538.4,1926.25l-80.68,125.95-125.96-80.68-475.9-304.86-125.95-80.68,80.68-125.95Z"/>
    <rect id="Rectangle_65" data-name="Rectangle 65" class="cls-1" width="149.58" height="149.58" transform="translate(3924.306 906.391) rotate(-12.36)"/>
    <path id="Path_423" data-name="Path 423" class="cls-1" d="M4070.43,874.6l-146.11,32-31.54-144a86.57,86.57,0,0,0-103.08-66l-11,2.4a86.56,86.56,0,0,0-66,103.09l31.54,144-146.12,32-31.54-144A236,236,0,0,1,3746.71,552.9l11-2.41a236,236,0,0,1,281.21,180.14Z"/>
    <rect id="Rectangle_66" data-name="Rectangle 66" class="cls-1" width="149.58" height="149.58" transform="translate(3598.094 978.01) rotate(-12.36)"/>
    <path id="Path_424" data-name="Path 424" class="cls-1" d="M2283.53,3401.43,1527.7,4581.32a93.6,93.6,0,0,1-129.15,28.3l-107.5-68.871,30.25-47.23a93.6,93.6,0,0,0-28.3-129.15l139,89,188.37-294.07,93.78,60.07,80.68-125.95-93.78-60.07,157.2-245.4,93.78,60.07,80.69-125.95L1939,3662l188.32-294-112.52-72.1a93.6,93.6,0,0,0,129.2-28.29l30.25-47.23,81,51.9a93.59,93.59,0,0,1,28.28,129.15Z"/>
    <path id="Path_425" data-name="Path 425" class="cls-1" d="M2478.93,3061.73l-80.68,125.95-83-53.15a93.35,93.35,0,0,1-42.42-68.15l11.65-18.18a92.836,92.836,0,0,0,13.59-35.7l114.84,73.56a56.15,56.15,0,0,0-17-77.48Z"/>
    <rect id="Rectangle_67" data-name="Rectangle 67" class="cls-1" width="149.37" height="111.214" transform="matrix(0.541, -0.841, 0.841, 0.541, 1613.027, 4165.1)"/>
    <rect id="Rectangle_68" data-name="Rectangle 68" class="cls-1" width="149.37" height="111.214" transform="matrix(0.541, -0.841, 0.841, 0.541, 1851.814, 3794.013)"/>
    <path id="Path_426" data-name="Path 426" class="cls-1" d="M2412.93,3086.06l-114.84-73.56a93.62,93.62,0,0,0-41.88-93.45L2396,3008.58a56.15,56.15,0,0,1,16.929,77.48Z"/>
    <path id="Path_427" data-name="Path 427" class="cls-1" d="M3598.11,978.07l32,146.12-250,54.76a74.788,74.788,0,1,1-32-146.113Z"/>
    <path id="Path_428" data-name="Path 428" class="cls-1" d="M2315.27,3134.53l-61-39.1,18.61-29a93.35,93.35,0,0,0,42.39,68.1Z"/>
    <rect id="Rectangle_69" data-name="Rectangle 69" class="cls-1" width="149.37" height="592.908" transform="matrix(0.541, -0.841, 0.841, 0.541, 1113.779, 3843.973)"/>
    <rect id="Rectangle_70" data-name="Rectangle 70" class="cls-1" width="149.58" height="593.74" transform="matrix(0.539, -0.842, 0.842, 0.539, 1358.342, 3467.525)"/>
    <path id="Path_429" data-name="Path 429" class="cls-1" d="M2174.2,3220.38l-30.2,47.23a93.6,93.6,0,0,1-129.15,28.29l-274.91-176.11a93.59,93.59,0,0,1-28.3-129.14l30.26-47.24,63,40.35L1774.57,3031a18.75,18.75,0,0,0,5.66,25.83l274.91,176.11a18.76,18.76,0,0,0,25.83-5.66l30.26-47.24Z"/>
    <rect id="Rectangle_71" data-name="Rectangle 71" class="cls-1" width="148.38" height="74.79" transform="matrix(0.539, -0.842, 0.842, 0.539, 2111.237, 3179.82)"/>
    <path id="Path_430" data-name="Path 430" class="cls-1" d="M2272.85,3066.38l-18.61,29-63-40.34,30.25-47.23a18.75,18.75,0,0,0-5.66-25.83L1941,2805.92a18.75,18.75,0,0,0-25.83,5.66l-30.26,47.23-63-40.34,30.25-47.23A93.6,93.6,0,0,1,1981.29,2743l274.92,176.1a93.62,93.62,0,0,1,41.88,93.45l-11.11-7.12A93.057,93.057,0,0,0,2272.85,3066.38Z"/>
    <path id="Path_431" data-name="Path 431" class="cls-1" d="M2284.5,3048.2l-11.65,18.18a93.059,93.059,0,0,1,14.13-61l11.11,7.12a92.84,92.84,0,0,1-13.59,35.7Z"/>
    <path id="Path_432" data-name="Path 432" class="cls-1" d="M1291.05,4540.75,1137.12,4781a92.866,92.866,0,0,1-11.84,14.91,79.79,79.79,0,0,0,10.36-43.82,78.36,78.36,0,0,0-31.34-58.5l123.77-193.21Z"/>
    <path id="Path_433" data-name="Path 433" class="cls-1" d="M1321.3,4493.52l-30.25,47.23-63-40.34,30.26-47.23a18.76,18.76,0,0,0-5.66-25.83l-222-142.19a18.75,18.75,0,0,0-25.83,5.66l-30.26,47.23-63-40.34,30.26-47.23a93.571,93.571,0,0,1,129.14-28.29l222,142.18a93.6,93.6,0,0,1,28.34,129.15Z"/>
    <path id="Path_434" data-name="Path 434" class="cls-1" d="M1125.28,4795.94a80.163,80.163,0,0,1-19.37,22.82l-356.8,288a78.08,78.08,0,0,1-125-80.09l112.4-444.51A80.19,80.19,0,0,1,749.14,4555,93.63,93.63,0,0,0,786,4667.14l5.26,3.37L696.59,5045c-1,3.75,2.53,6,5.54,3.55L1002.71,4806l5.27,3.38A93.65,93.65,0,0,0,1125.28,4795.94Z"/>
    <path id="Path_435" data-name="Path 435" class="cls-1" d="M1135.64,4752.12a79.79,79.79,0,0,1-10.36,43.82,93.65,93.65,0,0,1-117.3,13.39l-5.27-3.379,56.24-45.38c2.43-2,2.74-5.66.58-7l-11.21-7.19a18.75,18.75,0,0,0,25.83-5.66l30.15-47.07A78.362,78.362,0,0,1,1135.64,4752.12Z"/>
    <path id="Path_436" data-name="Path 436" class="cls-1" d="M2111.23,3180,2081,3227.27a18.76,18.76,0,0,1-25.83,5.66l-274.91-176.11a18.75,18.75,0,0,1-5.66-25.83l30.25-47.23,63,40.34,180.45,115.59Z"/>
    <rect id="Rectangle_72" data-name="Rectangle 72" class="cls-1" width="148.38" height="74.79" transform="matrix(0.539, -0.842, 0.842, 0.539, 2048.263, 3139.478)"/>
    <path id="Path_437" data-name="Path 437" class="cls-1" d="M2221.52,3007.86l-30.25,47.23-63-40.34-180.45-115.6-63-40.34,30.26-47.23a18.75,18.75,0,0,1,25.83-5.66L2215.86,2982a18.75,18.75,0,0,1,5.66,25.86Z"/>
    <path id="Path_438" data-name="Path 438" class="cls-1" d="M1104.3,4693.62l-30.15,47.07a18.75,18.75,0,0,1-25.83,5.66l-222-142.18a18.75,18.75,0,0,1-5.66-25.83l30.15-47.07c1.57.84,3.12,1.76,4.63,2.73l58.45,37.45,127.5,81.67,58.45,37.44C1101.39,4691.53,1102.87,4692.55,1104.3,4693.62Z"/>
    <path id="Path_439" data-name="Path 439" class="cls-1" d="M1228.07,4500.41,1104.3,4693.62c-1.43-1.07-2.91-2.09-4.42-3.06l-58.45-37.44,123.67-193.05Z"/>
    <path id="Path_440" data-name="Path 440" class="cls-1" d="M1258.33,4453.18l-30.26,47.23-63-40.34-127.5-81.68-63-40.34,30.26-47.23a18.75,18.75,0,0,1,25.83-5.66l222,142.19A18.76,18.76,0,0,1,1258.33,4453.18Z"/>
    <path id="Path_441" data-name="Path 441" class="cls-1" d="M1059.53,4753.54c2.16,1.37,1.85,5.07-.58,7L1002.71,4806l-66.39-42.53L857.67,4713l-66.39-42.53L809,4600.45c.77-3,4-4.85,6.14-3.47l11.22,7.19,222,142.18Z"/>
    <path id="Path_442" data-name="Path 442" class="cls-1" d="M1002.71,4806,702.13,5048.52c-3,2.43-6.49.2-5.54-3.55l94.69-374.46L857.67,4713,821.5,4856l114.82-92.66Z"/>
    <rect id="Rectangle_73" data-name="Rectangle 73" class="cls-1" width="148.38" height="214.3" transform="matrix(0.539, -0.842, 0.842, 0.539, 1867.802, 3023.896)"/>
    <rect id="Rectangle_74" data-name="Rectangle 74" class="cls-1" width="229.27" height="151.41" transform="matrix(0.539, -0.842, 0.842, 0.539, 914.04, 4571.212)"/>
    <path id="Path_443" data-name="Path 443" class="cls-1" d="M936.32,4763.42,821.5,4856.08l36.17-143.04Z"/>
    <path id="Path_444" data-name="Path 444" class="cls-1" d="M1037.6,4378.39,913.93,4571.45,855.48,4534c-1.51-1-3.06-1.89-4.63-2.73l123.77-193.22Z"/>
    <rect id="Rectangle_75" data-name="Rectangle 75" class="cls-1" width="148.38" height="74.79" transform="matrix(0.539, -0.842, 0.842, 0.539, 1804.843, 2983.558)"/>
    <path id="Path_445" data-name="Path 445" class="cls-1" d="M809,4600.45l-17.72,70.06-5.26-3.37A93.63,93.63,0,0,1,749.14,4555a79.888,79.888,0,0,1,35.47-27.71,78.3,78.3,0,0,1,66.24,4l-30.15,47.07a18.75,18.75,0,0,0,5.66,25.831L815.14,4597C813,4595.6,809.77,4597.43,809,4600.45Z"/>
    <path id="Path_446" data-name="Path 446" class="cls-1" d="M932.05,4133.14l139,89a93.571,93.571,0,0,0-129.14,28.29l-30.26,47.23-107.51-68.87a93.6,93.6,0,0,1-28.3-129.15l218.64-341.3,126,80.69Z"/>
    <path id="Path_447" data-name="Path 447" class="cls-1" d="M974.62,4338.05,850.85,4531.27a78.3,78.3,0,0,0-66.24-4A79.891,79.891,0,0,0,749.14,4555a94.521,94.521,0,0,1,8.58-17L911.65,4297.72Z"/>
    <path id="Path_448" data-name="Path 448" class="cls-1" d="M2810.59,1460l-80.68,126-228-146.07a74.809,74.809,0,0,1,80.68-126Z"/>
    <path id="Path_449" data-name="Path 449" class="cls-1" d="M1758.56,2600.27,1981.29,2743a93.6,93.6,0,0,0-129.15,28.29l-30.25,47.23-144-92.25Z"/>
    <path id="Path_450" data-name="Path 450" class="cls-1" d="M1739.89,3119.79l-112.52-72.08L1439,3341.77l-126-80.68,218.63-341.29a93.59,93.59,0,0,1,129.15-28.29l81,51.9-30.26,47.24a93.59,93.59,0,0,0,28.37,129.14Z"/>
    <rect id="Rectangle_76" data-name="Rectangle 76" class="cls-1" width="148.38" height="74.79" transform="matrix(0.539, -0.842, 0.842, 0.539, 1741.865, 2943.224)"/>
    <rect id="Rectangle_77" data-name="Rectangle 77" class="cls-1" width="149.37" height="149.37" transform="matrix(0.541, -0.841, 0.841, 0.541, 987.595, 3762.664)"/>
    <rect id="Rectangle_78" data-name="Rectangle 78" class="cls-1" width="291.43" height="149.58" transform="matrix(0.539, -0.842, 0.842, 0.539, 1075.228, 3632.238)"/>
    <rect id="Rectangle_79" data-name="Rectangle 79" class="cls-1" width="149.37" height="149.37" transform="matrix(0.541, -0.841, 0.841, 0.541, 1226.381, 3391.577)"/>
    <path id="Path_451" data-name="Path 451" class="cls-1" d="M1758.56,2600.27l-80.68,125.95c-137.326-87.971-177.336-270.609-89.365-407.935s270.609-177.336,407.935-89.365a74.79,74.79,0,1,0-80.69,125.95c-67.66-43.34-158-23.56-201.3,44.1S1690.9,2556.93,1758.56,2600.27Z"/>
    <path id="Path_452" data-name="Path 452" class="cls-1" d="M1996.45,2228.92l-80.69,125.95a74.79,74.79,0,0,1,80.69-125.95Z"/>
    <rect id="Rectangle_80" data-name="Rectangle 80" class="cls-1" width="149.37" height="0.819" transform="matrix(0.541, -0.841, 0.841, 0.541, 986.792, 3762.11)"/>
    <rect id="Rectangle_81" data-name="Rectangle 81" class="cls-1" width="149.58" height="0.82" transform="matrix(0.539, -0.842, 0.842, 0.539, 1231.725, 3386.396)"/>
  </g>
</svg>
